<?xml version="1.0" encoding="UTF-8" standalone="no"?>
<!-- Created with Inkscape (http://www.inkscape.org/) -->

<svg
   width="207.81841"
   height="113.45431"
   id="svg3792"
   version="1.1"
   inkscape:version="1.2.2 (732a01da63, 2022-12-09)"
   sodipodi:docname="lipupiselonasa.svg"
   xml:space="preserve"
   xmlns:inkscape="http://www.inkscape.org/namespaces/inkscape"
   xmlns:sodipodi="http://sodipodi.sourceforge.net/DTD/sodipodi-0.dtd"
   xmlns="http://www.w3.org/2000/svg"
   xmlns:svg="http://www.w3.org/2000/svg"
   xmlns:rdf="http://www.w3.org/1999/02/22-rdf-syntax-ns#"
   xmlns:cc="http://creativecommons.org/ns#"
   xmlns:dc="http://purl.org/dc/elements/1.1/"><title
     id="title4376">Lettre</title><defs
     id="defs3794"><inkscape:path-effect
       effect="spiro"
       id="path-effect16897"
       is_visible="true"
       lpeversion="1" /><inkscape:path-effect
       effect="simplify"
       id="path-effect16895"
       is_visible="true"
       lpeversion="1"
       steps="1"
       threshold="0.0142857"
       smooth_angles="360"
       helper_size="0"
       simplify_individual_paths="false"
       simplify_just_coalesce="false" /><inkscape:path-effect
       effect="spiro"
       id="path-effect16891"
       is_visible="true"
       lpeversion="1" /><inkscape:path-effect
       effect="simplify"
       id="path-effect16889"
       is_visible="true"
       lpeversion="1"
       steps="1"
       threshold="0.0142857"
       smooth_angles="360"
       helper_size="0"
       simplify_individual_paths="false"
       simplify_just_coalesce="false" /><inkscape:path-effect
       effect="spiro"
       id="path-effect16885"
       is_visible="true"
       lpeversion="1" /><inkscape:path-effect
       effect="simplify"
       id="path-effect16883"
       is_visible="true"
       lpeversion="1"
       steps="1"
       threshold="0.0142857"
       smooth_angles="360"
       helper_size="0"
       simplify_individual_paths="false"
       simplify_just_coalesce="false" /><inkscape:path-effect
       effect="spiro"
       id="path-effect16879"
       is_visible="true"
       lpeversion="1" /><inkscape:path-effect
       effect="simplify"
       id="path-effect16877"
       is_visible="true"
       lpeversion="1"
       steps="1"
       threshold="0.0142857"
       smooth_angles="360"
       helper_size="0"
       simplify_individual_paths="false"
       simplify_just_coalesce="false" /><inkscape:path-effect
       effect="spiro"
       id="path-effect16147"
       is_visible="true"
       lpeversion="1" /><inkscape:path-effect
       effect="simplify"
       id="path-effect16145"
       is_visible="true"
       lpeversion="1"
       steps="1"
       threshold="0.0142857"
       smooth_angles="360"
       helper_size="0"
       simplify_individual_paths="false"
       simplify_just_coalesce="false" /><inkscape:path-effect
       effect="spiro"
       id="path-effect16135"
       is_visible="true"
       lpeversion="1" /><inkscape:path-effect
       effect="simplify"
       id="path-effect16133"
       is_visible="true"
       lpeversion="1"
       steps="1"
       threshold="0.00645161"
       smooth_angles="360"
       helper_size="0"
       simplify_individual_paths="false"
       simplify_just_coalesce="false" /><inkscape:path-effect
       effect="spiro"
       id="path-effect16129"
       is_visible="true"
       lpeversion="1" /><inkscape:path-effect
       effect="simplify"
       id="path-effect16127"
       is_visible="true"
       lpeversion="1"
       steps="1"
       threshold="0.00645161"
       smooth_angles="360"
       helper_size="0"
       simplify_individual_paths="false"
       simplify_just_coalesce="false" /><inkscape:path-effect
       effect="spiro"
       id="path-effect16117"
       is_visible="true"
       lpeversion="1" /><inkscape:path-effect
       effect="simplify"
       id="path-effect16115"
       is_visible="true"
       lpeversion="1"
       steps="1"
       threshold="0.021875"
       smooth_angles="360"
       helper_size="0"
       simplify_individual_paths="false"
       simplify_just_coalesce="false" /><inkscape:path-effect
       effect="spiro"
       id="path-effect16111"
       is_visible="true"
       lpeversion="1" /><inkscape:path-effect
       effect="simplify"
       id="path-effect16109"
       is_visible="true"
       lpeversion="1"
       steps="1"
       threshold="0.021875"
       smooth_angles="360"
       helper_size="0"
       simplify_individual_paths="false"
       simplify_just_coalesce="false" /><inkscape:path-effect
       effect="spiro"
       id="path-effect16105"
       is_visible="true"
       lpeversion="1" /><inkscape:path-effect
       effect="simplify"
       id="path-effect16103"
       is_visible="true"
       lpeversion="1"
       steps="1"
       threshold="0.021875"
       smooth_angles="360"
       helper_size="0"
       simplify_individual_paths="false"
       simplify_just_coalesce="false" /><inkscape:path-effect
       effect="spiro"
       id="path-effect16036"
       is_visible="true"
       lpeversion="1" /><inkscape:path-effect
       effect="simplify"
       id="path-effect16034"
       is_visible="true"
       lpeversion="1"
       steps="1"
       threshold="0.021875"
       smooth_angles="360"
       helper_size="0"
       simplify_individual_paths="false"
       simplify_just_coalesce="false" /><inkscape:path-effect
       effect="spiro"
       id="path-effect10040"
       is_visible="true"
       lpeversion="1" /><inkscape:path-effect
       effect="simplify"
       id="path-effect10036"
       is_visible="true"
       lpeversion="1"
       steps="1"
       threshold="0.0142857"
       smooth_angles="360"
       helper_size="0"
       simplify_individual_paths="false"
       simplify_just_coalesce="false" /><inkscape:path-effect
       effect="spiro"
       id="path-effect10032"
       is_visible="true"
       lpeversion="1" /><inkscape:path-effect
       effect="simplify"
       id="path-effect10028"
       is_visible="true"
       lpeversion="1"
       steps="1"
       threshold="0.0142857"
       smooth_angles="360"
       helper_size="0"
       simplify_individual_paths="false"
       simplify_just_coalesce="false" /><inkscape:path-effect
       effect="spiro"
       id="path-effect10024"
       is_visible="true"
       lpeversion="1" /><inkscape:path-effect
       effect="simplify"
       id="path-effect10020"
       is_visible="true"
       lpeversion="1"
       steps="1"
       threshold="0.0142857"
       smooth_angles="360"
       helper_size="0"
       simplify_individual_paths="false"
       simplify_just_coalesce="false" /><inkscape:path-effect
       effect="spiro"
       id="path-effect10016"
       is_visible="true"
       lpeversion="1" /><inkscape:path-effect
       effect="simplify"
       id="path-effect10012"
       is_visible="true"
       lpeversion="1"
       steps="1"
       threshold="0.0142857"
       smooth_angles="360"
       helper_size="0"
       simplify_individual_paths="false"
       simplify_just_coalesce="false" /><inkscape:path-effect
       effect="spiro"
       id="path-effect10008"
       is_visible="true"
       lpeversion="1" /><inkscape:path-effect
       effect="simplify"
       id="path-effect10004"
       is_visible="true"
       lpeversion="1"
       steps="1"
       threshold="0.0142857"
       smooth_angles="360"
       helper_size="0"
       simplify_individual_paths="false"
       simplify_just_coalesce="false" /><inkscape:path-effect
       effect="spiro"
       id="path-effect10000"
       is_visible="true"
       lpeversion="1" /><inkscape:path-effect
       effect="simplify"
       id="path-effect9996"
       is_visible="true"
       lpeversion="1"
       steps="1"
       threshold="0.0142857"
       smooth_angles="360"
       helper_size="0"
       simplify_individual_paths="false"
       simplify_just_coalesce="false" /><inkscape:path-effect
       effect="spiro"
       id="path-effect9992"
       is_visible="true"
       lpeversion="1" /><inkscape:path-effect
       effect="simplify"
       id="path-effect9988"
       is_visible="true"
       lpeversion="1"
       steps="1"
       threshold="0.0142857"
       smooth_angles="360"
       helper_size="0"
       simplify_individual_paths="false"
       simplify_just_coalesce="false" /><inkscape:path-effect
       effect="spiro"
       id="path-effect9984"
       is_visible="true"
       lpeversion="1" /><inkscape:path-effect
       effect="simplify"
       id="path-effect9980"
       is_visible="true"
       lpeversion="1"
       steps="1"
       threshold="0.0142857"
       smooth_angles="360"
       helper_size="0"
       simplify_individual_paths="false"
       simplify_just_coalesce="false" /><inkscape:path-effect
       effect="spiro"
       id="path-effect9976"
       is_visible="true"
       lpeversion="1" /><inkscape:path-effect
       effect="simplify"
       id="path-effect9972"
       is_visible="true"
       lpeversion="1"
       steps="1"
       threshold="0.0142857"
       smooth_angles="360"
       helper_size="0"
       simplify_individual_paths="false"
       simplify_just_coalesce="false" /><inkscape:path-effect
       effect="spiro"
       id="path-effect9968"
       is_visible="true"
       lpeversion="1" /><inkscape:path-effect
       effect="simplify"
       id="path-effect9964"
       is_visible="true"
       lpeversion="1"
       steps="1"
       threshold="0.0142857"
       smooth_angles="360"
       helper_size="0"
       simplify_individual_paths="false"
       simplify_just_coalesce="false" /><inkscape:path-effect
       effect="spiro"
       id="path-effect9960"
       is_visible="true"
       lpeversion="1" /><inkscape:path-effect
       effect="simplify"
       id="path-effect9956"
       is_visible="true"
       lpeversion="1"
       steps="1"
       threshold="0.0142857"
       smooth_angles="360"
       helper_size="0"
       simplify_individual_paths="false"
       simplify_just_coalesce="false" /><inkscape:path-effect
       effect="spiro"
       id="path-effect9952"
       is_visible="true"
       lpeversion="1" /><inkscape:path-effect
       effect="simplify"
       id="path-effect9948"
       is_visible="true"
       lpeversion="1"
       steps="1"
       threshold="0.0142857"
       smooth_angles="360"
       helper_size="0"
       simplify_individual_paths="false"
       simplify_just_coalesce="false" /><inkscape:path-effect
       effect="spiro"
       id="path-effect9944"
       is_visible="true"
       lpeversion="1" /><inkscape:path-effect
       effect="simplify"
       id="path-effect9940"
       is_visible="true"
       lpeversion="1"
       steps="1"
       threshold="0.0142857"
       smooth_angles="360"
       helper_size="0"
       simplify_individual_paths="false"
       simplify_just_coalesce="false" /><inkscape:path-effect
       effect="spiro"
       id="path-effect9847"
       is_visible="true"
       lpeversion="1" /><inkscape:path-effect
       effect="simplify"
       id="path-effect9845"
       is_visible="true"
       lpeversion="1"
       steps="1"
       threshold="0.0142857"
       smooth_angles="360"
       helper_size="0"
       simplify_individual_paths="false"
       simplify_just_coalesce="false" /><inkscape:path-effect
       effect="spiro"
       id="path-effect9801"
       is_visible="true"
       lpeversion="1" /><inkscape:path-effect
       effect="simplify"
       id="path-effect9799"
       is_visible="true"
       lpeversion="1"
       steps="1"
       threshold="0.0142857"
       smooth_angles="360"
       helper_size="0"
       simplify_individual_paths="false"
       simplify_just_coalesce="false" /><inkscape:path-effect
       effect="spiro"
       id="path-effect9692"
       is_visible="true"
       lpeversion="1" /><inkscape:path-effect
       effect="simplify"
       id="path-effect9690"
       is_visible="true"
       lpeversion="1"
       steps="1"
       threshold="0.0142857"
       smooth_angles="360"
       helper_size="0"
       simplify_individual_paths="false"
       simplify_just_coalesce="false" /><inkscape:path-effect
       effect="spiro"
       id="path-effect9672"
       is_visible="true"
       lpeversion="1" /><inkscape:path-effect
       effect="simplify"
       id="path-effect9670"
       is_visible="true"
       lpeversion="1"
       steps="1"
       threshold="0.0142857"
       smooth_angles="360"
       helper_size="0"
       simplify_individual_paths="false"
       simplify_just_coalesce="false" /><inkscape:path-effect
       effect="spiro"
       id="path-effect9652"
       is_visible="true"
       lpeversion="1" /><inkscape:path-effect
       effect="simplify"
       id="path-effect9650"
       is_visible="true"
       lpeversion="1"
       steps="1"
       threshold="0.0142857"
       smooth_angles="360"
       helper_size="0"
       simplify_individual_paths="false"
       simplify_just_coalesce="false" /><inkscape:path-effect
       effect="spiro"
       id="path-effect9632"
       is_visible="true"
       lpeversion="1" /><inkscape:path-effect
       effect="simplify"
       id="path-effect9630"
       is_visible="true"
       lpeversion="1"
       steps="1"
       threshold="0.0142857"
       smooth_angles="360"
       helper_size="0"
       simplify_individual_paths="false"
       simplify_just_coalesce="false" /><inkscape:path-effect
       effect="spiro"
       id="path-effect9612"
       is_visible="true"
       lpeversion="1" /><inkscape:path-effect
       effect="simplify"
       id="path-effect9610"
       is_visible="true"
       lpeversion="1"
       steps="1"
       threshold="0.0142857"
       smooth_angles="360"
       helper_size="0"
       simplify_individual_paths="false"
       simplify_just_coalesce="false" /><inkscape:path-effect
       effect="spiro"
       id="path-effect9592"
       is_visible="true"
       lpeversion="1" /><inkscape:path-effect
       effect="simplify"
       id="path-effect9590"
       is_visible="true"
       lpeversion="1"
       steps="1"
       threshold="0.0142857"
       smooth_angles="360"
       helper_size="0"
       simplify_individual_paths="false"
       simplify_just_coalesce="false" /><inkscape:path-effect
       effect="spiro"
       id="path-effect9468"
       is_visible="true"
       lpeversion="1" /><inkscape:path-effect
       effect="simplify"
       id="path-effect9466"
       is_visible="true"
       lpeversion="1"
       steps="1"
       threshold="0.0142857"
       smooth_angles="360"
       helper_size="0"
       simplify_individual_paths="false"
       simplify_just_coalesce="false" /><inkscape:path-effect
       effect="spiro"
       id="path-effect9428"
       is_visible="true"
       lpeversion="1" /><inkscape:path-effect
       effect="simplify"
       id="path-effect9426"
       is_visible="true"
       lpeversion="1"
       steps="1"
       threshold="0.0142857"
       smooth_angles="360"
       helper_size="0"
       simplify_individual_paths="false"
       simplify_just_coalesce="false" /><inkscape:path-effect
       effect="spiro"
       id="path-effect9408"
       is_visible="true"
       lpeversion="1" /><inkscape:path-effect
       effect="simplify"
       id="path-effect9406"
       is_visible="true"
       lpeversion="1"
       steps="1"
       threshold="0.0142857"
       smooth_angles="360"
       helper_size="0"
       simplify_individual_paths="false"
       simplify_just_coalesce="false" /><inkscape:path-effect
       effect="spiro"
       id="path-effect9380"
       is_visible="true"
       lpeversion="1" /><inkscape:path-effect
       effect="simplify"
       id="path-effect9378"
       is_visible="true"
       lpeversion="1"
       steps="1"
       threshold="0.0142857"
       smooth_angles="360"
       helper_size="0"
       simplify_individual_paths="false"
       simplify_just_coalesce="false" /><inkscape:path-effect
       effect="spiro"
       id="path-effect9360"
       is_visible="true"
       lpeversion="1" /><inkscape:path-effect
       effect="simplify"
       id="path-effect9358"
       is_visible="true"
       lpeversion="1"
       steps="1"
       threshold="0.0142857"
       smooth_angles="360"
       helper_size="0"
       simplify_individual_paths="false"
       simplify_just_coalesce="false" /><inkscape:path-effect
       effect="spiro"
       id="path-effect9340"
       is_visible="true"
       lpeversion="1" /><inkscape:path-effect
       effect="simplify"
       id="path-effect9338"
       is_visible="true"
       lpeversion="1"
       steps="1"
       threshold="0.0142857"
       smooth_angles="360"
       helper_size="0"
       simplify_individual_paths="false"
       simplify_just_coalesce="false" /><linearGradient
       id="linearGradient5558"
       inkscape:swatch="solid"><stop
         style="stop-color:#8e8e8e;stop-opacity:1;"
         offset="0"
         id="stop5556" /></linearGradient><filter
       style="color-interpolation-filters:sRGB"
       id="filter10044"
       inkscape:label="Filter0"><feBlend
         mode="normal"
         id="feBlend10046"
         in2="SourceGraphic" /></filter><filter
       style="color-interpolation-filters:sRGB"
       inkscape:label="Drop Shadow"
       id="filter11916"
       x="-0.22758766"
       y="-0.5323953"
       width="1.4551753"
       height="2.0648015"><feFlood
         flood-opacity="1"
         flood-color="rgb(255,255,255)"
         result="flood"
         id="feFlood11906" /><feComposite
         in="flood"
         in2="SourceGraphic"
         operator="in"
         result="composite1"
         id="feComposite11908" /><feGaussianBlur
         in="composite1"
         stdDeviation="3"
         result="blur"
         id="feGaussianBlur11910" /><feOffset
         dx="0"
         dy="0"
         result="offset"
         id="feOffset11912" /><feComposite
         in="SourceGraphic"
         in2="offset"
         operator="over"
         result="fbSourceGraphic"
         id="feComposite11914" /><feColorMatrix
         result="fbSourceGraphicAlpha"
         in="fbSourceGraphic"
         values="0 0 0 -1 0 0 0 0 -1 0 0 0 0 -1 0 0 0 0 1 0"
         id="feColorMatrix11918" /><feFlood
         id="feFlood11920"
         flood-opacity="1"
         flood-color="rgb(255,255,255)"
         result="flood"
         in="fbSourceGraphic" /><feComposite
         in2="fbSourceGraphic"
         id="feComposite11922"
         in="flood"
         operator="in"
         result="composite1" /><feGaussianBlur
         id="feGaussianBlur11924"
         in="composite1"
         stdDeviation="3"
         result="blur" /><feOffset
         id="feOffset11926"
         dx="0"
         dy="0"
         result="offset" /><feComposite
         in2="offset"
         id="feComposite11928"
         in="fbSourceGraphic"
         operator="over"
         result="fbSourceGraphic" /><feColorMatrix
         result="fbSourceGraphicAlpha"
         in="fbSourceGraphic"
         values="0 0 0 -1 0 0 0 0 -1 0 0 0 0 -1 0 0 0 0 1 0"
         id="feColorMatrix11930" /><feFlood
         id="feFlood11932"
         flood-opacity="1"
         flood-color="rgb(255,255,255)"
         result="flood"
         in="fbSourceGraphic" /><feComposite
         in2="fbSourceGraphic"
         id="feComposite11934"
         in="flood"
         operator="in"
         result="composite1" /><feGaussianBlur
         id="feGaussianBlur11936"
         in="composite1"
         stdDeviation="3"
         result="blur" /><feOffset
         id="feOffset11938"
         dx="0"
         dy="0"
         result="offset" /><feComposite
         in2="offset"
         id="feComposite11940"
         in="fbSourceGraphic"
         operator="over"
         result="composite2" /></filter><filter
       inkscape:menu-tooltip="Adds a turbulent transparency which displaces pixels at the same time"
       inkscape:menu="Overlays"
       inkscape:label="Rough Transparency"
       style="color-interpolation-filters:sRGB"
       id="filter14934"
       x="-0.049791673"
       y="-0.099441739"
       width="1.0995834"
       height="1.1988835"><feTurbulence
         result="result3"
         baseFrequency="0.3"
         type="fractalNoise"
         seed="0"
         numOctaves="3"
         id="feTurbulence14914" /><feGaussianBlur
         stdDeviation="1.5"
         result="result91"
         id="feGaussianBlur14916" /><feDisplacementMap
         result="fbSourceGraphic"
         in="SourceGraphic"
         xChannelSelector="R"
         yChannelSelector="G"
         scale="30"
         in2="result91"
         id="feDisplacementMap14918" /><feColorMatrix
         type="luminanceToAlpha"
         in="fbSourceGraphic"
         result="result0"
         id="feColorMatrix14920" /><feColorMatrix
         result="result2"
         values="1 0 0 0 0 0 1 0 0 0 0 0 1 0 0 0 0 0 1 0 "
         id="feColorMatrix14922" /><feComposite
         in2="result2"
         operator="over"
         in="result3"
         result="result4"
         id="feComposite14924" /><feGaussianBlur
         stdDeviation="2"
         result="result5"
         id="feGaussianBlur14926" /><feDisplacementMap
         scale="100"
         xChannelSelector="R"
         in="result5"
         in2="result3"
         yChannelSelector="G"
         id="feDisplacementMap14928" /><feColorMatrix
         values="1 0 0 0 0 0 1 0 0 0 0 0 1 0 0 0 0 0 6.5 -4.5 "
         result="result92"
         id="feColorMatrix14930" /><feComposite
         in="fbSourceGraphic"
         operator="out"
         in2="result92"
         id="feComposite14932" /></filter></defs><sodipodi:namedview
     id="base"
     pagecolor="#ffffff"
     bordercolor="#666666"
     borderopacity="1.0"
     inkscape:pageopacity="0.0"
     inkscape:pageshadow="2"
     inkscape:zoom="2.8886417"
     inkscape:cx="116.31765"
     inkscape:cy="64.390125"
     inkscape:document-units="px"
     inkscape:current-layer="layer1"
     showgrid="false"
     inkscape:window-width="1366"
     inkscape:window-height="745"
     inkscape:window-x="-8"
     inkscape:window-y="-8"
     inkscape:window-maximized="1"
     fit-margin-top="0"
     fit-margin-left="0"
     fit-margin-right="0"
     fit-margin-bottom="0"
     inkscape:showpageshadow="false"
     inkscape:pagecheckerboard="0"
     inkscape:deskcolor="#d1d1d1" /><metadata
     id="metadata3797"><rdf:RDF><cc:Work
         rdf:about=""><dc:format>image/svg+xml</dc:format><dc:type
           rdf:resource="http://purl.org/dc/dcmitype/StillImage" /><cc:license
           rdf:resource="http://creativecommons.org/licenses/publicdomain/" /><dc:title>Lettre</dc:title><dc:date>2011-01-11</dc:date><dc:creator><cc:Agent><dc:title>lmproulx</dc:title></cc:Agent></dc:creator></cc:Work><cc:License
         rdf:about="http://creativecommons.org/licenses/publicdomain/"><cc:permits
           rdf:resource="http://creativecommons.org/ns#Reproduction" /><cc:permits
           rdf:resource="http://creativecommons.org/ns#Distribution" /><cc:permits
           rdf:resource="http://creativecommons.org/ns#DerivativeWorks" /></cc:License></rdf:RDF></metadata><g
     inkscape:label="Calque 1"
     inkscape:groupmode="layer"
     id="layer1"
     transform="translate(-275.51325,-302.21531)"><path
       style="display:inline;fill:#f1efdf;fill-opacity:1;fill-rule:nonzero;stroke:#000000;stroke-width:2.021;stroke-linecap:round;stroke-linejoin:round;stroke-miterlimit:4;stroke-dasharray:none;stroke-dashoffset:3.003;stroke-opacity:1;filter:url(#filter14934)"
       d="m 284.92375,311.62581 2.96855,94.6333 184.04982,-0.87623 1.97903,-93.75707 z"
       id="path3800"
       inkscape:connector-curvature="0"
       sodipodi:nodetypes="ccccc" /><path
       id="path7647"
       d="m 174,36.288 -33.106,0.26367 -33.106,0.26172 -0.625,7.5 c -2.7451,32.939 -31.559,62.331 -66.195,67.525 l -4.6797,0.70312 v 47.271 47.27 l 5.3047,0.66406 c 87.639,10.95 86.353,135.92 -1.5547,151.01 l -3.75,0.64453 v 40.26 40.26 l 7.25,1.2246 c 45.236,-7.192 64.357,48.584 64.264,74.426 h -0.014 l -0.625,7.5 c -2.7451,32.939 -31.559,62.331 -66.195,67.525 l -4.6797,0.70312 v 47.271 47.27 l 5.3047,0.66406 c 87.639,10.95 86.353,135.92 -1.5547,151.01 l -3.75,0.64453 v 40.26 40.26 l 7.25,1.2246 c 82.909,14.002 84.897,130.78999 2.543,149.35999 l -9.793,2.2071 v 36.299 36.299 h 2.3399 c 9.6788,0 29.834,8.5935 40.642,17.328 50.564,40.863 29.681,120.38 -35.023,133.36 l -7.959,1.5957 v 36.162 36.164 l 7.25,1.2246 c 83.777,14.148 84.48,133.05 0.8848,149.82 l -8.1348,1.6309 v 36.154 36.154 l 7.125,1.2226 c 84.85,14.55 84.231,135.48 -0.7695,150.28 l -6.3555,1.1074 v 36.396 36.396 h 2.3106 c 14.445,0 39.573,13.657 51.363,27.916 37.423,45.258 11.533,112.93 -47.107,123.15 l -6.5664,1.1445 v 40.172 40.172 l 8.75,1.791 c 64.937,13.295 84.777,94.403 32.811,134.14 -10.728,8.2025 -30.73,16.522 -39.721,16.522 -1.7487,0 -1.8399,1.6026 -1.8399,32.275 v 32.275 l 8.3516,1.7187 c 73.667,15.164 86.001,111.24 18.393,143.27 -6.8649,3.2523 -20.917,7.4629 -24.904,7.4629 -1.7563,0 -1.8399,1.8372 -1.8399,40.387 v 40.387 l 4.6797,0.7032 c 87.501,13.122 87.501,137.93 0,151.05 l -4.6797,0.7031 v 32.137 32.135 l 10.25,0.1777 c 41.71,0.7219 77.649,34.737 77.734,73.572 l 0.016,6.75 h 33.031 c 25.576,0 33.108,-0.2821 33.373,-1.25 0.1881,-0.6875 0.8826,-4.175 1.543,-7.75 14.816,-80.196 140.34,-79.772 155.91,0.5274 l 1.6426,8.4667 h 37.205 37.203 l 0.6446,-3.75 c 9.1378,-53.208 65.77,-81.661 114.95,-57.75 23.808,11.576 36.816,29.364 42.963,58.75 l 0.5742,2.75 h 32.936 32.936 l 0.5957,-3.75 c 13.59,-85.611 141.56,-87.912 157.7,-2.8359 l 1.2481,6.5859 h 37.17 37.17 l 1.1485,-6.6015 c 14.518,-83.37 147.04,-82.65 156.65,0.8515 l 0.6621,5.75 h 41.768 41.77 l 1.1719,-6.75 c 14.481,-83.357 144.77,-82.633 156.79,0.8711 l 0.7735,5.3789 37.514,0.2618 37.512,0.2617 1.0761,-6.8281 c 8.3364,-52.942 76.344,-80.993 122.17,-50.393 19.714,13.163 35.197,37.11 35.197,54.438 v 2.7812 l 41.693,-0.2597 41.695,-0.2618 1.3672,-7.5 c 9.4559,-51.829 73.815,-78.703 120.53,-50.328 19.182,11.652 36.719,38.186 36.719,55.559 v 2.7695 h 37.455 37.455 l 0.6152,-3.75 c 14.565,-88.653 141.13,-87.852 157.99,1 l 0.5215,2.75 h 41.438 41.433 l 0.617,-3.75 c 14.652,-89.183 140.61,-87.988 158.08,1.5 l 0.437,2.25 h 41.463 41.463 l 0.519,-2.75 c 7.753,-40.865 38.755,-67.25 79.018,-67.25 40.3,0 71.257,26.347 79.016,67.25 l 0.521,2.75 h 41.463 41.463 l 0.519,-2.75 c 16.866,-88.901 143.42,-89.702 157.99,-1 l 0.615,3.75 h 37.205 37.205 l 1.643,-8.4667 c 15.548,-80.17 141.31,-80.595 155.92,-0.5274 0.652,3.575 1.342,7.0625 1.53,7.75 0.265,0.9678 7.788,1.25 33.328,1.25 h 32.984 l 0.617,-3.75 c 14.221,-86.557 140.47,-88.16 157.48,-2 l 1.137,5.75 h 36.785 36.785 l 0.683,-8.25 c 3.006,-36.224 27.719,-62.938 65.854,-71.191 l 2.75,-0.5957 v -32.463 -32.461 l -2.75,-0.5957 c -40.097,-8.6786 -65.588,-38 -65.588,-75.443 0,-37.472 25.461,-66.756 65.588,-75.441 l 2.75,-0.5957 v -40.512 c 0,-31.573 -0.276,-40.583 -1.25,-40.832 -0.688,-0.1758 -4.4,-1.0713 -8.25,-1.9882 -77.675,-18.498 -77.295,-130.95 0.5,-147.62 3.025,-0.6483 6.287,-1.3962 7.25,-1.6602 2.265,-0.6214 2.756,-65.15 0.5,-65.727 -0.688,-0.1758 -4.4,-1.0713 -8.25,-1.9882 -81.91,-19.507 -76.863,-130.98 6.75,-149.07 l 2.75,-0.5957 v -40.512 c 0,-31.547 -0.277,-40.595 -1.25,-40.881 -0.688,-0.202 -4.4,-1.082 -8.25,-1.957 -72.239,-16.419 -79.512,-116.12 -10.5,-143.92 5.883,-2.3703 8.377,-3.1091 17.25,-5.1075 l 2.75,-0.6191 v -36.512 c 0,-28.347 -0.28,-36.596 -1.25,-36.881 -0.688,-0.202 -4.4,-1.0941 -8.25,-1.9824 -79.578,-18.36 -76.705,-132.17 3.75,-148.56 l 5.75,-1.1719 v -36.461 c 0,-28.306 -0.28,-36.543 -1.25,-36.828 -0.688,-0.202 -4.374,-1.0912 -8.193,-1.9765 -78.1,-18.104 -76.567,-134.98 1.943,-148.1 8.343,-1.3938 7.556,2.7516 7.262,-38.213 l -0.262,-36.578 -7.693,-1.8165 c -80.998,-19.11 -79.135,-132.04 2.455,-148.85 l 5.761,-1.1875 -0.261,-36.576 -0.262,-36.574 -7.693,-1.8165 c -81.007,-19.112 -79.153,-132.03999 2.443,-148.83999 l 5.75,-1.1836 v -40.701 -40.701 l -6.504,-1.2344 c -81.999,-15.555 -81.409,-132.26 0.754,-149.18 l 5.75,-1.1836 -0.01,-47.18 -0.01,-47.18 -8.736,-0.2168 h -0.01 c -26.403,-3.845 -58.203,-40.859 -59.181,-71.309 0.481,-32.768 21.342,-70.28 62.197,-78.693 l 5.75,-1.1836 v -40.701 -40.701 l -6.504,-1.2344 c -81.999,-15.555 -81.409,-132.26 0.754,-149.18 l 5.75,-1.1836 -0.01,-47.18 -0.01,-47.18 -8.736,-0.2168 h -0.01 c -39.588,-0.9945 -76.234,-35.338 -76.234,-71.443 v -4.8398 h -41.5 -41.5 v 3.543 c 0,92.315 -150.89,95.886 -158.68,3.7559 l -0.615,-7.2988 h -32.674 -32.674 l -1.175,8.832 c -11.773,88.423 -143.65,89.722 -158,1.5566 l -1.689,-10.385 h -36.75 -36.75 v 3.543 c 0,92.358 -150.89,95.929 -158.68,3.7559 l -0.615,-7.2988 h -41.353 -41.354 v 3.543 c 0,32.139 -28.277,63.994 -63.5,71.533 -45.882,9.8209 -95.5,-27.203 -95.5,-71.26 v -3.8164 h -41.363 -41.362 l -0.683,6.75 c -9.235,91.163 -150.57,91.653 -158.27,0.54883 l -0.615,-7.2988 h -41.207 -41.207 l -0.625,7.3848 c -7.6273,90.231 -150.71,90.223 -158.34,-0.01 l -0.6231,-7.375 h -36.728 -36.728 l -0.625,3.125 c -0.3437,1.7188 -0.625,4.3355 -0.625,5.8164 0,15.126 -14.074,39.423 -29.463,50.863 -49.549,36.836 -120.77,8.7422 -128.69,-50.766 l -1.2051,-9.0391 h -40.703 -40.703 l -0.6015,2.25 c -0.3317,1.2375 -0.6097,3.7958 -0.6172,5.6856 -0.064,16.181 -13.528,39.8 -29.508,51.768 -50.063,37.492 -122.91,7.6125 -129.09,-52.953 l -0.6894,-6.75 h -36.682 -36.682 l -1.1758,8.8301 c -11.916,89.495 -150.57,88.547 -157.85,-1.0801 l -0.6289,-7.75 h -41.213 -41.215 l -0.6484,6.3301 c -9.4334,92.073 -158.63,90.764 -158.63,-1.3945 v -4.9394 h -37.5 -37.5 v 5.3398 c 0,91.384 -150.07,92.718 -158.65,1.4102 l -0.6348,-6.75 h -32.711 -32.709 l -0.6172,7.25 c -7.7664,91.281 -158.68,88.716 -158.68,-2.6973 v -4.5527 h -32.791 -32.789 l -1.6328,10.299 c -14.023,88.403 -151.44,86.17 -157.54,-2.5606 z"
       filter="url(#filter7649)"
       transform="matrix(0,0.00912311,-0.01074416,0,463.76545,317.08463)" /><path
       id="path4687"
       d="m 463.30807,318.61846 -0.003,-0.30204 -0.003,-0.30202 -0.0806,-0.006 c -0.35391,-0.0251 -0.6697,-0.28791 -0.72551,-0.6039 l -0.008,-0.0427 h -0.50788 -0.50787 l -0.008,0.0485 c -0.11765,0.79954 -1.46035,0.78781 -1.62247,-0.0141 l -0.008,-0.0343 h -0.43256 -0.43255 l -0.0133,0.0661 c 0.0773,0.4127 -0.52199,0.58714 -0.79965,0.58629 v -1.3e-4 l -0.0806,-0.006 c -0.35389,-0.0251 -0.66969,-0.28792 -0.72549,-0.6039 l -0.008,-0.0427 h -0.50788 -0.50789 l -0.008,0.0484 c -0.11764,0.79955 -1.46034,0.78781 -1.62247,-0.0141 l -0.008,-0.0343 h -0.43255 -0.43257 l -0.0132,0.0661 c -0.15044,0.75638 -1.40523,0.77452 -1.60475,0.0232 l -0.0238,-0.0893 h -0.39001 -0.39 v 0.0213 c 0,0.0883 -0.0923,0.27218 -0.18617,0.37079 -0.43905,0.46129 -1.29339,0.27077 -1.43284,-0.31952 l -0.0171,-0.0726 h -0.38854 -0.38854 l -0.0132,0.0662 c -0.152,0.76431 -1.4295,0.77072 -1.60969,0.008 l -0.0175,-0.0742 H 446.95844 446.57 l -0.0132,0.065 c -0.15632,0.77409 -1.45562,0.76845 -1.61463,-0.007 l -0.0119,-0.058 h -0.39104 -0.39104 v 0.0211 c 0,0.13179 -0.14674,0.36103 -0.29994,0.4686 -0.48626,0.34141 -1.21335,0.10522 -1.32315,-0.42977 l -0.0123,-0.0599 h -0.43161 -0.43161 l -0.0193,0.0798 c -0.14283,0.59242 -1.01428,0.77343 -1.44121,0.29934 -0.0881,-0.0979 -0.17752,-0.28035 -0.17752,-0.36238 0,-0.0159 -0.0172,-0.0168 -0.34677,-0.0168 h -0.34677 l -0.0185,0.0762 c -0.16291,0.67208 -1.19518,0.7846 -1.53932,0.16781 -0.0349,-0.0627 -0.0802,-0.19083 -0.0802,-0.22721 0,-0.016 -0.0197,-0.0169 -0.43392,-0.0169 h -0.43393 l -0.008,0.0427 c -0.14099,0.79828 -1.48196,0.79828 -1.62292,0 l -0.008,-0.0427 h -0.34528 -0.34527 l -0.002,0.0935 c -0.008,0.38053 -0.37322,0.70841 -0.79047,0.70918 l -0.0725,1.3e-4 v 0.30135 c 0,0.23333 0.004,0.30205 0.0134,0.30446 0.008,0.002 0.0448,0.008 0.0833,0.0141 0.86165,0.13517 0.85709,1.28034 -0.006,1.42239 l -0.091,0.015 v 0.33942 0.33941 l 0.0403,0.006 c 0.57168,0.0834 0.87738,0.60002 0.62048,1.0487 -0.12437,0.21721 -0.31549,0.33588 -0.63122,0.39196 l -0.0295,0.005 v 0.30048 0.30048 l 0.0403,0.005 c 0.91982,0.12399 0.94454,1.29147 0.0305,1.43872 l -0.0707,0.0114 v 0.3391 0.33911 l 0.0709,0.0104 c 0.89574,0.13245 0.88801,1.34146 -0.009,1.42914 l -0.0617,0.006 v 0.38106 0.38106 l 0.0725,0.0107 c 0.8956,0.1321 0.88782,1.32074 -0.009,1.4304 l -0.0578,0.007 -0.003,0.34224 -0.003,0.34224 0.0734,0.01 c 0.56881,0.076 0.8702,0.6965 0.54143,1.11458 -0.14142,0.17985 -0.39872,0.3211 -0.5849,0.3211 h -0.0299 l 0.003,0.38038 0.003,0.38037 0.0806,0.0125 c 0.55686,0.0863 0.8456,0.67341 0.54074,1.0996 -0.1252,0.175 -0.41027,0.33499 -0.59694,0.33499 h -0.0298 v 0.34171 0.3417 l 0.0403,0.005 c 0.9525,0.13287 0.94388,1.28754 -0.0107,1.44135 l -0.0295,0.004 v 0.37805 0.37799 l 0.0403,0.005 c 0.9582,0.13367 0.94536,1.28281 -0.0161,1.44218 l -0.0242,0.003 v 0.37826 0.37827 l 0.0295,0.004 c 0.43907,0.0707 0.72255,0.35356 0.72255,0.72088 0,0.36767 -0.28307,0.65009 -0.72255,0.72087 l -0.0295,0.004 v 0.37827 0.37827 l 0.0295,0.004 c 0.95518,0.15387 0.96379,1.30843 0.0107,1.44135 l -0.0403,0.005 v 0.33942 0.33943 l 0.091,0.015 c 0.86136,0.14185 0.86592,1.28919 0.006,1.42248 -0.0383,0.006 -0.0758,0.0122 -0.0832,0.014 -0.0103,0.003 -0.0134,0.0711 -0.0134,0.30406 v 0.30091 l 0.0403,0.005 c 0.92998,0.12974 0.9472,1.28153 0.0215,1.43671 l -0.0617,0.0104 v 0.3356 0.33559 l 0.0886,0.006 c 0.3892,0.0274 0.67622,0.25287 0.7649,0.60079 l 0.007,0.0251 h 0.34859 0.34876 l 0.007,-0.0251 c 0.0933,-0.36581 0.40827,-0.59836 0.81056,-0.59836 0.40261,0 0.71724,0.23228 0.81055,0.59836 l 0.007,0.0251 h 0.43527 c 0.33922,0 0.43603,-0.003 0.4387,-0.0115 0.002,-0.006 0.0115,-0.0402 0.0214,-0.0753 0.19874,-0.70863 1.40694,-0.70516 1.58605,0.004 0.008,0.0276 0.015,0.0574 0.0178,0.0662 0.008,0.0207 0.69999,0.0252 0.70619,0.004 0.002,-0.006 0.0115,-0.0402 0.0214,-0.0753 0.20959,-0.74727 1.40727,-0.70122 1.60163,0.0616 l 0.007,0.0251 h 0.43526 c 0.33895,0 0.43616,-0.003 0.43924,-0.0115 0.002,-0.006 0.0115,-0.0402 0.0209,-0.0753 0.17641,-0.65904 1.24762,-0.72539 1.54631,-0.0958 0.0255,0.0537 0.0334,0.0764 0.0549,0.15738 l 0.007,0.0251 h 0.39229 c 0.30456,0 0.39319,-0.003 0.39626,-0.0115 0.002,-0.006 0.0117,-0.0402 0.0213,-0.0753 0.19726,-0.726 1.42007,-0.69979 1.59616,0.0342 l 0.0126,0.0524 h 0.39175 c 0.30412,0 0.39262,-0.003 0.39568,-0.0115 0.002,-0.006 0.0117,-0.0399 0.0212,-0.0748 0.19451,-0.71251 1.45024,-0.69853 1.59121,0.0177 0.015,0.0761 -0.0295,0.0689 0.41056,0.0662 l 0.393,-0.003 0.0195,-0.0702 c 0.20532,-0.73895 1.41866,-0.72195 1.59927,0.0224 l 0.0128,0.0525 0.39298,-0.003 0.39296,-0.003 0.0195,-0.0702 c 0.20535,-0.73903 1.41867,-0.72211 1.59917,0.0223 l 0.0127,0.0524 h 0.4373 0.43729 l 0.0132,-0.0593 c 0.16712,-0.74808 1.42102,-0.7427 1.60282,0.007 l 0.0127,0.0524 0.50691,-10e-5 0.50691,-9e-5 0.002,-0.0797 v -1e-4 c 0.0413,-0.24087 0.439,-0.53099 0.76616,-0.5399 0.35206,0.004 0.7551,0.1947 0.84549,0.56743 l 0.0128,0.0524 h 0.43729 0.43731 l 0.0132,-0.0593 c 0.16711,-0.74808 1.42102,-0.74269 1.60281,0.007 l 0.0127,0.0524 0.50691,-1e-4 0.50692,-9e-5 0.002,-0.0797 v -10e-5 c 0.0107,-0.36117 0.37968,-0.69549 0.7676,-0.69549 h 0.052 v -0.37861 -0.37861 h -0.0381 c -0.99184,0 -1.03021,-1.37658 -0.0403,-1.44765 l 0.0784,-0.005 v -0.29809 -0.29809 l -0.0949,-0.0108 c -0.95002,-0.1074 -0.96399,-1.31053 -0.0168,-1.44144 l 0.11158,-0.0154 v -0.33527 -0.33528 h -0.0382 c -0.99231,0 -1.03067,-1.37659 -0.0403,-1.44765 l 0.0785,-0.005 v -0.37727 -0.37727 h -0.0382 c -0.3453,0 -0.68756,-0.25799 -0.76857,-0.57933 -0.10551,-0.41858 0.29228,-0.87126 0.76564,-0.87126 h 0.041 v -0.37735 -0.37735 l -0.0725,-0.006 c -0.97947,-0.0843 -0.98473,-1.37367 -0.007,-1.44392 l 0.0785,-0.005 v -0.37594 -0.37593 l -0.0793,-0.006 c -0.96945,-0.0695 -0.96937,-1.37493 1.1e-4,-1.44455 l 0.0793,-0.006 v -0.33507 -0.33508 l -0.0336,-0.006 c -0.0185,-0.003 -0.0466,-0.006 -0.0625,-0.006 -0.16251,0 -0.42356,-0.12838 -0.54648,-0.26879 -0.39578,-0.45204 -0.0939,-1.1018 0.54544,-1.17405 l 0.0971,-0.011 v -0.37133 -0.37133 l -0.0241,-0.005 c -0.0133,-0.003 -0.0408,-0.005 -0.0612,-0.005 -0.17385,-4.5e-4 -0.42761,-0.12342 -0.55621,-0.26921 -0.40281,-0.45672 -0.0817,-1.12131 0.56894,-1.17769 l 0.0725,-0.006 v -0.33466 -0.33465 l -0.0949,-0.0108 c -0.96155,-0.10871 -0.95137,-1.37367 0.0116,-1.44007 l 0.0833,-0.006 v -0.37599 -0.37601 l -0.068,-0.006 c -0.98925,-0.0861 -0.97518,-1.4472 0.015,-1.4472 h 0.0531 v -0.34212 -0.34211 h -0.0574 c -0.98184,0 -0.99618,-1.36911 -0.0152,-1.44738 l 0.0725,-0.006 v -0.29842 -0.2984 l -0.0779,-0.005 c -0.98073,-0.0708 -0.95318,-1.44766 0.029,-1.44766 h 0.0489 v -0.29915 -0.29914 l -0.11065,-0.0149 c -0.94982,-0.12794 -0.92583,-1.38161 0.0274,-1.43726 z"
       fill="#f2f2f2"
       style="stroke-width:0.00990043" /><path
       style="display:inline;fill:#ffffff;fill-opacity:1;stroke:#000000;stroke-width:1.01058;stroke-linecap:round;stroke-linejoin:round;stroke-miterlimit:4;stroke-dasharray:none;stroke-dashoffset:3.003;stroke-opacity:1"
       d="m 435.92,320.11685 0.85682,24.79233 h 23.99081 v -25.4873 z"
       id="path3802"
       inkscape:connector-curvature="0"
       sodipodi:nodetypes="ccccc" /><g
       aria-label="nasa"
       transform="scale(1.0798173,0.92608259)"
       id="text6530"
       style="font-size:25.33px;font-family:Nishiki-teki-lili;-inkscape-font-specification:Nishiki-teki-lili;stroke:#000000;stroke-width:0.451265;stroke-linecap:round;stroke-linejoin:round;stop-color:#000000"><path
         d="m 415.82828,370.52529 q -3.90082,0 -6.35783,-1.95041 -2.45701,-1.95041 -3.67285,-6.0792 -0.48127,-1.69711 -0.48127,-3.2929 0,-2.07706 0.65858,-3.95148 0.68391,-1.89975 1.74777,-3.34356 1.06386,-1.46914 2.33036,-2.30503 1.29183,-0.86122 2.98894,-1.19051 1.72244,-0.35462 3.57153,-0.35462 1.82376,0 3.47021,0.32929 1.67178,0.32929 2.81163,1.13985 0.40528,0.35462 0.40528,0.78523 0,0.40528 -0.27863,0.68391 -0.27863,0.27863 -0.70924,0.27863 -0.27863,0 -0.55726,-0.17731 -1.79843,-1.08919 -4.99001,-1.08919 -1.67178,0 -3.21691,0.30396 -1.54513,0.30396 -2.43168,0.88655 -0.63325,0.40528 -1.31716,1.16518 -0.65858,0.7599 -1.24117,1.79843 -0.58259,1.03853 -0.96254,2.30503 -0.35462,1.2665 -0.35462,2.71031 0,2.33036 1.0132,4.5594 1.0132,2.20371 2.40635,3.34356 1.89975,1.5198 5.19265,1.5198 3.0396,0 5.3193,-2.0264 2.2797,-2.05173 2.2797,-4.8127 0,-1.82376 -0.7599,-3.5462 -0.7599,-1.72244 -2.15305,-2.83696 -1.39315,-1.11452 -3.26757,-1.11452 -2.12772,0 -3.24224,0.73457 -1.08919,0.70924 -1.49447,1.84909 -0.40528,1.11452 -0.40528,2.35569 0,1.89975 0.96254,3.36889 0.98787,1.46914 2.58366,1.46914 0.93721,0 1.54513,-0.2533 0.60792,-0.27863 0.86122,-0.55726 0.27863,-0.30396 0.43061,-0.81056 0.15198,-0.53193 0.15198,-1.36782 0,-0.40528 0.27863,-0.68391 0.27863,-0.27863 0.68391,-0.27863 0.40528,0 0.68391,0.27863 0.27863,0.27863 0.27863,0.68391 0,1.0132 -0.2533,1.92508 -0.22797,0.88655 -0.81056,1.54513 -1.5198,1.46914 -3.85016,1.46914 -1.62112,0 -2.86229,-0.93721 -1.21584,-0.96254 -1.92508,-2.48234 -0.68391,-1.54513 -0.68391,-3.34356 0,-1.69711 0.65858,-3.26757 0.65858,-1.59579 2.17838,-2.60899 1.54513,-1.0132 4.20478,-1.0132 2.533,0 4.35676,1.41848 1.82376,1.41848 2.7863,3.59686 0.98787,2.17838 0.98787,4.43275 0,2.48234 -1.34249,4.45808 -1.31716,1.97574 -3.49554,3.11559 -2.17838,1.16518 -4.71138,1.16518 z"
         style="font-family:'linja lipamanka';-inkscape-font-specification:'linja lipamanka'"
         id="path6615" /></g><path
       style="fill:none;fill-opacity:1;fill-rule:nonzero;stroke:#000000;stroke-width:4;stroke-linecap:round;stroke-linejoin:round;stroke-dasharray:none;stroke-opacity:1;stop-color:#000000"
       d="m 340.13746,341.13671 c -4.94426,-0.83593 -10.16155,0.0408 -14.56103,2.44683 -4.39947,2.40605 -7.95254,6.32581 -9.91632,10.9397 -2.44476,5.74396 -2.35421,12.51468 0.24327,18.19121"
       id="path16032" /><path
       style="fill:none;fill-opacity:1;fill-rule:nonzero;stroke:#000000;stroke-width:4;stroke-linecap:round;stroke-linejoin:round;stroke-dasharray:none;stroke-opacity:1;stop-color:#000000"
       d="m 336.95521,352.64178 c -2.03631,-0.32843 -4.19528,0.18343 -5.8674,1.39108 -1.67212,1.20765 -2.8368,3.09622 -3.16524,5.13253 -0.32843,2.0363 0.18344,4.19527 1.39109,5.8674 1.20765,1.67212 3.09621,2.8368 5.13252,3.16523 2.03631,0.32843 4.19528,-0.18343 5.8674,-1.39108 1.67212,-1.20765 2.8368,-3.09622 3.16524,-5.13253 0.32843,-2.0363 -0.18344,-4.19527 -1.39109,-5.8674 -1.20765,-1.67212 -3.09621,-2.8368 -5.13252,-3.16523 z"
       id="path16101" /><path
       style="fill:none;fill-opacity:1;fill-rule:nonzero;stroke:#000000;stroke-width:4;stroke-linecap:round;stroke-linejoin:round;stroke-dasharray:none;stroke-opacity:1;stop-color:#000000"
       d="m 335.48648,360.47501 1.22394,-0.97915"
       id="path16107" /><path
       style="fill:none;fill-opacity:1;fill-rule:nonzero;stroke:#000000;stroke-width:4;stroke-linecap:round;stroke-linejoin:round;stroke-dasharray:none;stroke-opacity:1;stop-color:#000000"
       d="m 361.43408,337.46488 h 62.6659"
       id="path16113" /><path
       style="fill:none;fill-opacity:1;fill-rule:nonzero;stroke:#000000;stroke-width:4;stroke-linecap:round;stroke-linejoin:round;stroke-dasharray:none;stroke-opacity:1;stop-color:#000000"
       d="m 416.02195,349.21474 h -41.1245"
       id="path16125" /><path
       style="fill:none;fill-opacity:1;fill-rule:nonzero;stroke:#000000;stroke-width:4;stroke-linecap:round;stroke-linejoin:round;stroke-dasharray:none;stroke-opacity:1;stop-color:#000000"
       d="m 374.942,375.65191 h 41.36928"
       id="path16131" /><path
       style="fill:none;fill-opacity:1;fill-rule:nonzero;stroke:#000000;stroke-width:4;stroke-linecap:round;stroke-linejoin:round;stroke-dasharray:none;stroke-opacity:1;stop-color:#000000"
       d="m 374.78136,375.6062 c -4.05892,-0.35508 -7.89419,-2.71262 -10.04374,-6.17389 -2.14954,-3.46127 -2.56241,-7.94422 -1.0812,-11.73987 0.87142,-2.23304 2.36569,-4.21927 4.26973,-5.67544 1.90404,-1.45618 4.21231,-2.37806 6.59563,-2.63419"
       id="path16143" /><path
       style="fill:none;fill-opacity:1;fill-rule:nonzero;stroke:#000000;stroke-width:4;stroke-linecap:round;stroke-linejoin:round;stroke-dasharray:none;stroke-opacity:1;stop-color:#000000"
       d="m 423.67977,349.12317 0.69237,-0.0865"
       id="path16875" /><path
       style="fill:none;fill-opacity:1;fill-rule:nonzero;stroke:#000000;stroke-width:4;stroke-linecap:round;stroke-linejoin:round;stroke-dasharray:none;stroke-opacity:1;stop-color:#000000"
       d="m 424.45869,375.86584 h 0.69236"
       id="path16881" /><path
       style="fill:none;fill-opacity:1;fill-rule:nonzero;stroke:#000000;stroke-width:4;stroke-linecap:round;stroke-linejoin:round;stroke-dasharray:none;stroke-opacity:1;stop-color:#000000"
       d="m 379.62793,354.6621 c -1.71813,0.18811 -3.36932,0.94402 -4.63445,2.12165 -1.26514,1.17762 -2.13726,2.77048 -2.44783,4.47075 -0.31057,1.70027 -0.0579,3.49859 0.70924,5.04743 0.76712,1.54884 2.04445,2.83967 3.58514,3.62303 1.3214,0.67187 2.82989,0.9709 4.30766,0.85393 1.47778,-0.11697 2.92044,-0.64959 4.11969,-1.52097 1.19925,-0.87139 2.15151,-2.07892 2.7193,-3.44827 0.56779,-1.36936 0.74941,-2.89643 0.51864,-4.36076 -0.31999,-2.03046 -1.44687,-3.9224 -3.07985,-5.17082 -1.63298,-1.24842 -3.75423,-1.83968 -5.79754,-1.61597 z"
       id="path16887" /><path
       style="fill:none;fill-opacity:1;fill-rule:nonzero;stroke:#000000;stroke-width:4;stroke-linecap:round;stroke-linejoin:round;stroke-dasharray:none;stroke-opacity:1;stop-color:#000000"
       d="m 380.06066,362.88396 0.51927,-0.51927"
       id="path16893" /></g></svg>
