<?xml version="1.0" encoding="UTF-8" standalone="no"?>
<!-- Created with Inkscape (http://www.inkscape.org/) -->

<svg
   width="191.01855"
   height="96.654457"
   id="svg3792"
   version="1.1"
   inkscape:version="1.2.2 (732a01da63, 2022-12-09)"
   sodipodi:docname="lipuloje.svg"
   xml:space="preserve"
   xmlns:inkscape="http://www.inkscape.org/namespaces/inkscape"
   xmlns:sodipodi="http://sodipodi.sourceforge.net/DTD/sodipodi-0.dtd"
   xmlns="http://www.w3.org/2000/svg"
   xmlns:svg="http://www.w3.org/2000/svg"
   xmlns:rdf="http://www.w3.org/1999/02/22-rdf-syntax-ns#"
   xmlns:cc="http://creativecommons.org/ns#"
   xmlns:dc="http://purl.org/dc/elements/1.1/"><title
     id="title4376">Lettre</title><defs
     id="defs3794"><inkscape:path-effect
       effect="spiro"
       id="path-effect24109"
       is_visible="true"
       lpeversion="1" /><inkscape:path-effect
       effect="simplify"
       id="path-effect24107"
       is_visible="true"
       lpeversion="1"
       steps="1"
       threshold="0.0142857"
       smooth_angles="360"
       helper_size="0"
       simplify_individual_paths="false"
       simplify_just_coalesce="false" /><inkscape:path-effect
       effect="spiro"
       id="path-effect24103"
       is_visible="true"
       lpeversion="1" /><inkscape:path-effect
       effect="simplify"
       id="path-effect24101"
       is_visible="true"
       lpeversion="1"
       steps="1"
       threshold="0.0142857"
       smooth_angles="360"
       helper_size="0"
       simplify_individual_paths="false"
       simplify_just_coalesce="false" /><inkscape:path-effect
       effect="spiro"
       id="path-effect24097"
       is_visible="true"
       lpeversion="1" /><inkscape:path-effect
       effect="simplify"
       id="path-effect24095"
       is_visible="true"
       lpeversion="1"
       steps="1"
       threshold="0.0142857"
       smooth_angles="360"
       helper_size="0"
       simplify_individual_paths="false"
       simplify_just_coalesce="false" /><inkscape:path-effect
       effect="spiro"
       id="path-effect23965"
       is_visible="true"
       lpeversion="1" /><inkscape:path-effect
       effect="simplify"
       id="path-effect23963"
       is_visible="true"
       lpeversion="1"
       steps="1"
       threshold="0.0142857"
       smooth_angles="360"
       helper_size="0"
       simplify_individual_paths="false"
       simplify_just_coalesce="false" /><filter
       id="filter7649"
       style="color-interpolation-filters:sRGB"
       height="1.026269"
       width="1.0220918"
       y="-0.013134523"
       x="-0.011045884"><feGaussianBlur
         id="feGaussianBlur7651"
         stdDeviation="15.120052" /></filter></defs><sodipodi:namedview
     id="base"
     pagecolor="#ffffff"
     bordercolor="#666666"
     borderopacity="1.0"
     inkscape:pageopacity="0.0"
     inkscape:pageshadow="2"
     inkscape:zoom="4"
     inkscape:cx="15"
     inkscape:cy="43.25"
     inkscape:document-units="px"
     inkscape:current-layer="layer1"
     showgrid="false"
     inkscape:window-width="1366"
     inkscape:window-height="745"
     inkscape:window-x="-8"
     inkscape:window-y="-8"
     inkscape:window-maximized="1"
     fit-margin-top="0"
     fit-margin-left="0"
     fit-margin-right="0"
     fit-margin-bottom="0"
     inkscape:showpageshadow="false"
     inkscape:pagecheckerboard="0"
     inkscape:deskcolor="#d1d1d1" /><metadata
     id="metadata3797"><rdf:RDF><cc:Work
         rdf:about=""><dc:format>image/svg+xml</dc:format><dc:type
           rdf:resource="http://purl.org/dc/dcmitype/StillImage" /><cc:license
           rdf:resource="http://creativecommons.org/licenses/publicdomain/" /><dc:title>Lettre</dc:title><dc:date>2011-01-11</dc:date><dc:creator><cc:Agent><dc:title>lmproulx</dc:title></cc:Agent></dc:creator></cc:Work><cc:License
         rdf:about="http://creativecommons.org/licenses/publicdomain/"><cc:permits
           rdf:resource="http://creativecommons.org/ns#Reproduction" /><cc:permits
           rdf:resource="http://creativecommons.org/ns#Distribution" /><cc:permits
           rdf:resource="http://creativecommons.org/ns#DerivativeWorks" /></cc:License></rdf:RDF></metadata><g
     inkscape:label="Calque 1"
     inkscape:groupmode="layer"
     id="layer1"
     transform="translate(-283.91317,-310.61523)"><path
       style="display:inline;fill:#fa88d9;fill-opacity:1;stroke:#000000;stroke-width:2.02116;stroke-linecap:round;stroke-linejoin:round;stroke-miterlimit:4;stroke-dasharray:none;stroke-dashoffset:3.003;stroke-opacity:1"
       d="m 284.92375,311.62581 2.96855,94.6333 184.04982,-0.87623 1.97903,-93.75707 z"
       id="path3800"
       inkscape:connector-curvature="0"
       sodipodi:nodetypes="ccccc" /><path
       id="path4687"
       d="m 463.24557,314.55596 -0.003,-0.30204 -0.003,-0.30202 -0.0806,-0.006 c -0.35391,-0.0251 -0.6697,-0.28791 -0.72551,-0.6039 l -0.008,-0.0427 h -0.50788 -0.50787 l -0.008,0.0485 c -0.11765,0.79954 -1.46035,0.78781 -1.62247,-0.0141 l -0.008,-0.0343 h -0.43256 -0.43255 l -0.0133,0.0661 c 0.0773,0.4127 -0.52199,0.58714 -0.79965,0.58629 v -1.3e-4 l -0.0806,-0.006 c -0.35389,-0.0251 -0.66969,-0.28792 -0.72549,-0.6039 l -0.008,-0.0427 h -0.50788 -0.50789 l -0.008,0.0484 c -0.11764,0.79955 -1.46034,0.78781 -1.62247,-0.0141 l -0.008,-0.0343 h -0.43255 -0.43257 l -0.0132,0.0661 c -0.15044,0.75638 -1.40523,0.77452 -1.60475,0.0232 l -0.0238,-0.0893 h -0.39001 -0.39 v 0.0213 c 0,0.0883 -0.0923,0.27218 -0.18617,0.37079 -0.43905,0.46129 -1.29339,0.27077 -1.43284,-0.31952 l -0.0171,-0.0726 h -0.38854 -0.38854 l -0.0132,0.0662 c -0.152,0.76431 -1.4295,0.77072 -1.60969,0.008 l -0.0175,-0.0742 h -0.38845 -0.38844 l -0.0132,0.065 c -0.15632,0.77409 -1.45562,0.76845 -1.61463,-0.007 l -0.0119,-0.058 h -0.39104 -0.39104 v 0.0211 c 0,0.13179 -0.14674,0.36103 -0.29994,0.4686 -0.48626,0.34141 -1.21335,0.10522 -1.32315,-0.42977 l -0.0123,-0.0599 h -0.43161 -0.43161 l -0.0193,0.0798 c -0.14283,0.59242 -1.01428,0.77343 -1.44121,0.29934 -0.0881,-0.0979 -0.17752,-0.28035 -0.17752,-0.36238 0,-0.0159 -0.0172,-0.0168 -0.34677,-0.0168 h -0.34677 l -0.0185,0.0762 c -0.16291,0.67208 -1.19518,0.7846 -1.53932,0.16781 -0.0349,-0.0627 -0.0802,-0.19083 -0.0802,-0.22721 0,-0.016 -0.0197,-0.0169 -0.43392,-0.0169 h -0.43393 l -0.008,0.0427 c -0.14099,0.79828 -1.48196,0.79828 -1.62292,0 l -0.008,-0.0427 h -0.34528 -0.34527 l -0.002,0.0935 c -0.008,0.38053 -0.37322,0.70841 -0.79047,0.70918 l -0.0725,1.3e-4 v 0.30135 c 0,0.23333 0.004,0.30205 0.0134,0.30446 0.008,0.002 0.0448,0.008 0.0833,0.0141 0.86165,0.13517 0.85709,1.28034 -0.006,1.42239 l -0.091,0.015 v 0.33942 0.33941 l 0.0403,0.006 c 0.57168,0.0834 0.87738,0.60002 0.62048,1.0487 -0.12437,0.21721 -0.31549,0.33588 -0.63122,0.39196 l -0.0295,0.005 v 0.30048 0.30048 l 0.0403,0.005 c 0.91982,0.12399 0.94454,1.29147 0.0305,1.43872 l -0.0707,0.0114 v 0.3391 0.33911 l 0.0709,0.0104 c 0.89574,0.13245 0.88801,1.34146 -0.009,1.42914 l -0.0617,0.006 v 0.38106 0.38106 l 0.0725,0.0107 c 0.8956,0.1321 0.88782,1.32074 -0.009,1.4304 l -0.0578,0.007 -0.003,0.34224 -0.003,0.34224 0.0734,0.01 c 0.56881,0.076 0.8702,0.6965 0.54143,1.11458 -0.14142,0.17985 -0.39872,0.3211 -0.5849,0.3211 h -0.0299 l 0.003,0.38038 0.003,0.38037 0.0806,0.0125 c 0.55686,0.0863 0.8456,0.67341 0.54074,1.0996 -0.1252,0.175 -0.41027,0.33499 -0.59694,0.33499 h -0.0298 v 0.34171 0.3417 l 0.0403,0.005 c 0.9525,0.13287 0.94388,1.28754 -0.0107,1.44135 l -0.0295,0.004 v 0.37805 0.37799 l 0.0403,0.005 c 0.9582,0.13367 0.94536,1.28281 -0.0161,1.44218 l -0.0242,0.003 v 0.37826 0.37827 l 0.0295,0.004 c 0.43907,0.0707 0.72255,0.35356 0.72255,0.72088 0,0.36767 -0.28307,0.65009 -0.72255,0.72087 l -0.0295,0.004 v 0.37827 0.37827 l 0.0295,0.004 c 0.95518,0.15387 0.96379,1.30843 0.0107,1.44135 l -0.0403,0.005 v 0.33942 0.33943 l 0.091,0.015 c 0.86136,0.14185 0.86592,1.28919 0.006,1.42248 -0.0383,0.006 -0.0758,0.0122 -0.0832,0.014 -0.0103,0.003 -0.0134,0.0711 -0.0134,0.30406 v 0.30091 l 0.0403,0.005 c 0.92998,0.12974 0.9472,1.28153 0.0215,1.43671 l -0.0617,0.0104 v 0.3356 0.33559 l 0.0886,0.006 c 0.3892,0.0274 0.67622,0.25287 0.7649,0.60079 l 0.007,0.0251 h 0.34859 0.34876 l 0.007,-0.0251 c 0.0933,-0.36581 0.40827,-0.59836 0.81056,-0.59836 0.40261,0 0.71724,0.23228 0.81055,0.59836 l 0.007,0.0251 h 0.43527 c 0.33922,0 0.43603,-0.003 0.4387,-0.0115 0.002,-0.006 0.0115,-0.0402 0.0214,-0.0753 0.19874,-0.70863 1.40694,-0.70516 1.58605,0.004 0.008,0.0276 0.015,0.0574 0.0178,0.0662 0.008,0.0207 0.69999,0.0252 0.70619,0.004 0.002,-0.006 0.0115,-0.0402 0.0214,-0.0753 0.20959,-0.74727 1.40727,-0.70122 1.60163,0.0616 l 0.007,0.0251 h 0.43526 c 0.33895,0 0.43616,-0.003 0.43924,-0.0115 0.002,-0.006 0.0115,-0.0402 0.0209,-0.0753 0.17641,-0.65904 1.24762,-0.72539 1.54631,-0.0958 0.0255,0.0537 0.0334,0.0764 0.0549,0.15738 l 0.007,0.0251 h 0.39229 c 0.30456,0 0.39319,-0.003 0.39626,-0.0115 0.002,-0.006 0.0117,-0.0402 0.0213,-0.0753 0.19726,-0.726 1.42007,-0.69979 1.59616,0.0342 l 0.0126,0.0524 h 0.39175 c 0.30412,0 0.39262,-0.003 0.39568,-0.0115 0.002,-0.006 0.0117,-0.0399 0.0212,-0.0748 0.19451,-0.71251 1.45024,-0.69853 1.59121,0.0177 0.015,0.0761 -0.0295,0.0689 0.41056,0.0662 l 0.393,-0.003 0.0195,-0.0702 c 0.20532,-0.73895 1.41866,-0.72195 1.59927,0.0224 l 0.0128,0.0525 0.39298,-0.003 0.39296,-0.003 0.0195,-0.0702 c 0.20535,-0.73903 1.41867,-0.72211 1.59917,0.0223 l 0.0127,0.0524 h 0.4373 0.43729 l 0.0132,-0.0593 c 0.16712,-0.74808 1.42102,-0.7427 1.60282,0.007 l 0.0127,0.0524 0.50691,-10e-5 0.50691,-9e-5 0.002,-0.0797 v -1e-4 c 0.0413,-0.24087 0.439,-0.53099 0.76616,-0.5399 0.35206,0.004 0.7551,0.1947 0.84549,0.56743 l 0.0128,0.0524 h 0.43729 0.43731 l 0.0132,-0.0593 c 0.16711,-0.74808 1.42102,-0.74269 1.60281,0.007 l 0.0127,0.0524 0.50691,-1e-4 0.50692,-9e-5 0.002,-0.0797 v -10e-5 c 0.0107,-0.36117 0.37968,-0.69549 0.7676,-0.69549 h 0.052 v -0.37861 -0.37861 h -0.0381 c -0.99184,0 -1.03021,-1.37658 -0.0403,-1.44765 l 0.0784,-0.005 v -0.29809 -0.29809 l -0.0949,-0.0108 c -0.95002,-0.1074 -0.96399,-1.31053 -0.0168,-1.44144 l 0.11158,-0.0154 v -0.33527 -0.33528 h -0.0382 c -0.99231,0 -1.03067,-1.37659 -0.0403,-1.44765 l 0.0785,-0.005 v -0.37727 -0.37727 h -0.0382 c -0.3453,0 -0.68756,-0.25799 -0.76857,-0.57933 -0.10551,-0.41858 0.29228,-0.87126 0.76564,-0.87126 h 0.041 v -0.37735 -0.37735 l -0.0725,-0.006 c -0.97947,-0.0843 -0.98473,-1.37367 -0.007,-1.44392 l 0.0785,-0.005 v -0.37594 -0.37593 l -0.0793,-0.006 c -0.96945,-0.0695 -0.96937,-1.37493 1.1e-4,-1.44455 l 0.0793,-0.006 v -0.33507 -0.33508 l -0.0336,-0.006 c -0.0185,-0.003 -0.0466,-0.006 -0.0625,-0.006 -0.16251,0 -0.42356,-0.12838 -0.54648,-0.26879 -0.39578,-0.45204 -0.0939,-1.1018 0.54544,-1.17405 l 0.0971,-0.011 v -0.37133 -0.37133 l -0.0241,-0.005 c -0.0133,-0.003 -0.0408,-0.005 -0.0612,-0.005 -0.17385,-4.5e-4 -0.42761,-0.12342 -0.55621,-0.26921 -0.40281,-0.45672 -0.0817,-1.12131 0.56894,-1.17769 l 0.0725,-0.006 v -0.33466 -0.33465 l -0.0949,-0.0108 c -0.96155,-0.10871 -0.95137,-1.37367 0.0116,-1.44007 l 0.0833,-0.006 v -0.37599 -0.37601 l -0.068,-0.006 c -0.98925,-0.0861 -0.97518,-1.4472 0.015,-1.4472 h 0.0531 v -0.34212 -0.34211 h -0.0574 c -0.98184,0 -0.99618,-1.36911 -0.0152,-1.44738 l 0.0725,-0.006 v -0.29842 -0.2984 l -0.0779,-0.005 c -0.98073,-0.0708 -0.95318,-1.44766 0.029,-1.44766 h 0.0489 v -0.29915 -0.29914 l -0.11065,-0.0149 c -0.94982,-0.12794 -0.92583,-1.38161 0.0274,-1.43726 z"
       fill="#f2f2f2"
       style="stroke-width:0.00990043" /><path
       style="display:inline;fill:#ffffff;fill-opacity:1;stroke:#000000;stroke-width:1.01058;stroke-linecap:round;stroke-linejoin:round;stroke-miterlimit:4;stroke-dasharray:none;stroke-dashoffset:3.003;stroke-opacity:1"
       d="m 435.8575,316.05435 0.85682,24.79233 h 23.99081 v -25.4873 z"
       id="path3802"
       inkscape:connector-curvature="0"
       sodipodi:nodetypes="ccccc" /><g
       aria-label="soweli"
       transform="scale(0.98602225,1.0141759)"
       id="text6530"
       style="font-size:28.0655px;font-family:Nishiki-teki-lili;-inkscape-font-specification:Nishiki-teki-lili;stroke:#000000;stroke-width:0.5;stroke-linecap:round;stroke-linejoin:round;stop-color:#000000"><path
         d="m 457.4777,333.13319 h -0.0842 q -0.84196,0 -1.03842,-1.01036 l -0.0281,-1.45941 q 0,-1.59973 0.16839,-4.60274 0.0842,-0.78583 0.8981,-0.98229 1.06649,-0.11226 2.27331,-0.42098 1.23488,-0.30872 2.13297,-0.92617 0.92617,-0.6455 0.92617,-1.82425 0,-0.58938 -0.1684,-1.23488 -0.16839,-0.64551 -0.58937,-1.26295 -0.39292,-0.64551 -1.12262,-1.20682 -0.70164,-0.58937 -1.79619,-1.01036 -1.06649,-0.44904 -2.6101,-0.70163 -1.51553,-0.28066 -3.53625,-0.28066 -1.31908,0 -1.76813,0.0561 -0.42098,0.0281 -0.56131,0.0561 -0.0842,0.0281 -0.67357,0.0281 -0.98229,0 -1.09455,-1.09456 0,-0.39291 0.28065,-0.70163 0.28066,-0.30872 0.70164,-0.33679 1.76813,-0.14033 3.28366,-0.14033 3.22754,0.0561 5.38858,0.67357 2.18911,0.58938 3.48012,1.59974 1.31908,0.98229 1.96459,2.16104 0.67357,1.17875 0.87003,2.3575 0.11226,0.53325 0.11226,1.01036 0,1.43134 -0.64551,2.38557 -0.6455,0.92616 -1.6278,1.48747 -0.98229,0.56131 -2.07684,0.87003 -1.06649,0.28066 -1.96459,0.42098 -0.0842,2.55396 -0.0842,5.02373 0,0.84196 -1.01036,1.06649 z m -4.0695,-0.36485 q -0.44905,-0.0281 -0.75777,-0.30872 -0.30872,-0.30873 -0.30872,-0.75777 v -5.94989 q 0.0842,-0.98229 1.06649,-1.06649 0.98229,0.0842 1.06649,1.06649 v 5.94989 q 0,0.44904 -0.30872,0.75777 -0.30872,0.30872 -0.75777,0.30872 z m -3.95724,0.16839 q -0.44904,0 -0.78583,-0.30872 -0.30872,-0.30872 -0.30872,-0.75777 l -0.11226,-5.86569 q 0,-0.84196 1.03842,-1.03842 0.8981,0 1.09456,1.06649 l 0.11226,5.80955 q 0,0.87003 -1.03843,1.09456 z m -3.92917,-0.25259 q -0.44904,-0.0281 -0.75776,-0.33679 -0.30872,-0.30872 -0.30872,-0.75777 v -5.80955 q 0.0842,-0.95423 1.06648,-1.06649 0.44905,0.0281 0.75777,0.33678 0.30872,0.30872 0.30872,0.72971 v 5.80955 q -0.0842,0.9823 -1.06649,1.09456 z m 14.20115,-9.82293 q -0.70164,0 -1.17875,-0.47711 -0.47712,-0.50518 -0.47712,-1.20682 0,-0.70163 0.47712,-1.20681 0.47711,-0.50518 1.17875,-0.50518 0.67357,0 1.15068,0.50518 0.50518,0.50518 0.50518,1.20681 0,0.70164 -0.50518,1.20682 -0.47711,0.47711 -1.15068,0.47711 z m -4.32209,-0.0842 q -0.67357,0 -1.17875,-0.50518 -0.47711,-0.50518 -0.47711,-1.20682 0,-0.70164 0.47711,-1.17875 0.50518,-0.50518 1.17875,-0.50518 0.70164,0 1.17875,0.50518 0.47711,0.47711 0.47711,1.17875 0,0.70164 -0.47711,1.20682 -0.47711,0.50518 -1.17875,0.50518 z"
         style="font-family:'linja lipamanka';-inkscape-font-specification:'linja lipamanka'"
         id="path6562" /></g><path
       id="path4687-5"
       d="m 399.59973,315.11994 0.003,-0.30204 0.003,-0.30202 0.0806,-0.006 c 0.35391,-0.0251 0.6697,-0.28791 0.72551,-0.6039 l 0.008,-0.0427 h 0.50788 0.50787 l 0.008,0.0485 c 0.11765,0.79954 1.46035,0.78781 1.62247,-0.0141 l 0.008,-0.0343 h 0.43256 0.43255 l 0.0133,0.0661 c -0.0773,0.4127 0.52199,0.58714 0.79965,0.58629 v -1.3e-4 l 0.0806,-0.006 c 0.35389,-0.0251 0.66969,-0.28792 0.72549,-0.6039 l 0.008,-0.0427 h 0.50788 0.50789 l 0.008,0.0484 c 0.11764,0.79955 1.46034,0.78781 1.62247,-0.0141 l 0.008,-0.0343 h 0.43255 0.43257 l 0.0132,0.0661 c 0.15044,0.75638 1.40523,0.77452 1.60475,0.0232 l 0.0238,-0.0893 h 0.39001 0.39 v 0.0213 c 0,0.0883 0.0923,0.27218 0.18617,0.37079 0.43905,0.46129 1.29339,0.27077 1.43284,-0.31952 l 0.0171,-0.0726 h 0.38854 0.38854 l 0.0132,0.0662 c 0.152,0.76431 1.4295,0.77072 1.60969,0.008 l 0.0175,-0.0742 h 0.38845 0.38844 l 0.0132,0.065 c 0.15632,0.77409 1.45562,0.76845 1.61463,-0.007 l 0.0119,-0.058 h 0.39104 0.39104 v 0.0211 c 0,0.13179 0.14674,0.36103 0.29994,0.4686 0.48626,0.34141 1.21335,0.10522 1.32315,-0.42977 l 0.0123,-0.0599 h 0.43161 0.43161 l 0.0193,0.0798 c 0.14283,0.59242 1.01428,0.77343 1.44121,0.29934 0.0881,-0.0979 0.17752,-0.28035 0.17752,-0.36238 0,-0.0159 0.0172,-0.0168 0.34677,-0.0168 h 0.34677 l 0.0185,0.0762 c 0.16291,0.67208 1.19518,0.7846 1.53932,0.16781 0.0349,-0.0627 0.0802,-0.19083 0.0802,-0.22721 0,-0.016 0.0197,-0.0169 0.43392,-0.0169 h 0.43393 l 0.008,0.0427 c 0.14099,0.79828 1.48196,0.79828 1.62292,0 l 0.008,-0.0427 h 0.34528 0.34527 l 0.002,0.0935 c 0.008,0.38053 0.37322,0.70841 0.79047,0.70918 l 0.0725,1.3e-4 v 0.30135 c 0,0.23333 -0.004,0.30205 -0.0134,0.30446 -0.008,0.002 -0.0448,0.008 -0.0833,0.0141 -0.86165,0.13517 -0.85709,1.28034 0.006,1.42239 l 0.091,0.015 v 0.33942 0.33941 l -0.0403,0.006 c -0.57168,0.0834 -0.87738,0.60002 -0.62048,1.0487 0.12437,0.21721 0.31549,0.33588 0.63122,0.39196 l 0.0295,0.005 v 0.30048 0.30048 l -0.0403,0.005 c -0.91982,0.12399 -0.94454,1.29147 -0.0305,1.43872 l 0.0707,0.0114 v 0.3391 0.33911 l -0.0709,0.0104 c -0.89574,0.13245 -0.88801,1.34146 0.009,1.42914 l 0.0617,0.006 v 0.38106 0.38106 l -0.0725,0.0107 c -0.8956,0.1321 -0.88782,1.32074 0.009,1.4304 l 0.0578,0.007 0.003,0.34224 0.003,0.34224 -0.0734,0.01 c -0.56881,0.076 -0.8702,0.6965 -0.54143,1.11458 0.14142,0.17985 0.39872,0.3211 0.5849,0.3211 h 0.0299 l -0.003,0.38038 -0.003,0.38037 -0.0806,0.0125 c -0.55686,0.0863 -0.8456,0.67341 -0.54074,1.0996 0.1252,0.175 0.41027,0.33499 0.59694,0.33499 h 0.0298 v 0.34171 0.3417 l -0.0403,0.005 c -0.9525,0.13287 -0.94388,1.28754 0.0107,1.44135 l 0.0295,0.004 v 0.37805 0.37799 l -0.0403,0.005 c -0.9582,0.13367 -0.94536,1.28281 0.0161,1.44218 l 0.0242,0.003 v 0.37826 0.37827 l -0.0295,0.004 c -0.43907,0.0707 -0.72255,0.35356 -0.72255,0.72088 0,0.36767 0.28307,0.65009 0.72255,0.72087 l 0.0295,0.004 v 0.37827 0.37827 l -0.0295,0.004 c -0.95518,0.15387 -0.96379,1.30843 -0.0107,1.44135 l 0.0403,0.005 v 0.33942 0.33943 l -0.091,0.015 c -0.86136,0.14185 -0.86592,1.28919 -0.006,1.42248 0.0383,0.006 0.0758,0.0122 0.0832,0.014 0.0103,0.003 0.0134,0.0711 0.0134,0.30406 V 341.07 l -0.0403,0.005 c -0.92998,0.12974 -0.9472,1.28153 -0.0215,1.43671 l 0.0617,0.0104 v 0.3356 0.33559 l -0.0886,0.006 c -0.3892,0.0274 -0.67622,0.25287 -0.7649,0.60079 l -0.007,0.0251 h -0.34859 -0.34876 l -0.007,-0.0251 c -0.0933,-0.36581 -0.40827,-0.59836 -0.81056,-0.59836 -0.40261,0 -0.71724,0.23228 -0.81055,0.59836 l -0.007,0.0251 h -0.43527 c -0.33922,0 -0.43603,-0.003 -0.4387,-0.0115 -0.002,-0.006 -0.0115,-0.0402 -0.0214,-0.0753 -0.19874,-0.70863 -1.40694,-0.70516 -1.58605,0.004 -0.008,0.0276 -0.015,0.0574 -0.0178,0.0662 -0.008,0.0207 -0.69999,0.0252 -0.70619,0.004 -0.002,-0.006 -0.0115,-0.0402 -0.0214,-0.0753 -0.20959,-0.74727 -1.40727,-0.70122 -1.60163,0.0616 l -0.007,0.0251 h -0.43526 c -0.33895,0 -0.43616,-0.003 -0.43924,-0.0115 -0.002,-0.006 -0.0115,-0.0402 -0.0209,-0.0753 -0.17641,-0.65904 -1.24762,-0.72539 -1.54631,-0.0958 -0.0255,0.0537 -0.0334,0.0764 -0.0549,0.15738 l -0.007,0.0251 h -0.39229 c -0.30456,0 -0.39319,-0.003 -0.39626,-0.0115 -0.002,-0.006 -0.0117,-0.0402 -0.0213,-0.0753 -0.19726,-0.726 -1.42007,-0.69979 -1.59616,0.0342 l -0.0126,0.0524 h -0.39175 c -0.30412,0 -0.39262,-0.003 -0.39568,-0.0115 -0.002,-0.006 -0.0117,-0.0399 -0.0212,-0.0748 -0.19451,-0.71251 -1.45024,-0.69853 -1.59121,0.0177 -0.015,0.0761 0.0295,0.0689 -0.41056,0.0662 l -0.393,-0.003 -0.0195,-0.0702 c -0.20532,-0.73895 -1.41866,-0.72195 -1.59927,0.0224 l -0.0128,0.0525 -0.39298,-0.003 -0.39296,-0.003 -0.0195,-0.0702 c -0.20535,-0.73903 -1.41867,-0.72211 -1.59917,0.0223 l -0.0127,0.0524 h -0.4373 -0.43729 l -0.0132,-0.0593 c -0.16712,-0.74808 -1.42102,-0.7427 -1.60282,0.007 l -0.0127,0.0524 -0.50691,-1e-4 -0.50691,-9e-5 -0.002,-0.0797 v -10e-5 c -0.0413,-0.24087 -0.439,-0.53099 -0.76616,-0.5399 -0.35206,0.004 -0.7551,0.1947 -0.84549,0.56743 l -0.0128,0.0524 h -0.43729 -0.43731 l -0.0132,-0.0593 c -0.16711,-0.74808 -1.42102,-0.74269 -1.60281,0.007 l -0.0127,0.0524 -0.50691,-1e-4 -0.50692,-9e-5 -0.002,-0.0797 v -10e-5 c -0.0107,-0.36117 -0.37968,-0.69549 -0.7676,-0.69549 h -0.052 v -0.37861 -0.37861 h 0.0381 c 0.99184,0 1.03021,-1.37658 0.0403,-1.44765 l -0.0784,-0.005 v -0.29809 -0.29809 l 0.0949,-0.0108 c 0.95002,-0.1074 0.96399,-1.31053 0.0168,-1.44144 l -0.11158,-0.0154 v -0.33527 -0.33528 h 0.0382 c 0.99231,0 1.03067,-1.37659 0.0403,-1.44765 l -0.0785,-0.005 v -0.37727 -0.37727 h 0.0382 c 0.3453,0 0.68756,-0.25799 0.76857,-0.57933 0.10551,-0.41858 -0.29228,-0.87126 -0.76564,-0.87126 h -0.041 v -0.37735 -0.37735 l 0.0725,-0.006 c 0.97947,-0.0843 0.98473,-1.37367 0.007,-1.44392 l -0.0785,-0.005 v -0.37594 -0.37593 l 0.0793,-0.006 c 0.96945,-0.0695 0.96937,-1.37493 -1.1e-4,-1.44455 l -0.0793,-0.006 v -0.33507 -0.33508 l 0.0336,-0.006 c 0.0185,-0.003 0.0466,-0.006 0.0625,-0.006 0.16251,0 0.42356,-0.12838 0.54648,-0.26879 0.39578,-0.45204 0.0939,-1.1018 -0.54544,-1.17405 l -0.0971,-0.011 v -0.37133 -0.37133 l 0.0241,-0.005 c 0.0133,-0.003 0.0408,-0.005 0.0612,-0.005 0.17385,-4.5e-4 0.42761,-0.12342 0.55621,-0.26921 0.40281,-0.45672 0.0817,-1.12131 -0.56894,-1.17769 l -0.0725,-0.006 v -0.33466 -0.33465 l 0.0949,-0.0108 c 0.96155,-0.10871 0.95137,-1.37367 -0.0116,-1.44007 l -0.0833,-0.006 v -0.37599 -0.37601 l 0.068,-0.006 c 0.98925,-0.0861 0.97518,-1.4472 -0.015,-1.4472 h -0.0531 v -0.34212 -0.34211 h 0.0574 c 0.98184,0 0.99618,-1.36911 0.0152,-1.44738 l -0.0725,-0.006 v -0.29842 -0.2984 l 0.0779,-0.005 c 0.98073,-0.0708 0.95318,-1.44766 -0.029,-1.44766 h -0.0489 v -0.29915 -0.29914 l 0.11065,-0.0149 c 0.94982,-0.12794 0.92583,-1.38161 -0.0274,-1.43726 z"
       fill="#f2f2f2"
       style="stroke-width:0.00990043" /><path
       style="display:inline;fill:#ffffff;fill-opacity:1;stroke:#000000;stroke-width:1.01058;stroke-linecap:round;stroke-linejoin:round;stroke-miterlimit:4;stroke-dasharray:none;stroke-dashoffset:3.003;stroke-opacity:1"
       d="m 426.9878,316.61833 -0.85682,24.79233 h -23.99081 v -25.4873 z"
       id="path3802-6"
       inkscape:connector-curvature="0"
       sodipodi:nodetypes="ccccc" /><g
       aria-label="soweli"
       transform="scale(-0.98602225,1.0141759)"
       id="text6530-8"
       style="font-size:28.0655px;font-family:Nishiki-teki-lili;-inkscape-font-specification:Nishiki-teki-lili;stroke:#000000;stroke-width:0.5;stroke-linecap:round;stroke-linejoin:round;stop-color:#000000"><path
         d="m -417.59921,333.68928 h -0.0842 q -0.84197,0 -1.03843,-1.01036 l -0.0281,-1.45941 q 0,-1.59973 0.16839,-4.60274 0.0842,-0.78583 0.8981,-0.98229 1.06649,-0.11226 2.2733,-0.42098 1.23488,-0.30872 2.13298,-0.92616 0.92616,-0.64551 0.92616,-1.82426 0,-0.58938 -0.16839,-1.23488 -0.16839,-0.64551 -0.58938,-1.26295 -0.39291,-0.64551 -1.12262,-1.20682 -0.70163,-0.58937 -1.79619,-1.01036 -1.06649,-0.44904 -2.61009,-0.70163 -1.51554,-0.28066 -3.53625,-0.28066 -1.31908,0 -1.76813,0.0561 -0.42098,0.0281 -0.56131,0.0561 -0.0842,0.0281 -0.67357,0.0281 -0.98229,0 -1.09456,-1.09455 0,-0.39292 0.28066,-0.70164 0.28065,-0.30872 0.70164,-0.33679 1.76812,-0.14033 3.28366,-0.14033 3.22753,0.0561 5.38858,0.67358 2.1891,0.58937 3.48012,1.59973 1.31908,0.98229 1.96458,2.16104 0.67357,1.17875 0.87003,2.35751 0.11227,0.53324 0.11227,1.01035 0,1.43134 -0.64551,2.38557 -0.64551,0.92616 -1.6278,1.48747 -0.98229,0.56131 -2.07685,0.87003 -1.06649,0.28066 -1.96458,0.42099 -0.0842,2.55396 -0.0842,5.02372 0,0.84196 -1.01036,1.06649 z m -4.06949,-0.36485 q -0.44905,-0.0281 -0.75777,-0.30872 -0.30872,-0.30872 -0.30872,-0.75777 v -5.94989 q 0.0842,-0.98229 1.06649,-1.06649 0.98229,0.0842 1.06648,1.06649 v 5.94989 q 0,0.44905 -0.30872,0.75777 -0.30872,0.30872 -0.75776,0.30872 z m -3.95724,0.16839 q -0.44905,0 -0.78583,-0.30872 -0.30872,-0.30872 -0.30872,-0.75777 l -0.11227,-5.86569 q 0,-0.84196 1.03843,-1.03842 0.89809,0 1.09455,1.06649 l 0.11226,5.80956 q 0,0.87003 -1.03842,1.09455 z m -3.92917,-0.25259 q -0.44905,-0.0281 -0.75777,-0.33679 -0.30872,-0.30872 -0.30872,-0.75776 v -5.80956 q 0.0842,-0.95423 1.06649,-1.06649 0.44905,0.0281 0.75777,0.33678 0.30872,0.30873 0.30872,0.72971 v 5.80956 q -0.0842,0.98229 -1.06649,1.09455 z m 14.20114,-9.82292 q -0.70163,0 -1.17875,-0.47712 -0.47711,-0.50518 -0.47711,-1.20681 0,-0.70164 0.47711,-1.20682 0.47712,-0.50518 1.17875,-0.50518 0.67358,0 1.15069,0.50518 0.50518,0.50518 0.50518,1.20682 0,0.70163 -0.50518,1.20681 -0.47711,0.47712 -1.15069,0.47712 z m -4.32208,-0.0842 q -0.67358,0 -1.17875,-0.50518 -0.47712,-0.50518 -0.47712,-1.20682 0,-0.70163 0.47712,-1.17875 0.50517,-0.50518 1.17875,-0.50518 0.70163,0 1.17875,0.50518 0.47711,0.47712 0.47711,1.17875 0,0.70164 -0.47711,1.20682 -0.47712,0.50518 -1.17875,0.50518 z"
         style="font-family:'linja lipamanka';-inkscape-font-specification:'linja lipamanka'"
         id="path6559" /></g><path
       id="path4687-5-5"
       d="m 364.30543,315.92171 0.003,-0.30204 0.003,-0.30202 0.0806,-0.006 c 0.35391,-0.0251 0.6697,-0.28791 0.72551,-0.6039 l 0.008,-0.0427 h 0.50788 0.50787 l 0.008,0.0485 c 0.11765,0.79954 1.46035,0.78781 1.62247,-0.0141 l 0.008,-0.0343 h 0.43256 0.43255 l 0.0133,0.0661 c -0.0773,0.4127 0.52199,0.58714 0.79965,0.58629 v -1.3e-4 l 0.0806,-0.006 c 0.35389,-0.0251 0.66969,-0.28792 0.72549,-0.6039 l 0.008,-0.0427 h 0.50788 0.50789 l 0.008,0.0484 c 0.11764,0.79955 1.46034,0.78781 1.62247,-0.0141 l 0.008,-0.0343 h 0.43255 0.43257 l 0.0132,0.0661 c 0.15044,0.75638 1.40523,0.77452 1.60475,0.0232 l 0.0238,-0.0893 h 0.39001 0.39 v 0.0213 c 0,0.0883 0.0923,0.27218 0.18617,0.37079 0.43905,0.46129 1.29339,0.27077 1.43284,-0.31952 l 0.0171,-0.0726 h 0.38854 0.38854 l 0.0132,0.0662 c 0.152,0.76431 1.4295,0.77072 1.60969,0.008 l 0.0175,-0.0742 h 0.38845 0.38844 l 0.0132,0.065 c 0.15632,0.77409 1.45562,0.76845 1.61463,-0.007 l 0.0119,-0.058 h 0.39104 0.39104 v 0.0211 c 0,0.13179 0.14674,0.36103 0.29994,0.4686 0.48626,0.34141 1.21335,0.10522 1.32315,-0.42977 l 0.0123,-0.0599 h 0.43161 0.43161 l 0.0193,0.0798 c 0.14283,0.59242 1.01428,0.77343 1.44121,0.29934 0.0881,-0.0979 0.17752,-0.28035 0.17752,-0.36238 0,-0.0159 0.0172,-0.0168 0.34677,-0.0168 h 0.34677 l 0.0185,0.0762 c 0.16291,0.67208 1.19518,0.7846 1.53932,0.16781 0.0349,-0.0627 0.0802,-0.19083 0.0802,-0.22721 0,-0.016 0.0197,-0.0169 0.43392,-0.0169 h 0.43393 l 0.008,0.0427 c 0.14099,0.79828 1.48196,0.79828 1.62292,0 l 0.008,-0.0427 h 0.34528 0.34527 l 0.002,0.0935 c 0.008,0.38053 0.37322,0.70841 0.79047,0.70918 l 0.0725,1.3e-4 v 0.30135 c 0,0.23333 -0.004,0.30205 -0.0134,0.30446 -0.008,0.002 -0.0448,0.008 -0.0833,0.0141 -0.86165,0.13517 -0.85709,1.28034 0.006,1.42239 l 0.091,0.015 v 0.33942 0.33941 l -0.0403,0.006 c -0.57168,0.0834 -0.87738,0.60002 -0.62048,1.0487 0.12437,0.21721 0.31549,0.33588 0.63122,0.39196 l 0.0295,0.005 v 0.30048 0.30048 l -0.0403,0.005 c -0.91982,0.12399 -0.94454,1.29147 -0.0305,1.43872 l 0.0707,0.0114 v 0.3391 0.33911 l -0.0709,0.0104 c -0.89574,0.13245 -0.88801,1.34146 0.009,1.42914 l 0.0617,0.006 v 0.38106 0.38106 l -0.0725,0.0107 c -0.8956,0.1321 -0.88782,1.32074 0.009,1.4304 l 0.0578,0.007 0.003,0.34224 0.003,0.34224 -0.0734,0.01 c -0.56881,0.076 -0.8702,0.6965 -0.54143,1.11458 0.14142,0.17985 0.39872,0.3211 0.5849,0.3211 h 0.0299 l -0.003,0.38038 -0.003,0.38037 -0.0806,0.0125 c -0.55686,0.0863 -0.8456,0.67341 -0.54074,1.0996 0.1252,0.175 0.41027,0.33499 0.59694,0.33499 h 0.0298 v 0.34171 0.3417 l -0.0403,0.005 c -0.9525,0.13287 -0.94388,1.28754 0.0107,1.44135 l 0.0295,0.004 v 0.37805 0.37799 l -0.0403,0.005 c -0.9582,0.13367 -0.94536,1.28281 0.0161,1.44218 l 0.0242,0.003 v 0.37826 0.37827 l -0.0295,0.004 c -0.43907,0.0707 -0.72255,0.35356 -0.72255,0.72088 0,0.36767 0.28307,0.65009 0.72255,0.72087 l 0.0295,0.004 v 0.37827 0.37827 l -0.0295,0.004 c -0.95518,0.15387 -0.96379,1.30843 -0.0107,1.44135 l 0.0403,0.005 v 0.33942 0.33943 l -0.091,0.015 c -0.86136,0.14185 -0.86592,1.28919 -0.006,1.42248 0.0383,0.006 0.0758,0.0122 0.0832,0.014 0.0103,0.003 0.0134,0.0711 0.0134,0.30406 v 0.30091 l -0.0403,0.005 c -0.92998,0.12974 -0.9472,1.28153 -0.0215,1.43671 l 0.0617,0.0104 v 0.3356 0.33559 l -0.0886,0.006 c -0.3892,0.0274 -0.67622,0.25287 -0.7649,0.60079 l -0.007,0.0251 h -0.34859 -0.34876 l -0.007,-0.0251 c -0.0933,-0.36581 -0.40827,-0.59836 -0.81056,-0.59836 -0.40261,0 -0.71724,0.23228 -0.81055,0.59836 l -0.007,0.0251 h -0.43527 c -0.33922,0 -0.43603,-0.003 -0.4387,-0.0115 -0.002,-0.006 -0.0115,-0.0402 -0.0214,-0.0753 -0.19874,-0.70863 -1.40694,-0.70516 -1.58605,0.004 -0.008,0.0276 -0.015,0.0574 -0.0178,0.0662 -0.008,0.0207 -0.69999,0.0252 -0.70619,0.004 -0.002,-0.006 -0.0115,-0.0402 -0.0214,-0.0753 -0.20959,-0.74727 -1.40727,-0.70122 -1.60163,0.0616 l -0.007,0.0251 h -0.43526 c -0.33895,0 -0.43616,-0.003 -0.43924,-0.0115 -0.002,-0.006 -0.0115,-0.0402 -0.0209,-0.0753 -0.17641,-0.65904 -1.24762,-0.72539 -1.54631,-0.0958 -0.0255,0.0537 -0.0334,0.0764 -0.0549,0.15738 l -0.007,0.0251 h -0.39229 c -0.30456,0 -0.39319,-0.003 -0.39626,-0.0115 -0.002,-0.006 -0.0117,-0.0402 -0.0213,-0.0753 -0.19726,-0.726 -1.42007,-0.69979 -1.59616,0.0342 l -0.0126,0.0524 h -0.39175 c -0.30412,0 -0.39262,-0.003 -0.39568,-0.0115 -0.002,-0.006 -0.0117,-0.0399 -0.0212,-0.0748 -0.19451,-0.71251 -1.45024,-0.69853 -1.59121,0.0177 -0.015,0.0761 0.0295,0.0689 -0.41056,0.0662 l -0.393,-0.003 -0.0195,-0.0702 c -0.20532,-0.73895 -1.41866,-0.72195 -1.59927,0.0224 l -0.0128,0.0525 -0.39298,-0.003 -0.39296,-0.003 -0.0195,-0.0702 c -0.20535,-0.73903 -1.41867,-0.72211 -1.59917,0.0223 l -0.0127,0.0524 h -0.4373 -0.43729 l -0.0132,-0.0593 c -0.16712,-0.74808 -1.42102,-0.7427 -1.60282,0.007 l -0.0127,0.0524 -0.50691,-10e-5 -0.50691,-9e-5 -0.002,-0.0797 v -1e-4 c -0.0413,-0.24087 -0.439,-0.53099 -0.76616,-0.5399 -0.35206,0.004 -0.7551,0.1947 -0.84549,0.56743 l -0.0128,0.0524 h -0.43729 -0.43731 l -0.0132,-0.0593 c -0.16711,-0.74808 -1.42102,-0.74269 -1.60281,0.007 l -0.0127,0.0524 -0.50691,-10e-5 -0.50692,-9e-5 -0.002,-0.0797 v -1e-4 c -0.0107,-0.36117 -0.37968,-0.69549 -0.7676,-0.69549 h -0.052 v -0.37861 -0.37861 h 0.0381 c 0.99184,0 1.03021,-1.37658 0.0403,-1.44765 l -0.0784,-0.005 v -0.29809 -0.29809 l 0.0949,-0.0108 c 0.95002,-0.1074 0.96399,-1.31053 0.0168,-1.44144 l -0.11158,-0.0154 v -0.33527 -0.33528 h 0.0382 c 0.99231,0 1.03067,-1.37659 0.0403,-1.44765 l -0.0785,-0.005 v -0.37727 -0.37727 h 0.0382 c 0.3453,0 0.68756,-0.25799 0.76857,-0.57933 0.10551,-0.41858 -0.29228,-0.87126 -0.76564,-0.87126 h -0.041 v -0.37735 -0.37735 l 0.0725,-0.006 c 0.97947,-0.0843 0.98473,-1.37367 0.007,-1.44392 l -0.0785,-0.005 v -0.37594 -0.37593 l 0.0793,-0.006 c 0.96945,-0.0695 0.96937,-1.37493 -1.1e-4,-1.44455 l -0.0793,-0.006 v -0.33507 -0.33508 l 0.0336,-0.006 c 0.0185,-0.003 0.0466,-0.006 0.0625,-0.006 0.16251,0 0.42356,-0.12838 0.54648,-0.26879 0.39578,-0.45204 0.0939,-1.1018 -0.54544,-1.17405 l -0.0971,-0.011 v -0.37133 -0.37133 l 0.0241,-0.005 c 0.0133,-0.003 0.0408,-0.005 0.0612,-0.005 0.17385,-4.5e-4 0.42761,-0.12342 0.55621,-0.26921 0.40281,-0.45672 0.0817,-1.12131 -0.56894,-1.17769 l -0.0725,-0.006 v -0.33466 -0.33465 l 0.0949,-0.0108 c 0.96155,-0.10871 0.95137,-1.37367 -0.0116,-1.44007 l -0.0833,-0.006 v -0.37599 -0.37601 l 0.068,-0.006 c 0.98925,-0.0861 0.97518,-1.4472 -0.015,-1.4472 h -0.0531 v -0.34212 -0.34211 h 0.0574 c 0.98184,0 0.99618,-1.36911 0.0152,-1.44738 l -0.0725,-0.006 v -0.29842 -0.2984 l 0.0779,-0.005 c 0.98073,-0.0708 0.95318,-1.44766 -0.029,-1.44766 h -0.0489 v -0.29915 -0.29914 l 0.11065,-0.0149 c 0.94982,-0.12794 0.92583,-1.38161 -0.0274,-1.43726 z"
       fill="#f2f2f2"
       style="stroke-width:0.00990043" /><path
       style="display:inline;fill:#ffffff;fill-opacity:1;stroke:#000000;stroke-width:1.01058;stroke-linecap:round;stroke-linejoin:round;stroke-miterlimit:4;stroke-dasharray:none;stroke-dashoffset:3.003;stroke-opacity:1"
       d="m 391.6935,317.4201 -0.85682,24.79233 h -23.99081 v -25.4873 z"
       id="path3802-6-2"
       inkscape:connector-curvature="0"
       sodipodi:nodetypes="ccccc" /><g
       aria-label="soweli"
       transform="scale(-0.98602225,1.0141759)"
       id="text6530-8-7"
       style="font-size:28.0655px;font-family:Nishiki-teki-lili;-inkscape-font-specification:Nishiki-teki-lili;stroke:#000000;stroke-width:0.5;stroke-linecap:round;stroke-linejoin:round;stop-color:#000000"><path
         d="m -381.80459,334.47987 h -0.0842 q -0.84196,0 -1.03842,-1.01036 l -0.0281,-1.45941 q 0,-1.59973 0.1684,-4.60274 0.0842,-0.78583 0.89809,-0.98229 1.06649,-0.11226 2.27331,-0.42098 1.23488,-0.30872 2.13298,-0.92617 0.92616,-0.6455 0.92616,-1.82425 0,-0.58938 -0.16839,-1.23488 -0.1684,-0.64551 -0.58938,-1.26295 -0.39292,-0.64551 -1.12262,-1.20682 -0.70164,-0.58937 -1.79619,-1.01036 -1.06649,-0.44904 -2.61009,-0.70163 -1.51554,-0.28066 -3.53626,-0.28066 -1.31908,0 -1.76812,0.0561 -0.42099,0.0281 -0.56131,0.0561 -0.0842,0.0281 -0.67358,0.0281 -0.98229,0 -1.09455,-1.09456 0,-0.39291 0.28066,-0.70163 0.28065,-0.30872 0.70163,-0.33679 1.76813,-0.14033 3.28367,-0.14033 3.22753,0.0561 5.38857,0.67357 2.18911,0.58938 3.48012,1.59974 1.31908,0.98229 1.96459,2.16104 0.67357,1.17875 0.87003,2.3575 0.11226,0.53325 0.11226,1.01036 0,1.43134 -0.6455,2.38557 -0.64551,0.92616 -1.6278,1.48747 -0.9823,0.56131 -2.07685,0.87003 -1.06649,0.28066 -1.96459,0.42098 -0.0842,2.55396 -0.0842,5.02373 0,0.84196 -1.01036,1.06649 z m -4.0695,-0.36485 q -0.44905,-0.0281 -0.75777,-0.30872 -0.30872,-0.30873 -0.30872,-0.75777 v -5.94989 q 0.0842,-0.98229 1.06649,-1.06649 0.98229,0.0842 1.06649,1.06649 v 5.94989 q 0,0.44904 -0.30872,0.75777 -0.30872,0.30872 -0.75777,0.30872 z m -3.95723,0.16839 q -0.44905,0 -0.78584,-0.30872 -0.30872,-0.30872 -0.30872,-0.75777 l -0.11226,-5.86569 q 0,-0.84196 1.03842,-1.03842 0.8981,0 1.09456,1.06649 l 0.11226,5.80955 q 0,0.87003 -1.03842,1.09456 z m -3.92917,-0.25259 q -0.44905,-0.0281 -0.75777,-0.33679 -0.30872,-0.30872 -0.30872,-0.75777 v -5.80955 q 0.0842,-0.95423 1.06649,-1.06649 0.44904,0.0281 0.75777,0.33678 0.30872,0.30872 0.30872,0.72971 v 5.80955 q -0.0842,0.9823 -1.06649,1.09456 z m 14.20114,-9.82293 q -0.70164,0 -1.17875,-0.47711 -0.47711,-0.50518 -0.47711,-1.20682 0,-0.70163 0.47711,-1.20681 0.47711,-0.50518 1.17875,-0.50518 0.67357,0 1.15069,0.50518 0.50517,0.50518 0.50517,1.20681 0,0.70164 -0.50517,1.20682 -0.47712,0.47711 -1.15069,0.47711 z m -4.32209,-0.0842 q -0.67357,0 -1.17875,-0.50518 -0.47711,-0.50518 -0.47711,-1.20682 0,-0.70164 0.47711,-1.17875 0.50518,-0.50518 1.17875,-0.50518 0.70164,0 1.17875,0.50518 0.47712,0.47711 0.47712,1.17875 0,0.70164 -0.47712,1.20682 -0.47711,0.50518 -1.17875,0.50518 z"
         style="font-family:'linja lipamanka';-inkscape-font-specification:'linja lipamanka'"
         id="path6556" /></g><path
       id="path4687-5-51"
       d="m 328.93645,315.95833 0.003,-0.30204 0.003,-0.30202 0.0806,-0.006 c 0.35391,-0.0251 0.6697,-0.28791 0.72551,-0.6039 l 0.008,-0.0427 h 0.50788 0.50787 l 0.008,0.0485 c 0.11765,0.79954 1.46035,0.78781 1.62247,-0.0141 l 0.008,-0.0343 h 0.43256 0.43255 l 0.0133,0.0661 c -0.0773,0.4127 0.52199,0.58714 0.79965,0.58629 v -1.3e-4 l 0.0806,-0.006 c 0.35389,-0.0251 0.66969,-0.28792 0.72549,-0.6039 l 0.008,-0.0427 h 0.50788 0.50789 l 0.008,0.0484 c 0.11764,0.79955 1.46034,0.78781 1.62247,-0.0141 l 0.008,-0.0343 h 0.43255 0.43257 l 0.0132,0.0661 c 0.15044,0.75638 1.40523,0.77452 1.60475,0.0232 l 0.0238,-0.0893 h 0.39001 0.39 v 0.0213 c 0,0.0883 0.0923,0.27218 0.18617,0.37079 0.43905,0.46129 1.29339,0.27077 1.43284,-0.31952 l 0.0171,-0.0726 h 0.38854 0.38854 l 0.0132,0.0662 c 0.152,0.76431 1.4295,0.77072 1.60969,0.008 l 0.0175,-0.0742 h 0.38845 0.38844 l 0.0132,0.065 c 0.15632,0.77409 1.45562,0.76845 1.61463,-0.007 l 0.0119,-0.058 h 0.39104 0.39104 v 0.0211 c 0,0.13179 0.14674,0.36103 0.29994,0.4686 0.48626,0.34141 1.21335,0.10522 1.32315,-0.42977 l 0.0123,-0.0599 h 0.43161 0.43161 l 0.0193,0.0798 c 0.14283,0.59242 1.01428,0.77343 1.44121,0.29934 0.0881,-0.0979 0.17752,-0.28035 0.17752,-0.36238 0,-0.0159 0.0172,-0.0168 0.34677,-0.0168 h 0.34677 l 0.0185,0.0762 c 0.16291,0.67208 1.19518,0.7846 1.53932,0.16781 0.0349,-0.0627 0.0802,-0.19083 0.0802,-0.22721 0,-0.016 0.0197,-0.0169 0.43392,-0.0169 h 0.43393 l 0.008,0.0427 c 0.14099,0.79828 1.48196,0.79828 1.62292,0 l 0.008,-0.0427 h 0.34528 0.34527 l 0.002,0.0935 c 0.008,0.38053 0.37322,0.70841 0.79047,0.70918 l 0.0725,1.3e-4 v 0.30135 c 0,0.23333 -0.004,0.30205 -0.0134,0.30446 -0.008,0.002 -0.0448,0.008 -0.0833,0.0141 -0.86165,0.13517 -0.85709,1.28034 0.006,1.42239 l 0.091,0.015 v 0.33942 0.33941 l -0.0403,0.006 c -0.57168,0.0834 -0.87738,0.60002 -0.62048,1.0487 0.12437,0.21721 0.31549,0.33588 0.63122,0.39196 l 0.0295,0.005 v 0.30048 0.30048 l -0.0403,0.005 c -0.91982,0.12399 -0.94454,1.29147 -0.0305,1.43872 l 0.0707,0.0114 v 0.3391 0.33911 l -0.0709,0.0104 c -0.89574,0.13245 -0.88801,1.34146 0.009,1.42914 l 0.0617,0.006 v 0.38106 0.38106 l -0.0725,0.0107 c -0.8956,0.1321 -0.88782,1.32074 0.009,1.4304 l 0.0578,0.007 0.003,0.34224 0.003,0.34224 -0.0734,0.01 c -0.56881,0.076 -0.8702,0.6965 -0.54143,1.11458 0.14142,0.17985 0.39872,0.3211 0.5849,0.3211 h 0.0299 l -0.003,0.38038 -0.003,0.38037 -0.0806,0.0125 c -0.55686,0.0863 -0.8456,0.67341 -0.54074,1.0996 0.1252,0.175 0.41027,0.33499 0.59694,0.33499 h 0.0298 v 0.34171 0.3417 l -0.0403,0.005 c -0.9525,0.13287 -0.94388,1.28754 0.0107,1.44135 l 0.0295,0.004 v 0.37805 0.37799 l -0.0403,0.005 c -0.9582,0.13367 -0.94536,1.28281 0.0161,1.44218 l 0.0242,0.003 v 0.37826 0.37827 l -0.0295,0.004 c -0.43907,0.0707 -0.72255,0.35356 -0.72255,0.72088 0,0.36767 0.28307,0.65009 0.72255,0.72087 l 0.0295,0.004 v 0.37827 0.37827 l -0.0295,0.004 c -0.95518,0.15387 -0.96379,1.30843 -0.0107,1.44135 l 0.0403,0.005 v 0.33942 0.33943 l -0.091,0.015 c -0.86136,0.14185 -0.86592,1.28919 -0.006,1.42248 0.0383,0.006 0.0758,0.0122 0.0832,0.014 0.0103,0.003 0.0134,0.0711 0.0134,0.30406 v 0.30091 l -0.0403,0.005 c -0.92998,0.12974 -0.9472,1.28153 -0.0215,1.43671 l 0.0617,0.0104 v 0.3356 0.33559 l -0.0886,0.006 c -0.3892,0.0274 -0.67622,0.25287 -0.7649,0.60079 l -0.007,0.0251 h -0.34859 -0.34876 l -0.007,-0.0251 c -0.0933,-0.36581 -0.40827,-0.59836 -0.81056,-0.59836 -0.40261,0 -0.71724,0.23228 -0.81055,0.59836 l -0.007,0.0251 h -0.43527 c -0.33922,0 -0.43603,-0.003 -0.4387,-0.0115 -0.002,-0.006 -0.0115,-0.0402 -0.0214,-0.0753 -0.19874,-0.70863 -1.40694,-0.70516 -1.58605,0.004 -0.008,0.0276 -0.015,0.0574 -0.0178,0.0662 -0.008,0.0207 -0.69999,0.0252 -0.70619,0.004 -0.002,-0.006 -0.0115,-0.0402 -0.0214,-0.0753 -0.20959,-0.74727 -1.40727,-0.70122 -1.60163,0.0616 l -0.007,0.0251 h -0.43526 c -0.33895,0 -0.43616,-0.003 -0.43924,-0.0115 -0.002,-0.006 -0.0115,-0.0402 -0.0209,-0.0753 -0.17641,-0.65904 -1.24762,-0.72539 -1.54631,-0.0958 -0.0255,0.0537 -0.0334,0.0764 -0.0549,0.15738 l -0.007,0.0251 h -0.39229 c -0.30456,0 -0.39319,-0.003 -0.39626,-0.0115 -0.002,-0.006 -0.0117,-0.0402 -0.0213,-0.0753 -0.19726,-0.726 -1.42007,-0.69979 -1.59616,0.0342 l -0.0126,0.0524 h -0.39175 c -0.30412,0 -0.39262,-0.003 -0.39568,-0.0115 -0.002,-0.006 -0.0117,-0.0399 -0.0212,-0.0748 -0.19451,-0.71251 -1.45024,-0.69853 -1.59121,0.0177 -0.015,0.0761 0.0295,0.0689 -0.41056,0.0662 l -0.393,-0.003 -0.0195,-0.0702 c -0.20532,-0.73895 -1.41866,-0.72195 -1.59927,0.0224 l -0.0128,0.0525 -0.39298,-0.003 -0.39296,-0.003 -0.0195,-0.0702 c -0.20535,-0.73903 -1.41867,-0.72211 -1.59917,0.0223 l -0.0127,0.0524 h -0.4373 -0.43729 l -0.0132,-0.0593 c -0.16712,-0.74808 -1.42102,-0.7427 -1.60282,0.007 l -0.0127,0.0524 -0.50691,-1e-4 -0.50691,-9e-5 -0.002,-0.0797 v -10e-5 c -0.0413,-0.24087 -0.439,-0.53099 -0.76616,-0.5399 -0.35206,0.004 -0.7551,0.1947 -0.84549,0.56743 l -0.0128,0.0524 h -0.43729 -0.43731 l -0.0132,-0.0593 c -0.16711,-0.74808 -1.42102,-0.74269 -1.60281,0.007 l -0.0127,0.0524 -0.50691,-1e-4 -0.50692,-9e-5 -0.002,-0.0797 v -10e-5 c -0.0107,-0.36117 -0.37968,-0.69549 -0.7676,-0.69549 h -0.052 v -0.37861 -0.37861 h 0.0381 c 0.99184,0 1.03021,-1.37658 0.0403,-1.44765 l -0.0784,-0.005 v -0.29809 -0.29809 l 0.0949,-0.0108 c 0.95002,-0.1074 0.96399,-1.31053 0.0168,-1.44144 l -0.11158,-0.0154 v -0.33527 -0.33528 h 0.0382 c 0.99231,0 1.03067,-1.37659 0.0403,-1.44765 l -0.0785,-0.005 v -0.37727 -0.37727 h 0.0382 c 0.3453,0 0.68756,-0.25799 0.76857,-0.57933 0.10551,-0.41858 -0.29228,-0.87126 -0.76564,-0.87126 h -0.041 v -0.37735 -0.37735 l 0.0725,-0.006 c 0.97947,-0.0843 0.98473,-1.37367 0.007,-1.44392 l -0.0785,-0.005 v -0.37594 -0.37593 l 0.0793,-0.006 c 0.96945,-0.0695 0.96937,-1.37493 -1.1e-4,-1.44455 l -0.0793,-0.006 v -0.33507 -0.33508 l 0.0336,-0.006 c 0.0185,-0.003 0.0466,-0.006 0.0625,-0.006 0.16251,0 0.42356,-0.12838 0.54648,-0.26879 0.39578,-0.45204 0.0939,-1.1018 -0.54544,-1.17405 l -0.0971,-0.011 v -0.37133 -0.37133 l 0.0241,-0.005 c 0.0133,-0.003 0.0408,-0.005 0.0612,-0.005 0.17385,-4.5e-4 0.42761,-0.12342 0.55621,-0.26921 0.40281,-0.45672 0.0817,-1.12131 -0.56894,-1.17769 l -0.0725,-0.006 v -0.33466 -0.33465 l 0.0949,-0.0108 c 0.96155,-0.10871 0.95137,-1.37367 -0.0116,-1.44007 l -0.0833,-0.006 v -0.37599 -0.37601 l 0.068,-0.006 c 0.98925,-0.0861 0.97518,-1.4472 -0.015,-1.4472 h -0.0531 v -0.34212 -0.34211 h 0.0574 c 0.98184,0 0.99618,-1.36911 0.0152,-1.44738 l -0.0725,-0.006 v -0.29842 -0.2984 l 0.0779,-0.005 c 0.98073,-0.0708 0.95318,-1.44766 -0.029,-1.44766 h -0.0489 v -0.29915 -0.29914 l 0.11065,-0.0149 c 0.94982,-0.12794 0.92583,-1.38161 -0.0274,-1.43726 z"
       fill="#f2f2f2"
       style="stroke-width:0.00990043" /><path
       style="display:inline;fill:#ffffff;fill-opacity:1;stroke:#000000;stroke-width:1.01058;stroke-linecap:round;stroke-linejoin:round;stroke-miterlimit:4;stroke-dasharray:none;stroke-dashoffset:3.003;stroke-opacity:1"
       d="m 356.32452,317.45672 -0.85682,24.79233 h -23.99081 v -25.4873 z"
       id="path3802-6-7"
       inkscape:connector-curvature="0"
       sodipodi:nodetypes="ccccc" /><g
       aria-label="soweli"
       transform="scale(-0.98602225,1.0141759)"
       id="text6530-8-0"
       style="font-size:28.0655px;font-family:Nishiki-teki-lili;-inkscape-font-specification:Nishiki-teki-lili;stroke:#000000;stroke-width:0.5;stroke-linecap:round;stroke-linejoin:round;stop-color:#000000"><path
         d="m -345.9342,334.51594 h -0.0842 q -0.84197,0 -1.03843,-1.01036 l -0.0281,-1.45941 q 0,-1.59973 0.16839,-4.60274 0.0842,-0.78583 0.8981,-0.98229 1.06648,-0.11226 2.2733,-0.42098 1.23488,-0.30872 2.13298,-0.92616 0.92616,-0.64551 0.92616,-1.82426 0,-0.58938 -0.16839,-1.23488 -0.1684,-0.64551 -0.58938,-1.26295 -0.39292,-0.64551 -1.12262,-1.20682 -0.70164,-0.58937 -1.79619,-1.01036 -1.06649,-0.44904 -2.61009,-0.70163 -1.51554,-0.28066 -3.53625,-0.28066 -1.31908,0 -1.76813,0.0561 -0.42098,0.0281 -0.56131,0.0561 -0.0842,0.0281 -0.67357,0.0281 -0.9823,0 -1.09456,-1.09455 0,-0.39292 0.28066,-0.70164 0.28065,-0.30872 0.70163,-0.33679 1.76813,-0.14033 3.28367,-0.14033 3.22753,0.0561 5.38857,0.67358 2.18911,0.58937 3.48013,1.59973 1.31907,0.98229 1.96458,2.16104 0.67357,1.17875 0.87003,2.35751 0.11226,0.53324 0.11226,1.01035 0,1.43134 -0.6455,2.38557 -0.64551,0.92616 -1.6278,1.48747 -0.98229,0.56131 -2.07685,0.87003 -1.06649,0.28066 -1.96458,0.42099 -0.0842,2.55396 -0.0842,5.02372 0,0.84196 -1.01036,1.06649 z m -4.0695,-0.36485 q -0.44904,-0.0281 -0.75776,-0.30872 -0.30872,-0.30872 -0.30872,-0.75777 v -5.94989 q 0.0842,-0.98229 1.06648,-1.06649 0.9823,0.0842 1.06649,1.06649 v 5.94989 q 0,0.44905 -0.30872,0.75777 -0.30872,0.30872 -0.75777,0.30872 z m -3.95723,0.16839 q -0.44905,0 -0.78584,-0.30872 -0.30872,-0.30872 -0.30872,-0.75777 l -0.11226,-5.86569 q 0,-0.84196 1.03843,-1.03842 0.89809,0 1.09455,1.06649 l 0.11226,5.80956 q 0,0.87003 -1.03842,1.09455 z m -3.92917,-0.25259 q -0.44905,-0.0281 -0.75777,-0.33679 -0.30872,-0.30872 -0.30872,-0.75776 v -5.80956 q 0.0842,-0.95423 1.06649,-1.06649 0.44905,0.0281 0.75777,0.33678 0.30872,0.30873 0.30872,0.72971 v 5.80956 q -0.0842,0.98229 -1.06649,1.09455 z m 14.20114,-9.82292 q -0.70164,0 -1.17875,-0.47712 -0.47711,-0.50518 -0.47711,-1.20681 0,-0.70164 0.47711,-1.20682 0.47711,-0.50518 1.17875,-0.50518 0.67357,0 1.15069,0.50518 0.50518,0.50518 0.50518,1.20682 0,0.70163 -0.50518,1.20681 -0.47712,0.47712 -1.15069,0.47712 z m -4.32209,-0.0842 q -0.67357,0 -1.17875,-0.50518 -0.47711,-0.50518 -0.47711,-1.20682 0,-0.70163 0.47711,-1.17875 0.50518,-0.50518 1.17875,-0.50518 0.70164,0 1.17876,0.50518 0.47711,0.47712 0.47711,1.17875 0,0.70164 -0.47711,1.20682 -0.47712,0.50518 -1.17876,0.50518 z"
         style="font-family:'linja lipamanka';-inkscape-font-specification:'linja lipamanka'"
         id="path6553" /></g><path
       id="path4687-5-4"
       d="m 294.50052,315.56816 0.003,-0.30204 0.003,-0.30202 0.0806,-0.006 c 0.35391,-0.0251 0.6697,-0.28791 0.72551,-0.6039 l 0.008,-0.0427 h 0.50788 0.50787 l 0.008,0.0485 c 0.11765,0.79954 1.46035,0.78781 1.62247,-0.0141 l 0.008,-0.0343 h 0.43256 0.43255 l 0.0133,0.0661 c -0.0773,0.4127 0.52199,0.58714 0.79965,0.58629 v -1.3e-4 l 0.0806,-0.006 c 0.35389,-0.0251 0.66969,-0.28792 0.72549,-0.6039 l 0.008,-0.0427 h 0.50788 0.50789 l 0.008,0.0484 c 0.11764,0.79955 1.46034,0.78781 1.62247,-0.0141 l 0.008,-0.0343 h 0.43255 0.43257 l 0.0132,0.0661 c 0.15044,0.75638 1.40523,0.77452 1.60475,0.0232 l 0.0238,-0.0893 h 0.39001 0.39 v 0.0213 c 0,0.0883 0.0923,0.27218 0.18617,0.37079 0.43905,0.46129 1.29339,0.27077 1.43284,-0.31952 l 0.0171,-0.0726 h 0.38854 0.38854 l 0.0132,0.0662 c 0.152,0.76431 1.4295,0.77072 1.60969,0.008 l 0.0175,-0.0742 h 0.38845 0.38844 l 0.0132,0.065 c 0.15632,0.77409 1.45562,0.76845 1.61463,-0.007 l 0.0119,-0.058 h 0.39104 0.39104 v 0.0211 c 0,0.13179 0.14674,0.36103 0.29994,0.4686 0.48626,0.34141 1.21335,0.10522 1.32315,-0.42977 l 0.0123,-0.0599 h 0.43161 0.43161 l 0.0193,0.0798 c 0.14283,0.59242 1.01428,0.77343 1.44121,0.29934 0.0881,-0.0979 0.17752,-0.28035 0.17752,-0.36238 0,-0.0159 0.0172,-0.0168 0.34677,-0.0168 h 0.34677 l 0.0185,0.0762 c 0.16291,0.67208 1.19518,0.7846 1.53932,0.16781 0.0349,-0.0627 0.0802,-0.19083 0.0802,-0.22721 0,-0.016 0.0197,-0.0169 0.43392,-0.0169 h 0.43393 l 0.008,0.0427 c 0.14099,0.79828 1.48196,0.79828 1.62292,0 l 0.008,-0.0427 h 0.34528 0.34527 l 0.002,0.0935 c 0.008,0.38053 0.37322,0.70841 0.79047,0.70918 l 0.0725,1.3e-4 v 0.30135 c 0,0.23333 -0.004,0.30205 -0.0134,0.30446 -0.008,0.002 -0.0448,0.008 -0.0833,0.0141 -0.86165,0.13517 -0.85709,1.28034 0.006,1.42239 l 0.091,0.015 v 0.33942 0.33941 l -0.0403,0.006 c -0.57168,0.0834 -0.87738,0.60002 -0.62048,1.0487 0.12437,0.21721 0.31549,0.33588 0.63122,0.39196 l 0.0295,0.005 v 0.30048 0.30048 l -0.0403,0.005 c -0.91982,0.12399 -0.94454,1.29147 -0.0305,1.43872 l 0.0707,0.0114 v 0.3391 0.33911 l -0.0709,0.0104 c -0.89574,0.13245 -0.88801,1.34146 0.009,1.42914 l 0.0617,0.006 v 0.38106 0.38106 l -0.0725,0.0107 c -0.8956,0.1321 -0.88782,1.32074 0.009,1.4304 l 0.0578,0.007 0.003,0.34224 0.003,0.34224 -0.0734,0.01 c -0.56881,0.076 -0.8702,0.6965 -0.54143,1.11458 0.14142,0.17985 0.39872,0.3211 0.5849,0.3211 h 0.0299 l -0.003,0.38038 -0.003,0.38037 -0.0806,0.0125 c -0.55686,0.0863 -0.8456,0.67341 -0.54074,1.0996 0.1252,0.175 0.41027,0.33499 0.59694,0.33499 h 0.0298 v 0.34171 0.3417 l -0.0403,0.005 c -0.9525,0.13287 -0.94388,1.28754 0.0107,1.44135 l 0.0295,0.004 v 0.37805 0.37799 l -0.0403,0.005 c -0.9582,0.13367 -0.94536,1.28281 0.0161,1.44218 l 0.0242,0.003 v 0.37826 0.37827 l -0.0295,0.004 c -0.43907,0.0707 -0.72255,0.35356 -0.72255,0.72088 0,0.36767 0.28307,0.65009 0.72255,0.72087 l 0.0295,0.004 v 0.37827 0.37827 l -0.0295,0.004 c -0.95518,0.15387 -0.96379,1.30843 -0.0107,1.44135 l 0.0403,0.005 v 0.33942 0.33943 l -0.091,0.015 c -0.86136,0.14185 -0.86592,1.28919 -0.006,1.42248 0.0383,0.006 0.0758,0.0122 0.0832,0.014 0.0103,0.003 0.0134,0.0711 0.0134,0.30406 v 0.30091 l -0.0403,0.005 c -0.92998,0.12974 -0.9472,1.28153 -0.0215,1.43671 l 0.0617,0.0104 v 0.3356 0.33559 l -0.0886,0.006 c -0.3892,0.0274 -0.67622,0.25287 -0.7649,0.60079 l -0.007,0.0251 h -0.34859 -0.34876 l -0.007,-0.0251 c -0.0933,-0.36581 -0.40827,-0.59836 -0.81056,-0.59836 -0.40261,0 -0.71724,0.23228 -0.81055,0.59836 l -0.007,0.0251 h -0.43527 c -0.33922,0 -0.43603,-0.003 -0.4387,-0.0115 -0.002,-0.006 -0.0115,-0.0402 -0.0214,-0.0753 -0.19874,-0.70863 -1.40694,-0.70516 -1.58605,0.004 -0.008,0.0276 -0.015,0.0574 -0.0178,0.0662 -0.008,0.0207 -0.69999,0.0252 -0.70619,0.004 -0.002,-0.006 -0.0115,-0.0402 -0.0214,-0.0753 -0.20959,-0.74727 -1.40727,-0.70122 -1.60163,0.0616 l -0.007,0.0251 h -0.43526 c -0.33895,0 -0.43616,-0.003 -0.43924,-0.0115 -0.002,-0.006 -0.0115,-0.0402 -0.0209,-0.0753 -0.17641,-0.65904 -1.24762,-0.72539 -1.54631,-0.0958 -0.0255,0.0537 -0.0334,0.0764 -0.0549,0.15738 l -0.007,0.0251 h -0.39229 c -0.30456,0 -0.39319,-0.003 -0.39626,-0.0115 -0.002,-0.006 -0.0117,-0.0402 -0.0213,-0.0753 -0.19726,-0.726 -1.42007,-0.69979 -1.59616,0.0342 l -0.0126,0.0524 h -0.39175 c -0.30412,0 -0.39262,-0.003 -0.39568,-0.0115 -0.002,-0.006 -0.0117,-0.0399 -0.0212,-0.0748 -0.19451,-0.71251 -1.45024,-0.69853 -1.59121,0.0177 -0.015,0.0761 0.0295,0.0689 -0.41056,0.0662 l -0.393,-0.003 -0.0195,-0.0702 c -0.20532,-0.73895 -1.41866,-0.72195 -1.59927,0.0224 l -0.0128,0.0525 -0.39298,-0.003 -0.39296,-0.003 -0.0195,-0.0702 c -0.20535,-0.73903 -1.41867,-0.72211 -1.59917,0.0223 l -0.0127,0.0524 h -0.4373 -0.43729 l -0.0132,-0.0593 c -0.16712,-0.74808 -1.42102,-0.7427 -1.60282,0.007 l -0.0127,0.0524 -0.50691,-10e-5 -0.50691,-9e-5 -0.002,-0.0797 v -1e-4 c -0.0413,-0.24087 -0.439,-0.53099 -0.76616,-0.5399 -0.35206,0.004 -0.7551,0.1947 -0.84549,0.56743 l -0.0128,0.0524 h -0.43729 -0.43731 l -0.0132,-0.0593 c -0.16711,-0.74808 -1.42102,-0.74269 -1.60281,0.007 l -0.0127,0.0524 -0.50691,-1e-4 -0.50692,-9e-5 -0.002,-0.0797 v -10e-5 c -0.0107,-0.36117 -0.37968,-0.69549 -0.7676,-0.69549 h -0.052 v -0.37861 -0.37861 h 0.0381 c 0.99184,0 1.03021,-1.37658 0.0403,-1.44765 l -0.0784,-0.005 v -0.29809 -0.29809 l 0.0949,-0.0108 c 0.95002,-0.1074 0.96399,-1.31053 0.0168,-1.44144 l -0.11158,-0.0154 v -0.33527 -0.33528 h 0.0382 c 0.99231,0 1.03067,-1.37659 0.0403,-1.44765 l -0.0785,-0.005 v -0.37727 -0.37727 h 0.0382 c 0.3453,0 0.68756,-0.25799 0.76857,-0.57933 0.10551,-0.41858 -0.29228,-0.87126 -0.76564,-0.87126 h -0.041 v -0.37735 -0.37735 l 0.0725,-0.006 c 0.97947,-0.0843 0.98473,-1.37367 0.007,-1.44392 l -0.0785,-0.005 v -0.37594 -0.37593 l 0.0793,-0.006 c 0.96945,-0.0695 0.96937,-1.37493 -1.1e-4,-1.44455 l -0.0793,-0.006 v -0.33507 -0.33508 l 0.0336,-0.006 c 0.0185,-0.003 0.0466,-0.006 0.0625,-0.006 0.16251,0 0.42356,-0.12838 0.54648,-0.26879 0.39578,-0.45204 0.0939,-1.1018 -0.54544,-1.17405 l -0.0971,-0.011 v -0.37133 -0.37133 l 0.0241,-0.005 c 0.0133,-0.003 0.0408,-0.005 0.0612,-0.005 0.17385,-4.5e-4 0.42761,-0.12342 0.55621,-0.26921 0.40281,-0.45672 0.0817,-1.12131 -0.56894,-1.17769 l -0.0725,-0.006 v -0.33466 -0.33465 l 0.0949,-0.0108 c 0.96155,-0.10871 0.95137,-1.37367 -0.0116,-1.44007 l -0.0833,-0.006 v -0.37599 -0.37601 l 0.068,-0.006 c 0.98925,-0.0861 0.97518,-1.4472 -0.015,-1.4472 h -0.0531 v -0.34212 -0.34211 h 0.0574 c 0.98184,0 0.99618,-1.36911 0.0152,-1.44738 l -0.0725,-0.006 v -0.29842 -0.2984 l 0.0779,-0.005 c 0.98073,-0.0708 0.95318,-1.44766 -0.029,-1.44766 h -0.0489 v -0.29915 -0.29914 l 0.11065,-0.0149 c 0.94982,-0.12794 0.92583,-1.38161 -0.0274,-1.43726 z"
       fill="#f2f2f2"
       style="stroke-width:0.00990043" /><path
       style="display:inline;fill:#ffffff;fill-opacity:1;stroke:#000000;stroke-width:1.01058;stroke-linecap:round;stroke-linejoin:round;stroke-miterlimit:4;stroke-dasharray:none;stroke-dashoffset:3.003;stroke-opacity:1"
       d="m 321.88859,317.06655 -0.85682,24.79233 h -23.99081 v -25.4873 z"
       id="path3802-6-0"
       inkscape:connector-curvature="0"
       sodipodi:nodetypes="ccccc" /><g
       aria-label="soweli"
       transform="scale(-0.98602225,1.0141759)"
       id="text6530-8-3"
       style="font-size:28.0655px;font-family:Nishiki-teki-lili;-inkscape-font-specification:Nishiki-teki-lili;stroke:#000000;stroke-width:0.5;stroke-linecap:round;stroke-linejoin:round;stop-color:#000000"><path
         d="m -311.01016,334.13123 h -0.0842 q -0.84197,0 -1.03843,-1.01035 l -0.0281,-1.45941 q 0,-1.59973 0.16839,-4.60274 0.0842,-0.78584 0.8981,-0.98229 1.06649,-0.11227 2.2733,-0.42099 1.23488,-0.30872 2.13298,-0.92616 0.92616,-0.6455 0.92616,-1.82426 0,-0.58937 -0.16839,-1.23488 -0.16839,-0.6455 -0.58938,-1.26295 -0.39291,-0.6455 -1.12262,-1.20681 -0.70163,-0.58938 -1.79619,-1.01036 -1.06649,-0.44905 -2.61009,-0.70164 -1.51554,-0.28065 -3.53625,-0.28065 -1.31908,0 -1.76813,0.0561 -0.42098,0.0281 -0.56131,0.0561 -0.0842,0.0281 -0.67357,0.0281 -0.98229,0 -1.09456,-1.09456 0,-0.39292 0.28066,-0.70164 0.28065,-0.30872 0.70164,-0.33678 1.76812,-0.14033 3.28366,-0.14033 3.22753,0.0561 5.38858,0.67357 2.1891,0.58938 3.48012,1.59974 1.31908,0.98229 1.96458,2.16104 0.67357,1.17875 0.87003,2.3575 0.11227,0.53325 0.11227,1.01036 0,1.43134 -0.64551,2.38557 -0.64551,0.92616 -1.6278,1.48747 -0.98229,0.56131 -2.07685,0.87003 -1.06649,0.28065 -1.96458,0.42098 -0.0842,2.55396 -0.0842,5.02373 0,0.84196 -1.01036,1.06648 z m -4.06949,-0.36485 q -0.44905,-0.0281 -0.75777,-0.30872 -0.30872,-0.30872 -0.30872,-0.75777 v -5.94988 q 0.0842,-0.98229 1.06649,-1.06649 0.98229,0.0842 1.06648,1.06649 v 5.94988 q 0,0.44905 -0.30872,0.75777 -0.30872,0.30872 -0.75776,0.30872 z m -3.95724,0.1684 q -0.44905,0 -0.78583,-0.30872 -0.30872,-0.30873 -0.30872,-0.75777 l -0.11227,-5.86569 q 0,-0.84197 1.03843,-1.03843 0.89809,0 1.09455,1.06649 l 0.11226,5.80956 q 0,0.87003 -1.03842,1.09456 z m -3.92917,-0.25259 q -0.44905,-0.0281 -0.75777,-0.33679 -0.30872,-0.30872 -0.30872,-0.75777 v -5.80956 q 0.0842,-0.95422 1.06649,-1.06649 0.44905,0.0281 0.75777,0.33679 0.30872,0.30872 0.30872,0.7297 v 5.80956 q -0.0842,0.98229 -1.06649,1.09456 z m 14.20114,-9.82293 q -0.70163,0 -1.17875,-0.47711 -0.47711,-0.50518 -0.47711,-1.20682 0,-0.70164 0.47711,-1.20682 0.47712,-0.50517 1.17875,-0.50517 0.67358,0 1.15069,0.50517 0.50518,0.50518 0.50518,1.20682 0,0.70164 -0.50518,1.20682 -0.47711,0.47711 -1.15069,0.47711 z m -4.32208,-0.0842 q -0.67358,0 -1.17875,-0.50517 -0.47712,-0.50518 -0.47712,-1.20682 0,-0.70164 0.47712,-1.17875 0.50517,-0.50518 1.17875,-0.50518 0.70163,0 1.17875,0.50518 0.47711,0.47711 0.47711,1.17875 0,0.70164 -0.47711,1.20682 -0.47712,0.50517 -1.17875,0.50517 z"
         style="font-family:'linja lipamanka';-inkscape-font-specification:'linja lipamanka'"
         id="path6550" /></g><path
       id="path4687-0"
       d="m 464.10046,345.18872 -0.003,-0.30204 -0.003,-0.30202 -0.0806,-0.006 c -0.35391,-0.0251 -0.6697,-0.28791 -0.72551,-0.6039 l -0.008,-0.0427 h -0.50788 -0.50787 l -0.008,0.0485 c -0.11765,0.79954 -1.46035,0.78781 -1.62247,-0.0141 l -0.008,-0.0343 h -0.43256 -0.43255 l -0.0133,0.0661 c 0.0773,0.4127 -0.52199,0.58714 -0.79965,0.58629 v -1.3e-4 l -0.0806,-0.006 c -0.35389,-0.0251 -0.66969,-0.28792 -0.72549,-0.6039 l -0.008,-0.0427 h -0.50788 -0.50789 l -0.008,0.0484 c -0.11764,0.79955 -1.46034,0.78781 -1.62247,-0.0141 l -0.008,-0.0343 h -0.43255 -0.43257 l -0.0132,0.0661 c -0.15044,0.75638 -1.40523,0.77452 -1.60475,0.0232 l -0.0238,-0.0893 h -0.39001 -0.39 v 0.0213 c 0,0.0883 -0.0923,0.27218 -0.18617,0.37079 -0.43905,0.46129 -1.29339,0.27077 -1.43284,-0.31952 l -0.0171,-0.0726 h -0.38854 -0.38854 l -0.0132,0.0662 c -0.152,0.76431 -1.4295,0.77072 -1.60969,0.008 l -0.0175,-0.0742 h -0.38845 -0.38844 l -0.0132,0.065 c -0.15632,0.77409 -1.45562,0.76845 -1.61463,-0.007 l -0.0119,-0.058 h -0.39104 -0.39104 v 0.0211 c 0,0.13179 -0.14674,0.36103 -0.29994,0.4686 -0.48626,0.34141 -1.21335,0.10522 -1.32315,-0.42977 l -0.0123,-0.0599 h -0.43161 -0.43161 l -0.0193,0.0798 c -0.14283,0.59242 -1.01428,0.77343 -1.44121,0.29934 -0.0881,-0.0979 -0.17752,-0.28035 -0.17752,-0.36238 0,-0.0159 -0.0172,-0.0168 -0.34677,-0.0168 h -0.34677 l -0.0185,0.0762 c -0.16291,0.67208 -1.19518,0.7846 -1.53932,0.16781 -0.0349,-0.0627 -0.0802,-0.19083 -0.0802,-0.22721 0,-0.016 -0.0197,-0.0169 -0.43392,-0.0169 h -0.43393 l -0.008,0.0427 c -0.14099,0.79828 -1.48196,0.79828 -1.62292,0 l -0.008,-0.0427 h -0.34528 -0.34527 l -0.002,0.0935 c -0.008,0.38053 -0.37322,0.70841 -0.79047,0.70918 l -0.0725,1.3e-4 v 0.30135 c 0,0.23333 0.004,0.30205 0.0134,0.30446 0.008,0.002 0.0448,0.008 0.0833,0.0141 0.86165,0.13517 0.85709,1.28034 -0.006,1.42239 l -0.091,0.015 v 0.33942 0.33941 l 0.0403,0.006 c 0.57168,0.0834 0.87738,0.60002 0.62048,1.0487 -0.12437,0.21721 -0.31549,0.33588 -0.63122,0.39196 l -0.0295,0.005 v 0.30048 0.30048 l 0.0403,0.005 c 0.91982,0.12399 0.94454,1.29147 0.0305,1.43872 l -0.0707,0.0114 v 0.3391 0.33911 l 0.0709,0.0104 c 0.89574,0.13245 0.88801,1.34146 -0.009,1.42914 l -0.0617,0.006 v 0.38106 0.38106 l 0.0725,0.0107 c 0.8956,0.1321 0.88782,1.32074 -0.009,1.4304 l -0.0578,0.007 -0.003,0.34224 -0.003,0.34224 0.0734,0.01 c 0.56881,0.076 0.8702,0.6965 0.54143,1.11458 -0.14142,0.17985 -0.39872,0.3211 -0.5849,0.3211 h -0.0299 l 0.003,0.38038 0.003,0.38037 0.0806,0.0125 c 0.55686,0.0863 0.8456,0.67341 0.54074,1.0996 -0.1252,0.175 -0.41027,0.33499 -0.59694,0.33499 h -0.0298 v 0.34171 0.3417 l 0.0403,0.005 c 0.9525,0.13287 0.94388,1.28754 -0.0107,1.44135 l -0.0295,0.004 v 0.37805 0.37799 l 0.0403,0.005 c 0.9582,0.13367 0.94536,1.28281 -0.0161,1.44218 l -0.0242,0.003 v 0.37826 0.37827 l 0.0295,0.004 c 0.43907,0.0707 0.72255,0.35356 0.72255,0.72088 0,0.36767 -0.28307,0.65009 -0.72255,0.72087 l -0.0295,0.004 v 0.37827 0.37827 l 0.0295,0.004 c 0.95518,0.15387 0.96379,1.30843 0.0107,1.44135 l -0.0403,0.005 v 0.33942 0.33943 l 0.091,0.015 c 0.86136,0.14185 0.86592,1.28919 0.006,1.42248 -0.0383,0.006 -0.0758,0.0122 -0.0832,0.014 -0.0103,0.003 -0.0134,0.0711 -0.0134,0.30406 v 0.30091 l 0.0403,0.005 c 0.92998,0.12974 0.9472,1.28153 0.0215,1.43671 l -0.0617,0.0104 v 0.3356 0.33559 l 0.0886,0.006 c 0.3892,0.0274 0.67622,0.25287 0.7649,0.60079 l 0.007,0.0251 h 0.34859 0.34876 l 0.007,-0.0251 c 0.0933,-0.36581 0.40827,-0.59836 0.81056,-0.59836 0.40261,0 0.71724,0.23228 0.81055,0.59836 l 0.007,0.0251 h 0.43527 c 0.33922,0 0.43603,-0.003 0.4387,-0.0115 0.002,-0.006 0.0115,-0.0402 0.0214,-0.0753 0.19874,-0.70863 1.40694,-0.70516 1.58605,0.004 0.008,0.0276 0.015,0.0574 0.0178,0.0662 0.008,0.0207 0.69999,0.0252 0.70619,0.004 0.002,-0.006 0.0115,-0.0402 0.0214,-0.0753 0.20959,-0.74727 1.40727,-0.70122 1.60163,0.0616 l 0.007,0.0251 h 0.43526 c 0.33895,0 0.43616,-0.003 0.43924,-0.0115 0.002,-0.006 0.0115,-0.0402 0.0209,-0.0753 0.17641,-0.65904 1.24762,-0.72539 1.54631,-0.0958 0.0255,0.0537 0.0334,0.0764 0.0549,0.15738 l 0.007,0.0251 h 0.39229 c 0.30456,0 0.39319,-0.003 0.39626,-0.0115 0.002,-0.006 0.0117,-0.0402 0.0213,-0.0753 0.19726,-0.726 1.42007,-0.69979 1.59616,0.0342 l 0.0126,0.0524 h 0.39175 c 0.30412,0 0.39262,-0.003 0.39568,-0.0115 0.002,-0.006 0.0117,-0.0399 0.0212,-0.0748 0.19451,-0.71251 1.45024,-0.69853 1.59121,0.0177 0.015,0.0761 -0.0295,0.0689 0.41056,0.0662 l 0.393,-0.003 0.0195,-0.0702 c 0.20532,-0.73895 1.41866,-0.72195 1.59927,0.0224 l 0.0128,0.0525 0.39298,-0.003 0.39296,-0.003 0.0195,-0.0702 c 0.20535,-0.73903 1.41867,-0.72211 1.59917,0.0223 l 0.0127,0.0524 h 0.4373 0.43729 l 0.0132,-0.0593 c 0.16712,-0.74808 1.42102,-0.7427 1.60282,0.007 l 0.0127,0.0524 0.50691,-1e-4 0.50691,-9e-5 0.002,-0.0797 v -10e-5 c 0.0413,-0.24087 0.439,-0.53099 0.76616,-0.5399 0.35206,0.004 0.7551,0.1947 0.84549,0.56743 l 0.0128,0.0524 h 0.43729 0.43731 l 0.0132,-0.0593 c 0.16711,-0.74808 1.42102,-0.74269 1.60281,0.007 l 0.0127,0.0524 0.50691,-1e-4 0.50692,-9e-5 0.002,-0.0797 v -10e-5 c 0.0107,-0.36117 0.37968,-0.69549 0.7676,-0.69549 h 0.052 v -0.37861 -0.37861 h -0.0381 c -0.99184,0 -1.03021,-1.37658 -0.0403,-1.44765 l 0.0784,-0.005 v -0.29809 -0.29809 l -0.0949,-0.0108 c -0.95002,-0.1074 -0.96399,-1.31053 -0.0168,-1.44144 l 0.11158,-0.0154 v -0.33527 -0.33528 h -0.0382 c -0.99231,0 -1.03067,-1.37659 -0.0403,-1.44765 l 0.0785,-0.005 v -0.37727 -0.37727 h -0.0382 c -0.3453,0 -0.68756,-0.25799 -0.76857,-0.57933 -0.10551,-0.41858 0.29228,-0.87126 0.76564,-0.87126 h 0.041 v -0.37735 -0.37735 l -0.0725,-0.006 c -0.97947,-0.0843 -0.98473,-1.37367 -0.007,-1.44392 l 0.0785,-0.005 v -0.37594 -0.37593 l -0.0793,-0.006 c -0.96945,-0.0695 -0.96937,-1.37493 1.1e-4,-1.44455 l 0.0793,-0.006 v -0.33507 -0.33508 l -0.0336,-0.006 c -0.0185,-0.003 -0.0466,-0.006 -0.0625,-0.006 -0.16251,0 -0.42356,-0.12838 -0.54648,-0.26879 -0.39578,-0.45204 -0.0939,-1.1018 0.54544,-1.17405 l 0.0971,-0.011 v -0.37133 -0.37133 l -0.0241,-0.005 c -0.0133,-0.003 -0.0408,-0.005 -0.0612,-0.005 -0.17385,-4.5e-4 -0.42761,-0.12342 -0.55621,-0.26921 -0.40281,-0.45672 -0.0817,-1.12131 0.56894,-1.17769 l 0.0725,-0.006 v -0.33466 -0.33465 l -0.0949,-0.0108 c -0.96155,-0.10871 -0.95137,-1.37367 0.0116,-1.44007 l 0.0833,-0.006 v -0.37599 -0.37601 l -0.068,-0.006 c -0.98925,-0.0861 -0.97518,-1.4472 0.015,-1.4472 h 0.0531 v -0.34212 -0.34211 h -0.0574 c -0.98184,0 -0.99618,-1.36911 -0.0152,-1.44738 l 0.0725,-0.006 v -0.29842 -0.2984 l -0.0779,-0.005 c -0.98073,-0.0708 -0.95318,-1.44766 0.029,-1.44766 h 0.0489 v -0.29915 -0.29914 l -0.11065,-0.0149 c -0.94982,-0.12794 -0.92583,-1.38161 0.0274,-1.43726 z"
       fill="#f2f2f2"
       style="stroke-width:0.00990043" /><path
       style="display:inline;fill:#ffffff;fill-opacity:1;stroke:#000000;stroke-width:1.01058;stroke-linecap:round;stroke-linejoin:round;stroke-miterlimit:4;stroke-dasharray:none;stroke-dashoffset:3.003;stroke-opacity:1"
       d="m 436.71239,346.68711 0.85682,24.79233 h 23.99081 v -25.4873 z"
       id="path3802-3"
       inkscape:connector-curvature="0"
       sodipodi:nodetypes="ccccc" /><g
       aria-label="soweli"
       transform="scale(0.98602225,1.0141759)"
       id="text6530-6"
       style="font-size:28.0655px;font-family:Nishiki-teki-lili;-inkscape-font-specification:Nishiki-teki-lili;stroke:#000000;stroke-width:0.5;stroke-linecap:round;stroke-linejoin:round;stop-color:#000000"><path
         d="m 458.34473,363.33778 h -0.0842 q -0.84197,0 -1.03843,-1.01036 l -0.0281,-1.45941 q 0,-1.59973 0.16839,-4.60274 0.0842,-0.78583 0.8981,-0.98229 1.06648,-0.11226 2.2733,-0.42098 1.23488,-0.30872 2.13298,-0.92617 0.92616,-0.6455 0.92616,-1.82425 0,-0.58938 -0.16839,-1.23488 -0.1684,-0.64551 -0.58938,-1.26295 -0.39291,-0.64551 -1.12262,-1.20682 -0.70164,-0.58937 -1.79619,-1.01036 -1.06649,-0.44904 -2.61009,-0.70163 -1.51554,-0.28066 -3.53625,-0.28066 -1.31908,0 -1.76813,0.0561 -0.42098,0.0281 -0.56131,0.0561 -0.0842,0.0281 -0.67357,0.0281 -0.9823,0 -1.09456,-1.09456 0,-0.39291 0.28066,-0.70163 0.28065,-0.30872 0.70164,-0.33679 1.76812,-0.14033 3.28366,-0.14033 3.22753,0.0561 5.38857,0.67357 2.18911,0.58938 3.48013,1.59974 1.31908,0.98229 1.96458,2.16104 0.67357,1.17875 0.87003,2.3575 0.11226,0.53325 0.11226,1.01036 0,1.43134 -0.6455,2.38557 -0.64551,0.92616 -1.6278,1.48747 -0.98229,0.56131 -2.07685,0.87003 -1.06649,0.28066 -1.96458,0.42098 -0.0842,2.55396 -0.0842,5.02373 0,0.84196 -1.01036,1.06649 z m -4.0695,-0.36485 q -0.44904,-0.0281 -0.75776,-0.30872 -0.30872,-0.30873 -0.30872,-0.75777 v -5.94989 q 0.0842,-0.98229 1.06648,-1.06649 0.9823,0.0842 1.06649,1.06649 v 5.94989 q 0,0.44904 -0.30872,0.75777 -0.30872,0.30872 -0.75777,0.30872 z m -3.95723,0.16839 q -0.44905,0 -0.78583,-0.30872 -0.30873,-0.30872 -0.30873,-0.75777 l -0.11226,-5.86569 q 0,-0.84196 1.03843,-1.03842 0.89809,0 1.09455,1.06649 l 0.11226,5.80955 q 0,0.87003 -1.03842,1.09456 z m -3.92917,-0.25259 q -0.44905,-0.0281 -0.75777,-0.33679 -0.30872,-0.30872 -0.30872,-0.75777 v -5.80955 q 0.0842,-0.95423 1.06649,-1.06649 0.44905,0.0281 0.75777,0.33678 0.30872,0.30872 0.30872,0.72971 v 5.80955 q -0.0842,0.9823 -1.06649,1.09456 z m 14.20114,-9.82293 q -0.70164,0 -1.17875,-0.47711 -0.47711,-0.50518 -0.47711,-1.20682 0,-0.70163 0.47711,-1.20681 0.47711,-0.50518 1.17875,-0.50518 0.67357,0 1.15069,0.50518 0.50518,0.50518 0.50518,1.20681 0,0.70164 -0.50518,1.20682 -0.47712,0.47711 -1.15069,0.47711 z m -4.32208,-0.0842 q -0.67358,0 -1.17876,-0.50518 -0.47711,-0.50518 -0.47711,-1.20682 0,-0.70164 0.47711,-1.17875 0.50518,-0.50518 1.17876,-0.50518 0.70163,0 1.17875,0.50518 0.47711,0.47711 0.47711,1.17875 0,0.70164 -0.47711,1.20682 -0.47712,0.50518 -1.17875,0.50518 z"
         style="font-family:'linja lipamanka';-inkscape-font-specification:'linja lipamanka'"
         id="path6547" /></g><path
       id="path4687-9"
       d="m 463.82289,375.27184 -0.003,-0.30204 -0.003,-0.30202 -0.0806,-0.006 c -0.35391,-0.0251 -0.6697,-0.28791 -0.72551,-0.6039 l -0.008,-0.0427 h -0.50788 -0.50787 l -0.008,0.0485 c -0.11765,0.79954 -1.46035,0.78781 -1.62247,-0.0141 l -0.008,-0.0343 h -0.43256 -0.43255 l -0.0133,0.0661 c 0.0773,0.4127 -0.52199,0.58714 -0.79965,0.58629 v -1.3e-4 l -0.0806,-0.006 c -0.35389,-0.0251 -0.66969,-0.28792 -0.72549,-0.6039 l -0.008,-0.0427 h -0.50788 -0.50789 l -0.008,0.0484 c -0.11764,0.79955 -1.46034,0.78781 -1.62247,-0.0141 l -0.008,-0.0343 h -0.43255 -0.43257 l -0.0132,0.0661 c -0.15044,0.75638 -1.40523,0.77452 -1.60475,0.0232 l -0.0238,-0.0893 h -0.39001 -0.39 v 0.0213 c 0,0.0883 -0.0923,0.27218 -0.18617,0.37079 -0.43905,0.46129 -1.29339,0.27077 -1.43284,-0.31952 l -0.0171,-0.0726 h -0.38854 -0.38854 l -0.0132,0.0662 c -0.152,0.76431 -1.4295,0.77072 -1.60969,0.008 l -0.0175,-0.0742 h -0.38845 -0.38844 l -0.0132,0.065 c -0.15632,0.77409 -1.45562,0.76845 -1.61463,-0.007 l -0.0119,-0.058 h -0.39104 -0.39104 v 0.0211 c 0,0.13179 -0.14674,0.36103 -0.29994,0.4686 -0.48626,0.34141 -1.21335,0.10522 -1.32315,-0.42977 l -0.0123,-0.0599 h -0.43161 -0.43161 l -0.0193,0.0798 c -0.14283,0.59242 -1.01428,0.77343 -1.44121,0.29934 -0.0881,-0.0979 -0.17752,-0.28035 -0.17752,-0.36238 0,-0.0159 -0.0172,-0.0168 -0.34677,-0.0168 h -0.34677 l -0.0185,0.0762 c -0.16291,0.67208 -1.19518,0.7846 -1.53932,0.16781 -0.0349,-0.0627 -0.0802,-0.19083 -0.0802,-0.22721 0,-0.016 -0.0197,-0.0169 -0.43392,-0.0169 h -0.43393 l -0.008,0.0427 c -0.14099,0.79828 -1.48196,0.79828 -1.62292,0 l -0.008,-0.0427 h -0.34528 -0.34527 l -0.002,0.0935 c -0.008,0.38053 -0.37322,0.70841 -0.79047,0.70918 l -0.0725,1.3e-4 v 0.30135 c 0,0.23333 0.004,0.30205 0.0134,0.30446 0.008,0.002 0.0448,0.008 0.0833,0.0141 0.86165,0.13517 0.85709,1.28034 -0.006,1.42239 l -0.091,0.015 v 0.33942 0.33941 l 0.0403,0.006 c 0.57168,0.0834 0.87738,0.60002 0.62048,1.0487 -0.12437,0.21721 -0.31549,0.33588 -0.63122,0.39196 l -0.0295,0.005 v 0.30048 0.30048 l 0.0403,0.005 c 0.91982,0.12399 0.94454,1.29147 0.0305,1.43872 l -0.0707,0.0114 v 0.3391 0.33911 l 0.0709,0.0104 c 0.89574,0.13245 0.88801,1.34146 -0.009,1.42914 l -0.0617,0.006 v 0.38106 0.38106 l 0.0725,0.0107 c 0.8956,0.1321 0.88782,1.32074 -0.009,1.4304 l -0.0578,0.007 -0.003,0.34224 -0.003,0.34224 0.0734,0.01 c 0.56881,0.076 0.8702,0.6965 0.54143,1.11458 -0.14142,0.17985 -0.39872,0.3211 -0.5849,0.3211 h -0.0299 l 0.003,0.38038 0.003,0.38037 0.0806,0.0125 c 0.55686,0.0863 0.8456,0.67341 0.54074,1.0996 -0.1252,0.175 -0.41027,0.33499 -0.59694,0.33499 h -0.0298 v 0.34171 0.3417 l 0.0403,0.005 c 0.9525,0.13287 0.94388,1.28754 -0.0107,1.44135 l -0.0295,0.004 v 0.37805 0.37799 l 0.0403,0.005 c 0.9582,0.13367 0.94536,1.28281 -0.0161,1.44218 l -0.0242,0.003 v 0.37826 0.37827 l 0.0295,0.004 c 0.43907,0.0707 0.72255,0.35356 0.72255,0.72088 0,0.36767 -0.28307,0.65009 -0.72255,0.72087 l -0.0295,0.004 v 0.37827 0.37827 l 0.0295,0.004 c 0.95518,0.15387 0.96379,1.30843 0.0107,1.44135 l -0.0403,0.005 v 0.33942 0.33943 l 0.091,0.015 c 0.86136,0.14185 0.86592,1.28919 0.006,1.42248 -0.0383,0.006 -0.0758,0.0122 -0.0832,0.014 -0.0103,0.003 -0.0134,0.0711 -0.0134,0.30406 v 0.30091 l 0.0403,0.005 c 0.92998,0.12974 0.9472,1.28153 0.0215,1.43671 l -0.0617,0.0104 v 0.3356 0.33559 l 0.0886,0.006 c 0.3892,0.0274 0.67622,0.25287 0.7649,0.60079 l 0.007,0.0251 h 0.34859 0.34876 l 0.007,-0.0251 c 0.0933,-0.36581 0.40827,-0.59836 0.81056,-0.59836 0.40261,0 0.71724,0.23228 0.81055,0.59836 l 0.007,0.0251 h 0.43527 c 0.33922,0 0.43603,-0.003 0.4387,-0.0115 0.002,-0.006 0.0115,-0.0402 0.0214,-0.0753 0.19874,-0.70863 1.40694,-0.70516 1.58605,0.004 0.008,0.0276 0.015,0.0574 0.0178,0.0662 0.008,0.0207 0.69999,0.0252 0.70619,0.004 0.002,-0.006 0.0115,-0.0402 0.0214,-0.0753 0.20959,-0.74727 1.40727,-0.70122 1.60163,0.0616 l 0.007,0.0251 h 0.43526 c 0.33895,0 0.43616,-0.003 0.43924,-0.0115 0.002,-0.006 0.0115,-0.0402 0.0209,-0.0753 0.17641,-0.65904 1.24762,-0.72539 1.54631,-0.0958 0.0255,0.0537 0.0334,0.0764 0.0549,0.15738 l 0.007,0.0251 h 0.39229 c 0.30456,0 0.39319,-0.003 0.39626,-0.0115 0.002,-0.006 0.0117,-0.0402 0.0213,-0.0753 0.19726,-0.726 1.42007,-0.69979 1.59616,0.0342 l 0.0126,0.0524 h 0.39175 c 0.30412,0 0.39262,-0.003 0.39568,-0.0115 0.002,-0.006 0.0117,-0.0399 0.0212,-0.0748 0.19451,-0.71251 1.45024,-0.69853 1.59121,0.0177 0.015,0.0761 -0.0295,0.0689 0.41056,0.0662 l 0.393,-0.003 0.0195,-0.0702 c 0.20532,-0.73895 1.41866,-0.72195 1.59927,0.0224 l 0.0128,0.0525 0.39298,-0.003 0.39296,-0.003 0.0195,-0.0702 c 0.20535,-0.73903 1.41867,-0.72211 1.59917,0.0223 l 0.0127,0.0524 h 0.4373 0.43729 l 0.0132,-0.0593 c 0.16712,-0.74808 1.42102,-0.7427 1.60282,0.007 l 0.0127,0.0524 0.50691,-1e-4 0.50691,-9e-5 0.002,-0.0797 v -10e-5 c 0.0413,-0.24087 0.439,-0.53099 0.76616,-0.5399 0.35206,0.004 0.7551,0.1947 0.84549,0.56743 l 0.0128,0.0524 h 0.43729 0.43731 l 0.0132,-0.0593 c 0.16711,-0.74808 1.42102,-0.74269 1.60281,0.007 l 0.0127,0.0524 0.50691,-10e-5 0.50692,-9e-5 0.002,-0.0797 v -10e-5 c 0.0107,-0.36117 0.37968,-0.69549 0.7676,-0.69549 h 0.052 v -0.37861 -0.37861 h -0.0381 c -0.99184,0 -1.03021,-1.37658 -0.0403,-1.44765 l 0.0784,-0.005 v -0.29809 -0.29809 l -0.0949,-0.0108 c -0.95002,-0.1074 -0.96399,-1.31053 -0.0168,-1.44144 l 0.11158,-0.0154 v -0.33527 -0.33528 h -0.0382 c -0.99231,0 -1.03067,-1.37659 -0.0403,-1.44765 l 0.0785,-0.005 v -0.37727 -0.37727 h -0.0382 c -0.3453,0 -0.68756,-0.25799 -0.76857,-0.57933 -0.10551,-0.41858 0.29228,-0.87126 0.76564,-0.87126 h 0.041 v -0.37735 -0.37735 l -0.0725,-0.006 c -0.97947,-0.0843 -0.98473,-1.37367 -0.007,-1.44392 l 0.0785,-0.005 v -0.37594 -0.37593 l -0.0793,-0.006 c -0.96945,-0.0695 -0.96937,-1.37493 1.1e-4,-1.44455 l 0.0793,-0.006 v -0.33507 -0.33508 l -0.0336,-0.006 c -0.0185,-0.003 -0.0466,-0.006 -0.0625,-0.006 -0.16251,0 -0.42356,-0.12838 -0.54648,-0.26879 -0.39578,-0.45204 -0.0939,-1.1018 0.54544,-1.17405 l 0.0971,-0.011 v -0.37133 -0.37133 l -0.0241,-0.005 c -0.0133,-0.003 -0.0408,-0.005 -0.0612,-0.005 -0.17385,-4.5e-4 -0.42761,-0.12342 -0.55621,-0.26921 -0.40281,-0.45672 -0.0817,-1.12131 0.56894,-1.17769 l 0.0725,-0.006 v -0.33466 -0.33465 l -0.0949,-0.0108 c -0.96155,-0.10871 -0.95137,-1.37367 0.0116,-1.44007 l 0.0833,-0.006 v -0.37599 -0.37601 l -0.068,-0.006 c -0.98925,-0.0861 -0.97518,-1.4472 0.015,-1.4472 h 0.0531 v -0.34212 -0.34211 h -0.0574 c -0.98184,0 -0.99618,-1.36911 -0.0152,-1.44738 l 0.0725,-0.006 v -0.29842 -0.2984 l -0.0779,-0.005 c -0.98073,-0.0708 -0.95318,-1.44766 0.029,-1.44766 h 0.0489 v -0.29915 -0.29914 l -0.11065,-0.0149 c -0.94982,-0.12794 -0.92583,-1.38161 0.0274,-1.43726 z"
       fill="#f2f2f2"
       style="stroke-width:0.00990043" /><path
       style="display:inline;fill:#ffffff;fill-opacity:1;stroke:#000000;stroke-width:1.01058;stroke-linecap:round;stroke-linejoin:round;stroke-miterlimit:4;stroke-dasharray:none;stroke-dashoffset:3.003;stroke-opacity:1"
       d="m 436.43482,376.77023 0.85682,24.79233 h 23.99081 v -25.4873 z"
       id="path3802-2"
       inkscape:connector-curvature="0"
       sodipodi:nodetypes="ccccc" /><g
       aria-label="soweli"
       transform="scale(0.98602225,1.0141759)"
       id="text6530-65"
       style="font-size:28.0655px;font-family:Nishiki-teki-lili;-inkscape-font-specification:Nishiki-teki-lili;stroke:#000000;stroke-width:0.5;stroke-linecap:round;stroke-linejoin:round;stop-color:#000000"><path
         d="m 458.06321,393.00041 h -0.0842 q -0.84196,0 -1.03842,-1.01036 l -0.0281,-1.45941 q 0,-1.59973 0.1684,-4.60274 0.0842,-0.78583 0.89809,-0.98229 1.06649,-0.11227 2.27331,-0.42099 1.23488,-0.30872 2.13297,-0.92616 0.92617,-0.6455 0.92617,-1.82425 0,-0.58938 -0.1684,-1.23489 -0.16839,-0.6455 -0.58937,-1.26294 -0.39292,-0.64551 -1.12262,-1.20682 -0.70164,-0.58938 -1.79619,-1.01036 -1.06649,-0.44905 -2.6101,-0.70164 -1.51553,-0.28065 -3.53625,-0.28065 -1.31908,0 -1.76813,0.0561 -0.42098,0.0281 -0.56131,0.0561 -0.0842,0.0281 -0.67357,0.0281 -0.98229,0 -1.09455,-1.09456 0,-0.39292 0.28065,-0.70164 0.28066,-0.30872 0.70164,-0.33678 1.76813,-0.14033 3.28366,-0.14033 3.22754,0.0561 5.38858,0.67357 2.18911,0.58938 3.48012,1.59974 1.31908,0.98229 1.96459,2.16104 0.67357,1.17875 0.87003,2.3575 0.11226,0.53325 0.11226,1.01036 0,1.43134 -0.64551,2.38557 -0.6455,0.92616 -1.6278,1.48747 -0.98229,0.56131 -2.07684,0.87003 -1.06649,0.28065 -1.96459,0.42098 -0.0842,2.55396 -0.0842,5.02373 0,0.84196 -1.01036,1.06649 z m -4.0695,-0.36486 q -0.44905,-0.0281 -0.75777,-0.30872 -0.30872,-0.30872 -0.30872,-0.75776 v -5.94989 q 0.0842,-0.98229 1.06649,-1.06649 0.98229,0.0842 1.06649,1.06649 v 5.94989 q 0,0.44904 -0.30872,0.75776 -0.30872,0.30872 -0.75777,0.30872 z m -3.95724,0.1684 q -0.44904,0 -0.78583,-0.30872 -0.30872,-0.30872 -0.30872,-0.75777 l -0.11226,-5.86569 q 0,-0.84197 1.03842,-1.03843 0.8981,0 1.09456,1.06649 l 0.11226,5.80956 q 0,0.87003 -1.03843,1.09456 z m -3.92917,-0.25259 q -0.44904,-0.0281 -0.75776,-0.33679 -0.30872,-0.30872 -0.30872,-0.75777 v -5.80956 q 0.0842,-0.95422 1.06648,-1.06648 0.44905,0.0281 0.75777,0.33678 0.30872,0.30872 0.30872,0.7297 v 5.80956 q -0.0842,0.9823 -1.06649,1.09456 z m 14.20115,-9.82293 q -0.70164,0 -1.17875,-0.47711 -0.47712,-0.50518 -0.47712,-1.20682 0,-0.70164 0.47712,-1.20681 0.47711,-0.50518 1.17875,-0.50518 0.67357,0 1.15068,0.50518 0.50518,0.50517 0.50518,1.20681 0,0.70164 -0.50518,1.20682 -0.47711,0.47711 -1.15068,0.47711 z m -4.32209,-0.0842 q -0.67357,0 -1.17875,-0.50518 -0.47711,-0.50518 -0.47711,-1.20682 0,-0.70164 0.47711,-1.17875 0.50518,-0.50518 1.17875,-0.50518 0.70164,0 1.17875,0.50518 0.47712,0.47711 0.47712,1.17875 0,0.70164 -0.47712,1.20682 -0.47711,0.50518 -1.17875,0.50518 z"
         style="font-family:'linja lipamanka';-inkscape-font-specification:'linja lipamanka'"
         id="path6544" /></g><path
       style="fill:#831b1b;stroke-width:0.0816985;fill-opacity:1"
       d="m 295.90478,392.58065 c -0.098,-2.55472 -0.37076,-4.72661 -0.86716,-6.90264 -0.13798,-0.60476 -0.26912,-1.15798 -0.29145,-1.22938 -0.0351,-0.11213 0.0127,-0.12113 0.35013,-0.066 0.50041,0.0819 1.42775,0.0819 1.92731,2.2e-4 0.2141,-0.035 0.38926,-0.0584 0.38926,-0.0519 0,0.007 -0.10919,0.48628 -0.24251,1.06626 -0.56025,2.4361 -0.81191,4.36209 -0.87208,6.67436 -0.047,1.80561 -0.0686,1.99546 -0.22717,1.99546 -0.0852,0 -0.122,-0.32958 -0.16633,-1.48642 z m 2.89998,0.6923 c -0.005,-2.67639 -0.53037,-6.56848 -1.19279,-8.82432 -0.0329,-0.11201 0.0157,-0.12106 0.3526,-0.066 0.50041,0.0819 1.42775,0.0819 1.92731,2.2e-4 0.21409,-0.035 0.38926,-0.0358 0.38926,-0.001 0,0.0341 -0.0911,0.44062 -0.20249,0.90337 -0.55017,2.28604 -0.84902,4.57642 -0.92008,7.05169 -0.0463,1.61111 -0.0602,1.73076 -0.20111,1.73076 -0.13682,0 -0.15155,-0.0765 -0.1527,-0.79411 z m 2.84289,-0.85519 c -0.0781,-2.45703 -0.31292,-4.32828 -0.83634,-6.66533 -0.15637,-0.69818 -0.2843,-1.29341 -0.2843,-1.32273 0,-0.0293 0.37799,-0.0318 0.83999,-0.006 0.462,0.0262 1.05203,0.0131 1.31121,-0.0292 0.29848,-0.0487 0.47121,-0.0484 0.47121,6.5e-4 0,0.0427 -0.0572,0.29722 -0.12717,0.5655 -0.07,0.26827 -0.11518,0.52376 -0.10046,0.56774 0.0231,0.0689 0.74275,-0.69035 3.95629,-4.17397 0.45629,-0.49467 0.60237,-0.60736 0.71406,-0.55088 0.12318,0.0623 0.0694,0.18789 -0.43867,1.02391 -0.71178,1.17133 -2.11928,3.78139 -2.11928,3.92998 0,0.15119 1.11597,2.2486 1.94451,3.65459 0.62364,1.05826 0.7503,1.39652 0.52295,1.39652 -0.0429,0 -0.21931,-0.16018 -0.39183,-0.35597 -0.76115,-0.86374 -3.94777,-4.33823 -4.07385,-4.44189 -0.0827,-0.068 -0.16829,-0.0845 -0.21031,-0.0407 -0.0988,0.103 -0.46373,2.27987 -0.62014,3.69833 -0.0715,0.64954 -0.15242,1.90485 -0.17957,2.78957 -0.0441,1.43565 -0.0642,1.60858 -0.18766,1.60858 -0.12349,0 -0.14392,-0.17666 -0.19074,-1.6493 z m 114.8072,0.38246 c -0.065,-0.62974 -0.35678,-1.58502 -0.78174,-2.55881 l -0.30569,-0.70048 h 1.29948 c 0.86606,0 1.28682,0.0282 1.26146,0.0844 -0.59529,1.32018 -0.94053,2.39235 -1.06964,3.32188 -0.0415,0.29852 -0.0874,0.38687 -0.20129,0.38687 -0.12151,0 -0.15729,-0.0942 -0.20258,-0.53382 z m -70.6642,-0.39229 c -0.17254,-0.19578 -1.14086,-1.26344 -2.15183,-2.37259 -1.51954,-1.66708 -1.84819,-1.98957 -1.8962,-1.8606 -0.0872,0.23448 -0.24028,2.5095 -0.24028,3.57274 0,0.85408 -0.013,0.93498 -0.151,0.93498 -0.14002,0 -0.15482,-0.1201 -0.20346,-1.6493 -0.0562,-1.76601 -0.20073,-3.25677 -0.46803,-4.82576 -0.23721,-1.39241 -0.51716,-2.58968 -0.60439,-2.58487 -0.0913,0.005 -0.79506,1.21092 -1.64281,2.81479 l -0.63186,1.19541 0.63482,1.20135 c 0.34913,0.66074 0.9581,1.75051 1.35323,2.42169 0.53459,0.90808 0.69617,1.24701 0.63144,1.32452 -0.11797,0.14127 -0.0863,0.17138 -1.81497,-1.72771 -0.81683,-0.8974 -1.76223,-1.91867 -2.10089,-2.26953 l -0.61571,-0.63789 -0.0576,0.31211 c -0.0317,0.17166 -0.1039,1.21923 -0.16048,2.32792 -0.0778,1.52388 -0.12834,2.01582 -0.20718,2.01582 -0.15302,0 -0.17536,-0.20072 -0.22208,-1.99546 -0.0606,-2.32601 -0.37214,-4.65732 -0.91275,-6.82883 -0.11096,-0.44591 -0.20184,-0.83422 -0.20184,-0.86292 0,-0.0287 0.29502,-0.018 0.65562,0.0237 0.4182,0.0484 0.90041,0.0465 1.33169,-0.005 0.37185,-0.0446 0.68364,-0.0759 0.69288,-0.0696 0.01,0.007 -0.0544,0.28487 -0.14149,0.61913 -0.34015,1.30626 -0.75936,3.66203 -0.65165,3.66203 0.0337,0 1.0095,-1.02777 2.1683,-2.28393 1.74871,-1.89567 2.12704,-2.26728 2.22557,-2.18603 0.0653,0.0538 0.10088,0.14399 0.0793,0.20029 -0.0217,0.0564 0.0166,0.12375 0.085,0.14984 0.17432,0.0665 1.22205,0.0504 1.68859,-0.0259 0.21409,-0.035 0.38926,-0.0362 0.38926,-0.002 0,0.0338 -0.0927,0.45114 -0.20596,0.92761 -0.2122,0.89255 -0.61639,3.07952 -0.60988,3.29989 0.002,0.0739 0.14314,-0.0275 0.3483,-0.25077 0.18954,-0.20624 1.08216,-1.17252 1.98363,-2.14729 0.90147,-0.97476 1.70644,-1.85948 1.78886,-1.96605 0.12175,-0.15744 0.1798,-0.17784 0.30961,-0.10882 0.0879,0.0468 0.14071,0.11564 0.11742,0.15308 -0.1024,0.16465 1.0713,0.22384 1.86517,0.0941 0.3149,-0.0514 0.38483,-0.0424 0.35091,0.0455 -0.0233,0.0603 -0.17084,0.70537 -0.32787,1.43338 -0.48945,2.26923 -0.71963,4.18515 -0.83177,6.92313 -0.0396,0.96587 -0.0786,1.2828 -0.15821,1.2828 -0.0795,0 -0.11886,-0.31733 -0.15897,-1.2828 -0.11282,-2.71572 -0.42496,-5.22928 -0.89248,-7.18771 l -0.1847,-0.77375 -0.43834,0.73303 c -0.63507,1.06206 -1.89037,3.42145 -1.89026,3.55285 7e-5,0.14985 1.38284,2.7216 2.10502,3.91511 0.40553,0.67021 0.55046,0.97774 0.48937,1.03846 -0.13586,0.13501 -0.18445,0.10972 -0.51885,-0.26971 z m 12.40933,-0.93212 c -0.60505,-0.65783 -1.53037,-1.67911 -2.05627,-2.26951 -0.52588,-0.59041 -1.09208,-1.18483 -1.25822,-1.32093 l -0.30206,-0.24746 0.85638,-0.87815 c 0.47102,-0.48298 1.53155,-1.61821 2.35676,-2.52274 0.98916,-1.08424 1.54033,-1.62935 1.61765,-1.59987 0.18208,0.0695 0.14766,0.16839 -0.30445,0.87497 -0.23194,0.36251 -0.84098,1.43959 -1.35342,2.3935 l -0.93168,1.73438 0.90057,1.6635 c 0.4953,0.91491 1.10434,1.99092 1.35342,2.39109 0.4853,0.77974 0.51607,0.86488 0.33712,0.93313 -0.0745,0.0284 -0.50782,-0.3822 -1.2158,-1.15191 z m 3.94629,0.53208 c -0.34224,-0.36813 -1.11229,-1.21908 -1.7112,-1.89101 -0.59892,-0.67194 -1.3664,-1.50311 -1.70552,-1.84705 l -0.61657,-0.62534 0.51536,-0.55565 c 2.14369,-2.31122 3.8401,-4.15405 3.98709,-4.33121 0.14738,-0.17762 0.19468,-0.19409 0.30234,-0.10528 0.11271,0.093 0.0673,0.20232 -0.38688,0.93424 -0.62596,1.00853 -2.17989,3.89388 -2.17989,4.04765 0,0.1478 1.44129,2.81979 2.13621,3.9603 0.40438,0.66367 0.52859,0.93178 0.46223,0.99773 -0.0499,0.0496 -0.11106,0.089 -0.13581,0.0876 -0.0248,-10e-4 -0.32509,-0.30382 -0.66736,-0.67193 z m 37.24427,0.54884 c 0.10694,-0.27717 0.14903,-1.37398 0.0709,-1.84936 -0.0425,-0.25758 -0.0479,-0.46833 -0.0125,-0.46833 0.0355,0 0.50687,0.10733 1.04742,0.23853 0.54058,0.13119 1.15728,0.26453 1.37046,0.2963 l 0.38763,0.0578 -0.0535,-1.33474 c -0.0809,-2.01881 -0.32557,-3.77966 -0.78551,-5.65109 -0.13206,-0.53736 -0.23164,-0.98543 -0.22129,-0.99572 0.0108,-0.0103 0.25637,0.0199 0.5467,0.067 0.47281,0.0768 1.29932,0.0482 1.76453,-0.0607 l 0.1713,-0.0401 -0.1534,0.59605 c -0.26826,1.04234 -0.54848,2.51833 -0.67752,3.56887 -0.12552,1.0217 -0.30493,3.84054 -0.24804,3.89706 0.12321,0.12246 3.86151,0.41727 5.31112,0.41885 0.64426,6.5e-4 0.7201,0.0163 0.69564,0.14332 -0.0247,0.12832 -0.19902,0.14779 -1.74746,0.19515 -2.79477,0.0855 -5.21828,0.42193 -7.32698,1.01717 -0.16957,0.0478 -0.18972,0.034 -0.13954,-0.0959 z m 21.7915,-0.23456 c -1.11247,-1.26412 -4.05677,-4.43681 -4.21322,-4.54006 l -0.18913,-0.12481 0.85985,-0.88783 c 1.64613,-1.69973 2.00344,-2.10721 1.87013,-2.13272 -0.22625,-0.0432 -2.2952,0.30375 -3.58281,0.60098 -0.69136,0.1596 -1.27051,0.27674 -1.28701,0.26032 -0.0166,-0.0164 0.007,-0.28501 0.0532,-0.59689 0.0756,-0.51603 0.0516,-1.28315 -0.0582,-1.84298 l -0.0426,-0.21714 0.59914,0.15421 c 0.89996,0.23163 2.53076,0.54236 3.59034,0.68411 0.51835,0.0694 1.07761,0.14417 1.24277,0.16629 0.28736,0.0384 0.32645,0.0123 0.90309,-0.60457 0.49218,-0.52651 0.62858,-0.63044 0.74356,-0.56648 0.12676,0.0705 0.10813,0.12976 -0.18601,0.59267 -0.17977,0.28288 -0.32684,0.55053 -0.32684,0.59476 0,0.0803 1.52387,0.18606 2.68989,0.1867 0.52731,2.2e-4 0.59683,0.0177 0.57268,0.14286 -0.0247,0.12844 -0.20488,0.14823 -1.8218,0.20012 -0.98687,0.0317 -1.82256,0.0867 -1.85705,0.12217 -0.12701,0.13076 -1.63231,3.00055 -1.6324,3.1121 0,0.15946 1.07452,2.18499 1.92083,3.62047 0.38582,0.65441 0.7015,1.22299 0.7015,1.26349 0,0.0405 -0.0539,0.0942 -0.11977,0.11933 -0.0745,0.0284 -0.23709,-0.0876 -0.43025,-0.3071 z m -94.57072,-0.0778 c -0.17095,-0.19187 -0.67961,-0.75001 -1.13034,-1.24033 -0.45073,-0.49031 -1.28014,-1.3979 -1.84314,-2.01685 l -1.02363,-1.12536 -0.9022,0.0526 c -2.4741,0.14408 -5.51852,0.58108 -6.84363,0.98235 -0.10543,0.0319 -0.12294,-0.13664 -0.12294,-1.18768 0,-1.18559 0.005,-1.22348 0.16391,-1.18002 1.4059,0.3851 4.48934,0.834 6.26923,0.9127 l 1.10633,0.0489 0.86048,-0.88657 c 0.47326,-0.48761 1.51974,-1.60721 2.32551,-2.488 0.92385,-1.00987 1.5066,-1.5856 1.57756,-1.55855 0.17291,0.0659 0.14085,0.16969 -0.24493,0.7924 -0.54674,0.88253 -0.9536,1.6007 -1.68022,2.96584 l -0.66462,1.24861 0.70966,1.31697 c 0.39031,0.72434 0.99832,1.80033 1.35113,2.39111 0.35283,0.59076 0.6415,1.10911 0.6415,1.1519 0,0.0429 -0.0538,0.0983 -0.11941,0.12333 -0.0738,0.0282 -0.23821,-0.0878 -0.43025,-0.3033 z m 43.64387,-0.85445 c -0.0166,-0.67076 -0.0562,-1.24559 -0.0881,-1.27741 -0.032,-0.0318 -0.28896,-7e-5 -0.57099,0.0705 -0.28203,0.0706 -0.51976,0.12126 -0.52829,0.11258 -0.009,-0.009 0.0221,-0.2174 0.0682,-0.46379 0.0837,-0.44767 0.0435,-1.5423 -0.0671,-1.82882 -0.0627,-0.16248 -0.11155,-0.16294 0.70646,0.007 0.22823,0.0472 0.24578,0.0341 0.24461,-0.18326 -0.002,-0.40363 -0.0853,-0.45948 -0.52166,-0.35029 -0.21165,0.0529 -0.39881,0.0824 -0.4159,0.0655 -0.0171,-0.017 0.006,-0.21412 0.0501,-0.43806 0.0781,-0.39218 0.0385,-1.60492 -0.061,-1.86249 -0.0396,-0.10254 0.003,-0.11666 0.23984,-0.0785 l 0.28809,0.0465 -0.15259,-0.69394 c -0.13863,-0.63049 -0.27485,-1.18782 -0.37449,-1.53219 -0.0324,-0.1119 0.0162,-0.12104 0.35317,-0.0659 0.50042,0.0818 1.42776,0.0819 1.92732,2.1e-4 0.21409,-0.035 0.38926,-0.0431 0.38926,-0.018 0,0.0251 -0.1345,0.62474 -0.2989,1.33254 -0.16439,0.7078 -0.28131,1.30439 -0.25982,1.32576 0.11953,0.11879 4.19819,0.60328 4.29219,0.50985 0.0401,-0.0398 -0.38231,-2.14258 -0.53617,-2.66894 -0.14635,-0.50062 -0.16585,-0.48993 0.79779,-0.43724 0.48454,0.0265 1.07458,0.0123 1.3112,-0.0315 0.23665,-0.0438 0.43026,-0.0542 0.43026,-0.0229 0,0.0313 -0.12581,0.62179 -0.27957,1.3124 -0.15376,0.69061 -0.30431,1.41026 -0.33456,1.59924 l -0.0551,0.34359 1.00968,0.0229 c 0.88567,0.0201 1.01304,0.0405 1.03714,0.16544 0.025,0.12966 -0.0658,0.14255 -1.00491,0.14255 -0.99561,0 -1.03488,0.007 -1.10134,0.18325 -0.0969,0.2578 -0.29247,2.08699 -0.22975,2.14932 0.0285,0.0283 0.57087,0.07 1.20539,0.0926 1.00239,0.0358 1.15034,0.0584 1.12835,0.17223 -0.0217,0.11213 -0.19987,0.13427 -1.23302,0.15355 l -1.20775,0.0226 -0.0108,0.34396 c -0.0819,2.53575 -0.11482,2.95027 -0.23475,2.95027 -0.12211,0 -0.13458,-0.15463 -0.23477,-2.91174 l -0.0108,-0.30543 h -0.45427 c -0.97287,0 -4.65632,0.48871 -4.80882,0.63803 -0.0326,0.0319 -0.0695,0.62477 -0.082,1.31753 -0.0197,1.09137 -0.0407,1.26297 -0.15709,1.28519 -0.11866,0.0226 -0.13789,-0.11709 -0.16432,-1.19394 z m 5.58291,-2.80018 c -9.5e-4,-0.14559 -0.0551,-0.63122 -0.12033,-1.07918 -0.0653,-0.44796 -0.1199,-0.84378 -0.12134,-0.8796 -0.002,-0.0679 -0.29188,-0.0469 -2.13332,0.15458 -1.69855,0.18588 -2.52742,0.34982 -2.57323,0.50896 -0.0214,0.074 -0.0503,0.31618 -0.0644,0.53809 -0.0257,0.40208 -0.0246,0.4037 0.26111,0.46348 0.54077,0.11315 2.66335,0.3976 3.48291,0.46678 1.36901,0.11558 1.27046,0.12904 1.26865,-0.17311 z m 10.21604,2.44341 c -0.061,-1.73281 -0.2106,-3.30747 -0.45749,-4.81276 -0.16088,-0.98082 -0.59166,-2.96264 -0.70963,-3.26465 -0.0485,-0.12433 -0.0332,-0.14596 0.0747,-0.10482 0.27481,0.10482 1.58687,0.15152 2.06423,0.0734 0.27042,-0.0442 0.50456,-0.0682 0.52029,-0.0535 0.0157,0.0148 -0.0836,0.49666 -0.22052,1.07083 -0.53385,2.23729 -0.81867,4.45542 -0.88967,6.92854 -0.0445,1.55145 -0.0641,1.73075 -0.18825,1.73075 -0.1234,0 -0.14458,-0.17151 -0.19367,-1.56785 z m 2.86612,0.97736 c -0.0977,-1.04724 -0.64688,-3.176 -1.07191,-4.15524 -0.0576,-0.13264 -0.0167,-0.13973 0.52048,-0.0901 l 0.58297,0.0538 v -0.30689 c 0,-0.6511 -0.61125,-3.25771 -0.98479,-4.19957 -0.20051,-0.50558 -0.20049,-0.50816 0.006,-0.44325 0.21942,0.0692 2.03303,0.0659 2.31406,-0.003 l 0.21777,-0.0543 -0.19804,0.48437 c -0.35854,0.87697 -0.79685,2.70954 -0.98655,4.12469 l -0.0533,0.39805 0.58037,-0.0568 c 0.3192,-0.0313 0.58036,-0.0333 0.58036,-0.005 0,0.0288 -0.11095,0.36473 -0.24665,0.74671 -0.40703,1.14612 -0.685,2.34432 -0.8609,3.71094 -0.0385,0.29948 -0.083,0.38687 -0.19691,0.38687 -0.12291,0 -0.15615,-0.0971 -0.2022,-0.59049 z m 2.94719,0.40724 c -0.0208,-0.10084 -0.0565,-0.91629 -0.0795,-1.81221 -0.0595,-2.32366 -0.34627,-4.47678 -0.91428,-6.86591 -0.11189,-0.47056 -0.19362,-0.8629 -0.18169,-0.87188 0.0119,-0.009 0.30431,0.0205 0.64972,0.0655 0.42039,0.0548 0.85387,0.0548 1.31122,4e-5 0.37575,-0.0451 0.69075,-0.0766 0.69998,-0.0704 0.01,0.007 -0.0544,0.28487 -0.14157,0.61913 -0.53473,2.05244 -0.86135,4.38813 -0.99896,7.14388 -0.0746,1.49342 -0.12409,1.9751 -0.20296,1.9751 -0.0574,0 -0.12128,-0.0825 -0.14201,-0.18326 z m -65.28014,-2.45334 c 0,-0.6252 -0.39174,-1.8337 -1.11229,-3.43122 -0.0237,-0.0525 0.43854,-0.0814 1.29861,-0.0814 h 1.33533 l -0.34762,0.77376 c -0.36212,0.80601 -0.71647,1.96249 -0.80482,2.62666 -0.0413,0.31093 -0.0826,0.38688 -0.21033,0.38688 -0.12578,0 -0.15888,-0.0571 -0.15888,-0.27463 z m -19.5311,-2.05518 c -0.0504,-0.53701 -0.50231,-1.95375 -0.89344,-2.80137 l -0.20673,-0.44795 h 1.32807 1.32808 l -0.26798,0.58435 c -0.42428,0.92517 -0.77724,2.05586 -0.82823,2.65317 -0.0426,0.49884 -0.0637,0.54978 -0.22808,0.54978 -0.16351,0 -0.18607,-0.0525 -0.23169,-0.53798 z m -12.29297,-4.00271 c 0.0767,-0.29666 0.0772,-1.77383 9.4e-4,-2.15081 l -0.0603,-0.2979 0.59645,0.15352 c 2.24059,0.57669 4.78176,0.91319 7.71656,1.02179 1.33965,0.0496 1.52961,0.0731 1.50775,0.18656 -0.0215,0.11155 -0.25627,0.13733 -1.66305,0.18289 -2.55643,0.0828 -4.79381,0.36688 -6.99414,0.88807 -0.55699,0.13192 -1.04632,0.23986 -1.08741,0.23986 -0.0411,0 -0.0486,-0.10083 -0.0169,-0.22398 z m 1.15005,-8.4609 c -0.0316,-0.0315 -0.0574,-0.20216 -0.0574,-0.37946 0,-0.67533 -0.53407,-2.90794 -0.95876,-4.00793 l -0.15722,-0.40725 1.32835,-6.4e-4 1.32835,-6.5e-4 -0.11108,0.21353 c -0.32956,0.63342 -0.91276,2.95751 -1.00925,4.022 -0.0382,0.42135 -0.0845,0.57546 -0.17851,0.59332 -0.0698,0.0132 -0.15279,-0.001 -0.18439,-0.0331 z m 3.59591,-0.0443 c -0.0186,-0.0593 -0.0566,-0.32584 -0.0843,-0.59227 -0.0588,-0.56443 -0.41703,-1.67106 -0.82527,-2.54921 -0.15765,-0.33912 -0.2771,-0.62347 -0.26547,-0.63191 0.0117,-0.008 0.29774,0.0127 0.63579,0.0469 0.55945,0.0567 1.25207,0.039 1.81303,-0.0462 l 0.21502,-0.0327 -0.39639,0.92956 c -0.446,1.04594 -0.64686,1.72631 -0.72077,2.44138 -0.0387,0.37574 -0.0835,0.49404 -0.19408,0.51508 -0.0789,0.0149 -0.15891,-0.0212 -0.17755,-0.0805 z m 3.6065,-0.007 c -0.0157,-0.056 -0.0719,-0.42828 -0.12457,-0.82731 -0.14608,-1.10405 -0.61571,-2.85054 -1.02043,-3.79482 -0.0453,-0.10562 0.12526,-0.12217 1.26397,-0.12217 1.13281,0 1.31085,0.017 1.2772,0.12217 -0.0216,0.0672 -0.13504,0.39437 -0.2523,0.72704 -0.37696,1.06963 -0.86076,3.25112 -0.86381,3.89509 -3.2e-4,0.056 -0.0569,0.10186 -0.126,0.10186 -0.0689,0 -0.13835,-0.0459 -0.15406,-0.10186 z m -3.65463,-4.11308 c -9.6e-4,-0.62783 -0.53126,-2.33149 -1.01434,-3.26009 l -0.1154,-0.22179 h 1.32888 1.32888 l -0.27117,0.5833 c -0.42379,0.91157 -0.77095,2.02607 -0.82289,2.6416 -0.0442,0.52301 -0.061,0.5624 -0.24042,0.5624 -0.16829,0 -0.19307,-0.0391 -0.19356,-0.30542 z m -2.13014,-0.98706 c 0,-0.8051 -0.6496,-3.46662 -1.09607,-4.49085 -0.0465,-0.10653 0.12062,-0.12275 1.25997,-0.12275 1.13809,0 1.30669,0.0164 1.26273,0.12275 -0.38614,0.93452 -0.88281,2.86001 -1.02432,3.97114 -0.0825,0.64749 -0.11749,0.75339 -0.24914,0.75339 -0.11399,0 -0.15317,-0.0598 -0.15317,-0.23368 z m 4.30362,-0.1532 c -0.17027,-1.32288 -0.596,-3.13469 -0.94092,-4.0044 -0.0916,-0.23108 -0.16662,-0.42795 -0.16661,-0.43749 0,-0.009 0.59113,-0.0192 1.31364,-0.0213 1.15733,-0.003 1.3067,0.0114 1.25542,0.12219 -0.37795,0.81866 -0.9667,3.1115 -1.06243,4.13739 -0.046,0.49341 -0.0794,0.59049 -0.20219,0.59049 -0.11387,0 -0.15836,-0.0874 -0.19691,-0.38687 z"
       id="path23896" /><path
       style="fill:none;fill-opacity:1;stroke:#831b1b;stroke-width:1;stroke-linecap:round;stroke-linejoin:round;stroke-dasharray:none;stroke-opacity:1;stop-color:#000000"
       d="m 292.16317,378.24023 136.375,1.25"
       id="path23961" /><path
       style="fill:none;fill-opacity:1;stroke:#831b1b;stroke-width:1;stroke-linecap:round;stroke-linejoin:round;stroke-dasharray:none;stroke-opacity:1;stop-color:#000000"
       d="m 425.28817,376.24023 1.875,20.875"
       id="path24093" /><path
       style="fill:none;fill-opacity:1;stroke:#831b1b;stroke-width:1;stroke-linecap:round;stroke-linejoin:round;stroke-dasharray:none;stroke-opacity:1;stop-color:#000000"
       d="m 431.16317,395.74023 -140,-0.5"
       id="path24099" /><path
       style="fill:none;fill-opacity:1;stroke:#831b1b;stroke-width:0.823204;stroke-linecap:round;stroke-linejoin:round;stroke-dasharray:none;stroke-opacity:1;stop-color:#000000"
       d="m 293.05267,378.65183 -1.029,17.8018"
       id="path24105" /></g></svg>
