<?xml version="1.0" encoding="UTF-8"?>
<!-- Uploaded to: SVG Repo, www.svgrepo.com, Generator: SVG Repo Mixer Tools -->
<svg aria-hidden="true" fill="var(--loje-laso)" version="1.1" id="Layer_1" xmlns="http://www.w3.org/2000/svg" xmlns:xlink="http://www.w3.org/1999/xlink" width="800px" height="800px" viewBox="0 0 256 201" enable-background="new 0 0 256 201" xml:space="preserve">
<path d="M154.195,61.371V39.514h-12.047v10.777l-14-12.791L81.113,79.601l7.151,8.058l7.252-6.547V130.5h64.897V81.514l7.135,6.547  l7.339-7.856L154.195,61.371z M238.25,143.813V13.875c0-6.523-5.289-11.813-11.813-11.813H29.563  c-6.523,0-11.813,5.289-11.813,11.813v129.938L2,175.313v11.813c0,6.523,5.289,11.813,11.813,11.813h228.375  c6.523,0,11.813-5.289,11.813-11.813v-11.813L238.25,143.813z M104.125,175.313l1.122-11.813h45.752l1.122,11.813H104.125z   M218.563,143.813H37.438V21.75h181.125V143.813z"/>
</svg>