<?xml version="1.0" encoding="UTF-8" standalone="no"?>
<!-- Created with Inkscape (http://www.inkscape.org/) -->

<svg
   width="191.01855"
   height="96.654457"
   id="svg3792"
   version="1.1"
   inkscape:version="1.2.2 (732a01da63, 2022-12-09)"
   sodipodi:docname="lipulasopka.svg"
   xml:space="preserve"
   xmlns:inkscape="http://www.inkscape.org/namespaces/inkscape"
   xmlns:sodipodi="http://sodipodi.sourceforge.net/DTD/sodipodi-0.dtd"
   xmlns="http://www.w3.org/2000/svg"
   xmlns:svg="http://www.w3.org/2000/svg"
   xmlns:rdf="http://www.w3.org/1999/02/22-rdf-syntax-ns#"
   xmlns:cc="http://creativecommons.org/ns#"
   xmlns:dc="http://purl.org/dc/elements/1.1/"><title
     id="title4376">Lettre</title><defs
     id="defs3794"><inkscape:path-effect
       effect="simplify"
       id="path-effect10006"
       is_visible="true"
       lpeversion="1"
       steps="1"
       threshold="0.00243902"
       smooth_angles="360"
       helper_size="0"
       simplify_individual_paths="false"
       simplify_just_coalesce="false" /><inkscape:path-effect
       effect="spiro"
       id="path-effect9899"
       is_visible="true"
       lpeversion="1" /><inkscape:path-effect
       effect="simplify"
       id="path-effect9897"
       is_visible="true"
       lpeversion="1"
       steps="1"
       threshold="0.00108696"
       smooth_angles="360"
       helper_size="0"
       simplify_individual_paths="false"
       simplify_just_coalesce="false" /><filter
       id="filter7649"
       style="color-interpolation-filters:sRGB"
       height="1.026269"
       width="1.0220918"
       y="-0.013134523"
       x="-0.011045884"><feGaussianBlur
         id="feGaussianBlur7651"
         stdDeviation="15.120052" /></filter><inkscape:path-effect
       effect="simplify"
       id="path-effect10006-8"
       is_visible="true"
       lpeversion="1"
       steps="1"
       threshold="0.00243902"
       smooth_angles="360"
       helper_size="0"
       simplify_individual_paths="false"
       simplify_just_coalesce="false" /><inkscape:path-effect
       effect="simplify"
       id="path-effect10006-0"
       is_visible="true"
       lpeversion="1"
       steps="1"
       threshold="0.00243902"
       smooth_angles="360"
       helper_size="0"
       simplify_individual_paths="false"
       simplify_just_coalesce="false" /><inkscape:path-effect
       effect="simplify"
       id="path-effect10006-81"
       is_visible="true"
       lpeversion="1"
       steps="1"
       threshold="0.00243902"
       smooth_angles="360"
       helper_size="0"
       simplify_individual_paths="false"
       simplify_just_coalesce="false" /><inkscape:path-effect
       effect="simplify"
       id="path-effect10006-9"
       is_visible="true"
       lpeversion="1"
       steps="1"
       threshold="0.00243902"
       smooth_angles="360"
       helper_size="0"
       simplify_individual_paths="false"
       simplify_just_coalesce="false" /><inkscape:path-effect
       effect="simplify"
       id="path-effect10006-82"
       is_visible="true"
       lpeversion="1"
       steps="1"
       threshold="0.00243902"
       smooth_angles="360"
       helper_size="0"
       simplify_individual_paths="false"
       simplify_just_coalesce="false" /><inkscape:path-effect
       effect="simplify"
       id="path-effect10006-1"
       is_visible="true"
       lpeversion="1"
       steps="1"
       threshold="0.00243902"
       smooth_angles="360"
       helper_size="0"
       simplify_individual_paths="false"
       simplify_just_coalesce="false" /><inkscape:path-effect
       effect="simplify"
       id="path-effect10006-3"
       is_visible="true"
       lpeversion="1"
       steps="1"
       threshold="0.00243902"
       smooth_angles="360"
       helper_size="0"
       simplify_individual_paths="false"
       simplify_just_coalesce="false" /><inkscape:path-effect
       effect="simplify"
       id="path-effect10006-36"
       is_visible="true"
       lpeversion="1"
       steps="1"
       threshold="0.00243902"
       smooth_angles="360"
       helper_size="0"
       simplify_individual_paths="false"
       simplify_just_coalesce="false" /><inkscape:path-effect
       effect="simplify"
       id="path-effect10006-31"
       is_visible="true"
       lpeversion="1"
       steps="1"
       threshold="0.00243902"
       smooth_angles="360"
       helper_size="0"
       simplify_individual_paths="false"
       simplify_just_coalesce="false" /></defs><sodipodi:namedview
     id="base"
     pagecolor="#ffffff"
     bordercolor="#666666"
     borderopacity="1.0"
     inkscape:pageopacity="0.0"
     inkscape:pageshadow="2"
     inkscape:zoom="4.0851563"
     inkscape:cx="86.89998"
     inkscape:cy="53.853509"
     inkscape:document-units="px"
     inkscape:current-layer="layer1"
     showgrid="false"
     inkscape:window-width="1366"
     inkscape:window-height="745"
     inkscape:window-x="-8"
     inkscape:window-y="-8"
     inkscape:window-maximized="1"
     fit-margin-top="0"
     fit-margin-left="0"
     fit-margin-right="0"
     fit-margin-bottom="0"
     inkscape:showpageshadow="false"
     inkscape:pagecheckerboard="0"
     inkscape:deskcolor="#d1d1d1" /><metadata
     id="metadata3797"><rdf:RDF><cc:Work
         rdf:about=""><dc:format>image/svg+xml</dc:format><dc:type
           rdf:resource="http://purl.org/dc/dcmitype/StillImage" /><cc:license
           rdf:resource="http://creativecommons.org/licenses/publicdomain/" /><dc:title>Lettre</dc:title><dc:date>2011-01-11</dc:date><dc:creator><cc:Agent><dc:title>lmproulx</dc:title></cc:Agent></dc:creator></cc:Work><cc:License
         rdf:about="http://creativecommons.org/licenses/publicdomain/"><cc:permits
           rdf:resource="http://creativecommons.org/ns#Reproduction" /><cc:permits
           rdf:resource="http://creativecommons.org/ns#Distribution" /><cc:permits
           rdf:resource="http://creativecommons.org/ns#DerivativeWorks" /></cc:License></rdf:RDF></metadata><g
     inkscape:label="Calque 1"
     inkscape:groupmode="layer"
     id="layer1"
     transform="translate(-283.91317,-310.61523)"><path
       style="display:inline;fill:none;fill-opacity:1;stroke:#000000;stroke-width:2.9879;stroke-linecap:round;stroke-linejoin:round;stroke-dasharray:none;stroke-opacity:0.16473988;stop-color:#000000"
       d="m 286.10968,331.66709 c 6.35286,-6.59824 17.53958,-5.35748 25.76622,-3.61344 7.2146,1.52949 13.32835,4.71917 20.59022,5.61745 6.91269,0.85509 14.08853,0.79635 20.33624,-3.17289 6.57449,-4.17685 14.5173,-4.36864 22.20895,-4.13233 8.04271,0.2471 13.85529,7.30373 21.70847,8.48676 6.67505,1.00555 16.11531,-2.43615 22.54522,-3.90985 6.456,-1.47968 15.87363,-4.61837 20.86316,0.64194 5.89274,6.21254 17.18395,8.19914 22.75248,1.97368 2.20832,-2.46884 5.67186,-3.22771 8.79204,-3.85166"
       id="path10004" /><path
       style="fill:none;fill-opacity:1;stroke:#000000;stroke-width:2.9879;stroke-linecap:round;stroke-linejoin:round;stroke-dasharray:none;stroke-opacity:0.16473988;stop-color:#000000"
       d="m 287.25292,322.94238 c 6.35286,-6.59824 17.53958,-5.35748 25.76622,-3.61344 7.2146,1.52949 13.32835,4.71917 20.59022,5.61745 6.91269,0.85509 14.08853,0.79635 20.33624,-3.17289 6.57449,-4.17685 14.5173,-4.36864 22.20895,-4.13233 8.04271,0.2471 13.85529,7.30373 21.70847,8.48676 6.67505,1.00555 16.11531,-2.43615 22.54522,-3.90985 6.456,-1.47968 15.87363,-4.61837 20.86316,0.64194 5.89274,6.21254 17.18395,8.19914 22.75248,1.97368 2.20832,-2.46884 5.67186,-3.22771 8.79204,-3.85166"
       id="path10004-0" /><path
       style="fill:none;fill-opacity:1;stroke:#000000;stroke-width:2.9879;stroke-linecap:round;stroke-linejoin:round;stroke-dasharray:none;stroke-opacity:0.16473988;stop-color:#000000"
       d="m 286.95158,340.93435 c 6.35286,-6.59824 17.53958,-5.35748 25.76622,-3.61344 7.2146,1.52949 13.32835,4.71917 20.59022,5.61745 6.91269,0.85509 14.08853,0.79635 20.33624,-3.17289 6.57449,-4.17685 14.5173,-4.36864 22.20895,-4.13233 8.04271,0.2471 13.85529,7.30373 21.70847,8.48676 6.67505,1.00555 16.11531,-2.43615 22.54522,-3.90985 6.456,-1.47968 15.87363,-4.61837 20.86316,0.64194 5.89274,6.21254 17.18395,8.19914 22.75248,1.97368 2.20832,-2.46884 5.67186,-3.22771 8.79204,-3.85166"
       id="path10004-3" /><path
       style="fill:none;fill-opacity:1;stroke:#000000;stroke-width:2.98361;stroke-linecap:round;stroke-linejoin:round;stroke-dasharray:none;stroke-opacity:0.16473988;stop-color:#000000"
       d="m 287.02215,350.44236 c 6.31959,-6.59567 17.48359,-5.35929 25.68275,-3.61477 7.19303,1.53045 13.2831,4.71935 20.52352,5.61952 6.89153,0.85679 14.04651,0.79532 20.27036,-3.17406 6.54813,-4.1762 14.46804,-4.37198 22.137,-4.13385 8.02162,0.24908 13.8068,7.305 21.63814,8.48988 6.65159,1.00638 16.06677,-2.43637 22.47219,-3.91129 6.432,-1.48104 15.83264,-4.615 20.79557,0.64218 5.86385,6.21151 17.13626,8.19701 22.67876,1.97441 2.19768,-2.46735 5.6518,-3.22911 8.76356,-3.85308"
       id="path10004-9" /><path
       style="fill:none;fill-opacity:1;stroke:#000000;stroke-width:2.97807;stroke-linecap:round;stroke-linejoin:round;stroke-dasharray:none;stroke-opacity:0.16473988;stop-color:#000000"
       d="m 287.53843,359.61624 c 6.27677,-6.59233 17.41157,-5.36164 25.57542,-3.61649 7.16528,1.53169 13.22492,4.71957 20.43776,5.62218 6.86432,0.859 13.99251,0.79399 20.18565,-3.17555 6.51424,-4.17535 14.4047,-4.37631 22.0445,-4.13582 7.99452,0.25166 13.74445,7.30666 21.54773,8.49391 6.62143,1.00743 16.00435,-2.43666 22.37828,-3.91315 6.40115,-1.4828 15.77991,-4.61062 20.70867,0.64249 5.8267,6.21014 17.07489,8.19425 22.584,1.97534 2.18401,-2.4654 5.626,-3.2309 8.72694,-3.85491"
       id="path10004-4" /><path
       style="fill:none;fill-opacity:1;stroke:#000000;stroke-width:2.97869;stroke-linecap:round;stroke-linejoin:round;stroke-dasharray:none;stroke-opacity:0.16473988;stop-color:#000000"
       d="m 287.6253,368.27082 c 6.28155,-6.59269 17.41957,-5.36135 25.58735,-3.61628 7.16836,1.53154 13.23138,4.71952 20.44729,5.62187 6.86734,0.85876 13.9985,0.79414 20.19506,-3.17539 6.518,-4.17544 14.41175,-4.37584 22.05478,-4.1356 7.99753,0.25138 13.75138,7.30647 21.55777,8.49347 6.62478,1.00733 16.0113,-2.43664 22.38872,-3.91294 6.40458,-1.48259 15.78577,-4.61111 20.71832,0.64245 5.83083,6.2103 17.08174,8.19459 22.59453,1.97524 2.18552,-2.46563 5.62887,-3.23069 8.73101,-3.8547"
       id="path10004-6" /><path
       style="fill:none;fill-opacity:1;stroke:#000000;stroke-width:2.9719;stroke-linecap:round;stroke-linejoin:round;stroke-dasharray:none;stroke-opacity:0.16473988;stop-color:#000000"
       d="m 287.96781,377.27161 c 6.2292,-6.58854 17.33152,-5.36425 25.45618,-3.61839 7.13446,1.53308 13.16026,4.71977 20.34247,5.62514 6.83411,0.86149 13.93252,0.79248 20.09154,-3.17723 6.47655,-4.17437 14.3343,-4.38112 21.94172,-4.13799 7.96442,0.25454 13.67516,7.30847 21.44726,8.49839 6.58793,1.00862 15.93505,-2.43697 22.27394,-3.91521 6.36687,-1.48477 15.72134,-4.60569 20.61212,0.64282 5.78541,6.20858 17.00671,8.19121 22.47871,1.97638 2.16881,-2.46323 5.59732,-3.23288 8.68625,-3.85693"
       id="path10004-45" /><path
       style="fill:none;fill-opacity:1;stroke:#000000;stroke-width:2.97129;stroke-linecap:round;stroke-linejoin:round;stroke-dasharray:none;stroke-opacity:0.16473988;stop-color:#000000"
       d="m 288.05401,386.35893 c 6.22445,-6.58814 17.32352,-5.36451 25.44426,-3.61858 7.13136,1.53322 13.15382,4.7198 20.33294,5.62544 6.83109,0.86174 13.92652,0.79232 20.08213,-3.1774 6.47278,-4.17426 14.32726,-4.38161 21.93144,-4.13821 7.96141,0.25483 13.66822,7.30866 21.43722,8.49884 6.58459,1.00873 15.92811,-2.43698 22.26351,-3.91542 6.36343,-1.48498 15.71548,-4.60519 20.60246,0.64286 5.78128,6.20842 16.99989,8.19093 22.46818,1.97649 2.16729,-2.46302 5.59445,-3.23309 8.68218,-3.85715"
       id="path10004-47" /><path
       style="display:inline;fill:none;fill-opacity:1;stroke:#000000;stroke-width:2.97314;stroke-linecap:round;stroke-linejoin:round;stroke-dasharray:none;stroke-opacity:0.16473988;stop-color:#000000"
       d="m 287.70884,395.61933 c 6.23871,-6.5893 17.34754,-5.36373 25.48003,-3.61801 7.14061,1.5328 13.17321,4.71973 20.36153,5.62455 6.84015,0.86099 13.94451,0.79278 20.11036,-3.1769 6.48409,-4.17457 14.34838,-4.38016 21.96227,-4.13756 7.97044,0.25396 13.68902,7.30811 21.46736,8.4975 6.59463,1.00839 15.94891,-2.43691 22.29481,-3.9148 6.37372,-1.48437 15.73307,-4.6067 20.63143,0.64275 5.79366,6.20891 17.02034,8.19182 22.49976,1.97618 2.17185,-2.46366 5.60306,-3.23249 8.69439,-3.85653"
       id="path10004-5" /><path
       style="display:inline;fill:#ffffff;fill-opacity:1;stroke:#000000;stroke-width:2.02116;stroke-linecap:round;stroke-linejoin:round;stroke-miterlimit:4;stroke-dasharray:none;stroke-dashoffset:3.003;stroke-opacity:1"
       d="m 284.92375,311.62581 2.96855,94.6333 184.04982,-0.87623 1.97903,-93.75707 z"
       id="path3800"
       inkscape:connector-curvature="0"
       sodipodi:nodetypes="ccccc" /><path
       id="path7647"
       d="m 174,36.288 -33.106,0.26367 -33.106,0.26172 -0.625,7.5 c -2.7451,32.939 -31.559,62.331 -66.195,67.525 l -4.6797,0.70312 v 47.271 47.27 l 5.3047,0.66406 c 87.639,10.95 86.353,135.92 -1.5547,151.01 l -3.75,0.64453 v 40.26 40.26 l 7.25,1.2246 c 45.236,-7.192 64.357,48.584 64.264,74.426 h -0.014 l -0.625,7.5 c -2.7451,32.939 -31.559,62.331 -66.195,67.525 l -4.6797,0.70312 v 47.271 47.27 l 5.3047,0.66406 c 87.639,10.95 86.353,135.92 -1.5547,151.01 l -3.75,0.64453 v 40.26 40.26 l 7.25,1.2246 c 82.909,14.002 84.897,130.78999 2.543,149.35999 l -9.793,2.2071 v 36.299 36.299 h 2.3399 c 9.6788,0 29.834,8.5935 40.642,17.328 50.564,40.863 29.681,120.38 -35.023,133.36 l -7.959,1.5957 v 36.162 36.164 l 7.25,1.2246 c 83.777,14.148 84.48,133.05 0.8848,149.82 l -8.1348,1.6309 v 36.154 36.154 l 7.125,1.2226 c 84.85,14.55 84.231,135.48 -0.7695,150.28 l -6.3555,1.1074 v 36.396 36.396 h 2.3106 c 14.445,0 39.573,13.657 51.363,27.916 37.423,45.258 11.533,112.93 -47.107,123.15 l -6.5664,1.1445 v 40.172 40.172 l 8.75,1.791 c 64.937,13.295 84.777,94.403 32.811,134.14 -10.728,8.2025 -30.73,16.522 -39.721,16.522 -1.7487,0 -1.8399,1.6026 -1.8399,32.275 v 32.275 l 8.3516,1.7187 c 73.667,15.164 86.001,111.24 18.393,143.27 -6.8649,3.2523 -20.917,7.4629 -24.904,7.4629 -1.7563,0 -1.8399,1.8372 -1.8399,40.387 v 40.387 l 4.6797,0.7032 c 87.501,13.122 87.501,137.93 0,151.05 l -4.6797,0.7031 v 32.137 32.135 l 10.25,0.1777 c 41.71,0.7219 77.649,34.737 77.734,73.572 l 0.016,6.75 h 33.031 c 25.576,0 33.108,-0.2821 33.373,-1.25 0.1881,-0.6875 0.8826,-4.175 1.543,-7.75 14.816,-80.196 140.34,-79.772 155.91,0.5274 l 1.6426,8.4667 h 37.205 37.203 l 0.6446,-3.75 c 9.1378,-53.208 65.77,-81.661 114.95,-57.75 23.808,11.576 36.816,29.364 42.963,58.75 l 0.5742,2.75 h 32.936 32.936 l 0.5957,-3.75 c 13.59,-85.611 141.56,-87.912 157.7,-2.8359 l 1.2481,6.5859 h 37.17 37.17 l 1.1485,-6.6015 c 14.518,-83.37 147.04,-82.65 156.65,0.8515 l 0.6621,5.75 h 41.768 41.77 l 1.1719,-6.75 c 14.481,-83.357 144.77,-82.633 156.79,0.8711 l 0.7735,5.3789 37.514,0.2618 37.512,0.2617 1.0761,-6.8281 c 8.3364,-52.942 76.344,-80.993 122.17,-50.393 19.714,13.163 35.197,37.11 35.197,54.438 v 2.7812 l 41.693,-0.2597 41.695,-0.2618 1.3672,-7.5 c 9.4559,-51.829 73.815,-78.703 120.53,-50.328 19.182,11.652 36.719,38.186 36.719,55.559 v 2.7695 h 37.455 37.455 l 0.6152,-3.75 c 14.565,-88.653 141.13,-87.852 157.99,1 l 0.5215,2.75 h 41.438 41.433 l 0.617,-3.75 c 14.652,-89.183 140.61,-87.988 158.08,1.5 l 0.437,2.25 h 41.463 41.463 l 0.519,-2.75 c 7.753,-40.865 38.755,-67.25 79.018,-67.25 40.3,0 71.257,26.347 79.016,67.25 l 0.521,2.75 h 41.463 41.463 l 0.519,-2.75 c 16.866,-88.901 143.42,-89.702 157.99,-1 l 0.615,3.75 h 37.205 37.205 l 1.643,-8.4667 c 15.548,-80.17 141.31,-80.595 155.92,-0.5274 0.652,3.575 1.342,7.0625 1.53,7.75 0.265,0.9678 7.788,1.25 33.328,1.25 h 32.984 l 0.617,-3.75 c 14.221,-86.557 140.47,-88.16 157.48,-2 l 1.137,5.75 h 36.785 36.785 l 0.683,-8.25 c 3.006,-36.224 27.719,-62.938 65.854,-71.191 l 2.75,-0.5957 v -32.463 -32.461 l -2.75,-0.5957 c -40.097,-8.6786 -65.588,-38 -65.588,-75.443 0,-37.472 25.461,-66.756 65.588,-75.441 l 2.75,-0.5957 v -40.512 c 0,-31.573 -0.276,-40.583 -1.25,-40.832 -0.688,-0.1758 -4.4,-1.0713 -8.25,-1.9882 -77.675,-18.498 -77.295,-130.95 0.5,-147.62 3.025,-0.6483 6.287,-1.3962 7.25,-1.6602 2.265,-0.6214 2.756,-65.15 0.5,-65.727 -0.688,-0.1758 -4.4,-1.0713 -8.25,-1.9882 -81.91,-19.507 -76.863,-130.98 6.75,-149.07 l 2.75,-0.5957 v -40.512 c 0,-31.547 -0.277,-40.595 -1.25,-40.881 -0.688,-0.202 -4.4,-1.082 -8.25,-1.957 -72.239,-16.419 -79.512,-116.12 -10.5,-143.92 5.883,-2.3703 8.377,-3.1091 17.25,-5.1075 l 2.75,-0.6191 v -36.512 c 0,-28.347 -0.28,-36.596 -1.25,-36.881 -0.688,-0.202 -4.4,-1.0941 -8.25,-1.9824 -79.578,-18.36 -76.705,-132.17 3.75,-148.56 l 5.75,-1.1719 v -36.461 c 0,-28.306 -0.28,-36.543 -1.25,-36.828 -0.688,-0.202 -4.374,-1.0912 -8.193,-1.9765 -78.1,-18.104 -76.567,-134.98 1.943,-148.1 8.343,-1.3938 7.556,2.7516 7.262,-38.213 l -0.262,-36.578 -7.693,-1.8165 c -80.998,-19.11 -79.135,-132.04 2.455,-148.85 l 5.761,-1.1875 -0.261,-36.576 -0.262,-36.574 -7.693,-1.8165 c -81.007,-19.112 -79.153,-132.03999 2.443,-148.83999 l 5.75,-1.1836 v -40.701 -40.701 l -6.504,-1.2344 c -81.999,-15.555 -81.409,-132.26 0.754,-149.18 l 5.75,-1.1836 -0.01,-47.18 -0.01,-47.18 -8.736,-0.2168 h -0.01 c -26.403,-3.845 -58.203,-40.859 -59.181,-71.309 0.481,-32.768 21.342,-70.28 62.197,-78.693 l 5.75,-1.1836 v -40.701 -40.701 l -6.504,-1.2344 c -81.999,-15.555 -81.409,-132.26 0.754,-149.18 l 5.75,-1.1836 -0.01,-47.18 -0.01,-47.18 -8.736,-0.2168 h -0.01 c -39.588,-0.9945 -76.234,-35.338 -76.234,-71.443 v -4.8398 h -41.5 -41.5 v 3.543 c 0,92.315 -150.89,95.886 -158.68,3.7559 l -0.615,-7.2988 h -32.674 -32.674 l -1.175,8.832 c -11.773,88.423 -143.65,89.722 -158,1.5566 l -1.689,-10.385 h -36.75 -36.75 v 3.543 c 0,92.358 -150.89,95.929 -158.68,3.7559 l -0.615,-7.2988 h -41.353 -41.354 v 3.543 c 0,32.139 -28.277,63.994 -63.5,71.533 -45.882,9.8209 -95.5,-27.203 -95.5,-71.26 v -3.8164 h -41.363 -41.362 l -0.683,6.75 c -9.235,91.163 -150.57,91.653 -158.27,0.54883 l -0.615,-7.2988 h -41.207 -41.207 l -0.625,7.3848 c -7.6273,90.231 -150.71,90.223 -158.34,-0.01 l -0.6231,-7.375 h -36.728 -36.728 l -0.625,3.125 c -0.3437,1.7188 -0.625,4.3355 -0.625,5.8164 0,15.126 -14.074,39.423 -29.463,50.863 -49.549,36.836 -120.77,8.7422 -128.69,-50.766 l -1.2051,-9.0391 h -40.703 -40.703 l -0.6015,2.25 c -0.3317,1.2375 -0.6097,3.7958 -0.6172,5.6856 -0.064,16.181 -13.528,39.8 -29.508,51.768 -50.063,37.492 -122.91,7.6125 -129.09,-52.953 l -0.6894,-6.75 h -36.682 -36.682 l -1.1758,8.8301 c -11.916,89.495 -150.57,88.547 -157.85,-1.0801 l -0.6289,-7.75 h -41.213 -41.215 l -0.6484,6.3301 c -9.4334,92.073 -158.63,90.764 -158.63,-1.3945 v -4.9394 h -37.5 -37.5 v 5.3398 c 0,91.384 -150.07,92.718 -158.65,1.4102 l -0.6348,-6.75 h -32.711 -32.709 l -0.6172,7.25 c -7.7664,91.281 -158.68,88.716 -158.68,-2.6973 v -4.5527 h -32.791 -32.789 l -1.6328,10.299 c -14.023,88.403 -151.44,86.17 -157.54,-2.5606 z"
       filter="url(#filter7649)"
       transform="matrix(0,0.00912311,-0.01074416,0,463.76545,317.08463)"
       style="display:inline" /><path
       id="path4687"
       d="m 463.30807,318.61846 -0.003,-0.30204 -0.003,-0.30202 -0.0806,-0.006 c -0.35391,-0.0251 -0.6697,-0.28791 -0.72551,-0.6039 l -0.008,-0.0427 h -0.50788 -0.50787 l -0.008,0.0485 c -0.11765,0.79954 -1.46035,0.78781 -1.62247,-0.0141 l -0.008,-0.0343 h -0.43256 -0.43255 l -0.0133,0.0661 c 0.0773,0.4127 -0.52199,0.58714 -0.79965,0.58629 v -1.3e-4 l -0.0806,-0.006 c -0.35389,-0.0251 -0.66969,-0.28792 -0.72549,-0.6039 l -0.008,-0.0427 h -0.50788 -0.50789 l -0.008,0.0484 c -0.11764,0.79955 -1.46034,0.78781 -1.62247,-0.0141 l -0.008,-0.0343 h -0.43255 -0.43257 l -0.0132,0.0661 c -0.15044,0.75638 -1.40523,0.77452 -1.60475,0.0232 l -0.0238,-0.0893 h -0.39001 -0.39 v 0.0213 c 0,0.0883 -0.0923,0.27218 -0.18617,0.37079 -0.43905,0.46129 -1.29339,0.27077 -1.43284,-0.31952 l -0.0171,-0.0726 h -0.38854 -0.38854 l -0.0132,0.0662 c -0.152,0.76431 -1.4295,0.77072 -1.60969,0.008 l -0.0175,-0.0742 H 446.95844 446.57 l -0.0132,0.065 c -0.15632,0.77409 -1.45562,0.76845 -1.61463,-0.007 l -0.0119,-0.058 h -0.39104 -0.39104 v 0.0211 c 0,0.13179 -0.14674,0.36103 -0.29994,0.4686 -0.48626,0.34141 -1.21335,0.10522 -1.32315,-0.42977 l -0.0123,-0.0599 h -0.43161 -0.43161 l -0.0193,0.0798 c -0.14283,0.59242 -1.01428,0.77343 -1.44121,0.29934 -0.0881,-0.0979 -0.17752,-0.28035 -0.17752,-0.36238 0,-0.0159 -0.0172,-0.0168 -0.34677,-0.0168 h -0.34677 l -0.0185,0.0762 c -0.16291,0.67208 -1.19518,0.7846 -1.53932,0.16781 -0.0349,-0.0627 -0.0802,-0.19083 -0.0802,-0.22721 0,-0.016 -0.0197,-0.0169 -0.43392,-0.0169 h -0.43393 l -0.008,0.0427 c -0.14099,0.79828 -1.48196,0.79828 -1.62292,0 l -0.008,-0.0427 h -0.34528 -0.34527 l -0.002,0.0935 c -0.008,0.38053 -0.37322,0.70841 -0.79047,0.70918 l -0.0725,1.3e-4 v 0.30135 c 0,0.23333 0.004,0.30205 0.0134,0.30446 0.008,0.002 0.0448,0.008 0.0833,0.0141 0.86165,0.13517 0.85709,1.28034 -0.006,1.42239 l -0.091,0.015 v 0.33942 0.33941 l 0.0403,0.006 c 0.57168,0.0834 0.87738,0.60002 0.62048,1.0487 -0.12437,0.21721 -0.31549,0.33588 -0.63122,0.39196 l -0.0295,0.005 v 0.30048 0.30048 l 0.0403,0.005 c 0.91982,0.12399 0.94454,1.29147 0.0305,1.43872 l -0.0707,0.0114 v 0.3391 0.33911 l 0.0709,0.0104 c 0.89574,0.13245 0.88801,1.34146 -0.009,1.42914 l -0.0617,0.006 v 0.38106 0.38106 l 0.0725,0.0107 c 0.8956,0.1321 0.88782,1.32074 -0.009,1.4304 l -0.0578,0.007 -0.003,0.34224 -0.003,0.34224 0.0734,0.01 c 0.56881,0.076 0.8702,0.6965 0.54143,1.11458 -0.14142,0.17985 -0.39872,0.3211 -0.5849,0.3211 h -0.0299 l 0.003,0.38038 0.003,0.38037 0.0806,0.0125 c 0.55686,0.0863 0.8456,0.67341 0.54074,1.0996 -0.1252,0.175 -0.41027,0.33499 -0.59694,0.33499 h -0.0298 v 0.34171 0.3417 l 0.0403,0.005 c 0.9525,0.13287 0.94388,1.28754 -0.0107,1.44135 l -0.0295,0.004 v 0.37805 0.37799 l 0.0403,0.005 c 0.9582,0.13367 0.94536,1.28281 -0.0161,1.44218 l -0.0242,0.003 v 0.37826 0.37827 l 0.0295,0.004 c 0.43907,0.0707 0.72255,0.35356 0.72255,0.72088 0,0.36767 -0.28307,0.65009 -0.72255,0.72087 l -0.0295,0.004 v 0.37827 0.37827 l 0.0295,0.004 c 0.95518,0.15387 0.96379,1.30843 0.0107,1.44135 l -0.0403,0.005 v 0.33942 0.33943 l 0.091,0.015 c 0.86136,0.14185 0.86592,1.28919 0.006,1.42248 -0.0383,0.006 -0.0758,0.0122 -0.0832,0.014 -0.0103,0.003 -0.0134,0.0711 -0.0134,0.30406 v 0.30091 l 0.0403,0.005 c 0.92998,0.12974 0.9472,1.28153 0.0215,1.43671 l -0.0617,0.0104 v 0.3356 0.33559 l 0.0886,0.006 c 0.3892,0.0274 0.67622,0.25287 0.7649,0.60079 l 0.007,0.0251 h 0.34859 0.34876 l 0.007,-0.0251 c 0.0933,-0.36581 0.40827,-0.59836 0.81056,-0.59836 0.40261,0 0.71724,0.23228 0.81055,0.59836 l 0.007,0.0251 h 0.43527 c 0.33922,0 0.43603,-0.003 0.4387,-0.0115 0.002,-0.006 0.0115,-0.0402 0.0214,-0.0753 0.19874,-0.70863 1.40694,-0.70516 1.58605,0.004 0.008,0.0276 0.015,0.0574 0.0178,0.0662 0.008,0.0207 0.69999,0.0252 0.70619,0.004 0.002,-0.006 0.0115,-0.0402 0.0214,-0.0753 0.20959,-0.74727 1.40727,-0.70122 1.60163,0.0616 l 0.007,0.0251 h 0.43526 c 0.33895,0 0.43616,-0.003 0.43924,-0.0115 0.002,-0.006 0.0115,-0.0402 0.0209,-0.0753 0.17641,-0.65904 1.24762,-0.72539 1.54631,-0.0958 0.0255,0.0537 0.0334,0.0764 0.0549,0.15738 l 0.007,0.0251 h 0.39229 c 0.30456,0 0.39319,-0.003 0.39626,-0.0115 0.002,-0.006 0.0117,-0.0402 0.0213,-0.0753 0.19726,-0.726 1.42007,-0.69979 1.59616,0.0342 l 0.0126,0.0524 h 0.39175 c 0.30412,0 0.39262,-0.003 0.39568,-0.0115 0.002,-0.006 0.0117,-0.0399 0.0212,-0.0748 0.19451,-0.71251 1.45024,-0.69853 1.59121,0.0177 0.015,0.0761 -0.0295,0.0689 0.41056,0.0662 l 0.393,-0.003 0.0195,-0.0702 c 0.20532,-0.73895 1.41866,-0.72195 1.59927,0.0224 l 0.0128,0.0525 0.39298,-0.003 0.39296,-0.003 0.0195,-0.0702 c 0.20535,-0.73903 1.41867,-0.72211 1.59917,0.0223 l 0.0127,0.0524 h 0.4373 0.43729 l 0.0132,-0.0593 c 0.16712,-0.74808 1.42102,-0.7427 1.60282,0.007 l 0.0127,0.0524 0.50691,-10e-5 0.50691,-9e-5 0.002,-0.0797 v -1e-4 c 0.0413,-0.24087 0.439,-0.53099 0.76616,-0.5399 0.35206,0.004 0.7551,0.1947 0.84549,0.56743 l 0.0128,0.0524 h 0.43729 0.43731 l 0.0132,-0.0593 c 0.16711,-0.74808 1.42102,-0.74269 1.60281,0.007 l 0.0127,0.0524 0.50691,-1e-4 0.50692,-9e-5 0.002,-0.0797 v -10e-5 c 0.0107,-0.36117 0.37968,-0.69549 0.7676,-0.69549 h 0.052 v -0.37861 -0.37861 h -0.0381 c -0.99184,0 -1.03021,-1.37658 -0.0403,-1.44765 l 0.0784,-0.005 v -0.29809 -0.29809 l -0.0949,-0.0108 c -0.95002,-0.1074 -0.96399,-1.31053 -0.0168,-1.44144 l 0.11158,-0.0154 v -0.33527 -0.33528 h -0.0382 c -0.99231,0 -1.03067,-1.37659 -0.0403,-1.44765 l 0.0785,-0.005 v -0.37727 -0.37727 h -0.0382 c -0.3453,0 -0.68756,-0.25799 -0.76857,-0.57933 -0.10551,-0.41858 0.29228,-0.87126 0.76564,-0.87126 h 0.041 v -0.37735 -0.37735 l -0.0725,-0.006 c -0.97947,-0.0843 -0.98473,-1.37367 -0.007,-1.44392 l 0.0785,-0.005 v -0.37594 -0.37593 l -0.0793,-0.006 c -0.96945,-0.0695 -0.96937,-1.37493 1.1e-4,-1.44455 l 0.0793,-0.006 v -0.33507 -0.33508 l -0.0336,-0.006 c -0.0185,-0.003 -0.0466,-0.006 -0.0625,-0.006 -0.16251,0 -0.42356,-0.12838 -0.54648,-0.26879 -0.39578,-0.45204 -0.0939,-1.1018 0.54544,-1.17405 l 0.0971,-0.011 v -0.37133 -0.37133 l -0.0241,-0.005 c -0.0133,-0.003 -0.0408,-0.005 -0.0612,-0.005 -0.17385,-4.5e-4 -0.42761,-0.12342 -0.55621,-0.26921 -0.40281,-0.45672 -0.0817,-1.12131 0.56894,-1.17769 l 0.0725,-0.006 v -0.33466 -0.33465 l -0.0949,-0.0108 c -0.96155,-0.10871 -0.95137,-1.37367 0.0116,-1.44007 l 0.0833,-0.006 v -0.37599 -0.37601 l -0.068,-0.006 c -0.98925,-0.0861 -0.97518,-1.4472 0.015,-1.4472 h 0.0531 v -0.34212 -0.34211 h -0.0574 c -0.98184,0 -0.99618,-1.36911 -0.0152,-1.44738 l 0.0725,-0.006 v -0.29842 -0.2984 l -0.0779,-0.005 c -0.98073,-0.0708 -0.95318,-1.44766 0.029,-1.44766 h 0.0489 v -0.29915 -0.29914 l -0.11065,-0.0149 c -0.94982,-0.12794 -0.92583,-1.38161 0.0274,-1.43726 z"
       fill="#f2f2f2"
       style="display:inline;stroke-width:0.00990043" /><path
       style="display:inline;fill:#ffffff;fill-opacity:1;stroke:#000000;stroke-width:1.01058;stroke-linecap:round;stroke-linejoin:round;stroke-miterlimit:4;stroke-dasharray:none;stroke-dashoffset:3.003;stroke-opacity:1"
       d="m 435.92,320.11685 0.85682,24.79233 h 23.99081 v -25.4873 z"
       id="path3802"
       inkscape:connector-curvature="0"
       sodipodi:nodetypes="ccccc" /><path
       style="display:none;fill:#920f0f;fill-opacity:1;stroke:#920f0f;stroke-width:1.007;stroke-linecap:round;stroke-linejoin:round;stroke-dasharray:none;stroke-opacity:1;stop-color:#000000"
       d="m 447.00886,326.3233 c -0.40042,-0.35484 -0.76828,-0.7464 -1.09747,-1.16816 -0.30804,-0.39466 -0.58186,-0.81511 -0.89011,-1.20961 -0.2339,-0.29934 -0.48704,-0.58301 -0.73843,-0.86781 -0.0972,-0.11016 -0.19463,-0.22092 -0.30583,-0.31697 -0.11119,-0.096 -0.23744,-0.17757 -0.37788,-0.22077 -0.1492,-0.0459 -0.30832,-0.047 -0.4642,-0.0388 -0.15589,0.008 -0.312,0.0253 -0.46771,0.0143 -0.299,-0.0211 -0.58285,-0.14458 -0.88121,-0.17336 -0.33302,-0.0321 -0.67091,0.057 -0.96504,0.21642 -0.42767,0.23181 -0.76749,0.60874 -0.99531,1.03855 -0.21551,0.4066 -0.33401,0.85598 -0.47475,1.29411 -0.1108,0.34494 -0.23669,0.68665 -0.30416,1.04261 -0.10123,0.53408 -0.0679,1.08442 -0.005,1.62431 0.0675,0.57547 0.17029,1.15301 0.39823,1.6857 0.0355,0.0829 0.0739,0.16455 0.10706,0.24841 0.19305,0.48834 0.19976,1.03064 0.35322,1.53283 0.14357,0.46985 0.41075,0.89025 0.66078,1.31316 0.22366,0.3783 0.43583,0.76344 0.66659,1.13745 0.31184,0.50543 0.65715,0.98969 1.02112,1.45898 0.37853,0.48806 0.77853,0.96174 1.10646,1.48514 0.28463,0.45428 0.51235,0.94194 0.78915,1.40103 0.2801,0.46457 0.60928,0.8979 0.95603,1.31509 0.3099,0.37285 0.63473,0.73398 0.98648,1.06763 0.35664,0.3383 0.74791,0.65697 0.98887,1.08543 0.0778,0.13828 0.1383,0.28557 0.21278,0.42566 0.0745,0.14008 0.16507,0.2752 0.29014,0.37281 0.0738,0.0576 0.15874,0.10109 0.24926,0.12471 0.12946,0.0338 0.26785,0.0261 0.39645,-0.0108 0.12859,-0.0369 0.24783,-0.10226 0.35557,-0.18159 0.21547,-0.15865 0.38441,-0.3707 0.56984,-0.56361 0.38158,-0.39696 0.83573,-0.71513 1.27056,-1.05292 0.4393,-0.34127 0.86251,-0.70589 1.23596,-1.11818 0.31201,-0.34446 0.5876,-0.72032 0.8484,-1.10501 0.16272,-0.24002 0.31994,-0.48378 0.4707,-0.73149 0.24126,-0.39641 0.47178,-0.81015 0.81624,-1.1211 0.22431,-0.20249 0.48893,-0.35378 0.74465,-0.51478 0.25573,-0.161 0.50868,-0.33702 0.69461,-0.57523 0.30355,-0.3889 0.39529,-0.89588 0.54709,-1.36529 0.0342,-0.10573 0.0718,-0.21035 0.10413,-0.31666 0.14712,-0.484 0.18264,-0.99757 0.34399,-1.47702 0.17823,-0.5296 0.50216,-0.99574 0.75728,-1.49288 0.20687,-0.40311 0.36885,-0.82763 0.51889,-1.25515 0.1387,-0.39521 0.26819,-0.79651 0.32495,-1.21148 0.0475,-0.34749 0.0434,-0.69968 0.0433,-1.05041 -2e-4,-0.51164 0.007,-1.0314 -0.12982,-1.52432 -0.13147,-0.47259 -0.38975,-0.89818 -0.6418,-1.319 -0.18462,-0.30824 -0.37011,-0.62096 -0.62303,-0.87616 -0.37427,-0.37763 -0.87783,-0.60753 -1.39587,-0.72717 -0.46729,-0.10792 -0.94952,-0.13176 -1.42891,-0.14561 -0.50126,-0.0145 -1.01177,-0.0173 -1.49255,0.12524 -0.13349,0.0396 -0.26345,0.09 -0.39472,0.13645 -0.51703,0.18279 -1.07475,0.31321 -1.48902,0.67253 -0.35907,0.31144 -0.56619,0.75807 -0.84879,1.14026 -0.27734,0.37509 -0.62913,0.6896 -0.91323,1.0596 -0.17022,0.22168 -0.32101,0.46803 -0.55157,0.62602 -0.1374,0.0942 -0.29914,0.15243 -0.465,0.16757 -0.16587,0.0151 -0.33549,-0.0129 -0.48766,-0.0806 z"
       id="path9895" /><g
       aria-label="pilin"
       transform="scale(0.98520987,1.0150122)"
       id="text6530"
       style="font-size:24.3379px;font-family:Nishiki-teki-lili;-inkscape-font-specification:Nishiki-teki-lili;stroke:#000000;stroke-width:0.43359;stroke-linecap:round;stroke-linejoin:round;stop-color:#000000"><path
         d="m 454.78205,336.26074 q 1.53328,-1.33858 4.21045,-4.30781 2.67717,-2.96922 4.11311,-6.27918 0.38941,-1.02219 0.55977,-1.87402 0.17037,-0.85182 0.17037,-1.55762 0,-1.84968 -0.97352,-2.8232 -0.94918,-0.99785 -2.33644,-0.99785 -0.77881,0 -1.77667,0.58411 -0.97351,0.55977 -1.84968,1.38726 -1.02219,0.97351 -1.55762,1.67931 v 0.0243 l -0.36507,0.41375 q -0.21904,0.43808 -0.77881,0.43808 -0.46242,0 -0.80315,-0.46242 -1.46028,-2.48247 -2.43379,-3.30996 -0.94918,-0.85182 -1.58197,-0.85182 -0.51109,0 -1.02219,0.24338 -1.07087,0.41374 -1.58196,1.26557 -0.48676,0.85182 -0.48676,2.38511 0,0.60845 0.0974,1.36292 0.073,0.48676 0.29206,1.09521 0.21904,0.60845 0.55977,1.31425 0.34073,0.68146 0.75447,1.41159 0.43808,0.73014 0.92484,1.50895 0.5111,0.75448 1.04653,1.50895 0.53544,0.75448 1.09521,1.46028 1.26557,1.55762 3.7237,4.38082 z m -0.0487,2.23909 q -0.36507,0 -0.68146,-0.29206 l -2.21475,-2.5068 q -2.23909,-2.48247 -4.52685,-5.79242 -2.26342,-3.30996 -2.75018,-6.08448 -0.12169,-0.9005 -0.12169,-1.67931 0,-2.04439 0.82749,-3.33429 0.82749,-1.31425 2.36077,-1.94704 0.82749,-0.34073 1.70366,-0.34073 1.43593,0.0243 2.60415,1.02219 1.16822,0.99786 2.36078,2.89621 0.63278,-0.73013 1.58196,-1.6063 0.94918,-0.9005 2.1174,-1.58196 1.19256,-0.68146 2.48247,-0.68146 2.14173,0 3.65068,1.53329 1.53329,1.50895 1.53329,4.13744 0,1.82534 -0.82749,4.08877 -1.24123,2.94488 -3.48032,5.67073 -2.21475,2.7015 -4.11311,4.47817 l -0.0974,0.073 -0.82749,0.77882 h -0.0243 q 0,0.0487 -0.0487,0.0487 v 0.0243 l -0.9005,0.82749 q -0.26772,0.26772 -0.60845,0.26772 z"
         style="font-family:'linja lipamanka';-inkscape-font-specification:'linja lipamanka'"
         id="path6504" /></g><path
       style="fill:#000000;stroke-width:0.195863"
       d="m 311.88714,391.89022 c -0.2839,-0.18836 -0.32115,-0.5872 -0.32115,-3.43877 v -3.2257 l -0.50467,-0.12386 c -6.10851,-1.49924 -8.40098,-2.86366 -9.69653,-5.7711 -0.93873,-2.10667 -0.79213,-5.11127 0.38228,-7.83514 1.50118,-3.48174 5.13438,-5.83846 9.66413,-6.26875 1.24018,-0.11783 1.49501,-0.0841 1.80854,0.23908 0.45078,0.46468 0.4705,1.18807 0.0437,1.60741 -0.17672,0.17368 -1.06391,0.42949 -1.97283,0.56881 -5.08374,0.77934 -8.05559,3.46597 -8.44774,7.63701 -0.23701,2.52088 0.65292,4.34654 2.67393,5.48546 1.25842,0.70917 3.76273,1.60161 5.1678,1.84162 l 0.8461,0.14452 0.0662,-2.9995 c 0.0613,-2.77546 0.1056,-3.09705 0.593,-4.30545 0.60338,-1.49593 1.73192,-2.79399 3.01407,-3.46689 0.69639,-0.36548 1.20389,-0.45059 2.69327,-0.45171 1.59817,-0.001 1.96759,0.0693 2.86041,0.54627 3.76758,2.0125 4.80892,8.03946 1.99499,11.54645 -1.9058,2.37521 -4.28905,2.89503 -8.66341,1.88961 l -0.50468,-0.11604 v 3.01525 c 0,2.65564 -0.04,3.05649 -0.3356,3.36118 -0.37878,0.39045 -0.88697,0.4353 -1.36195,0.12018 z m 6.99251,-8.35764 c 1.39438,-0.34062 2.54965,-1.27696 2.99708,-2.4291 0.30619,-0.78843 0.3614,-1.26882 0.29383,-2.55674 -0.13818,-2.63397 -1.07243,-4.11841 -2.90754,-4.61986 -2.1979,-0.6006 -4.12699,0.20234 -5.03595,2.09608 -0.52609,1.09608 -0.55327,1.27798 -0.61323,4.10358 l -0.0627,2.95666 1.3473,0.24243 c 0.74102,0.13335 1.47118,0.27348 1.62258,0.31142 0.58968,0.14777 1.48919,0.10797 2.35866,-0.10442 z m 11.28131,5.40478 c -1.5464,-1.74825 -2.85767,-3.34383 -2.91393,-3.54573 -0.14868,-0.53357 0.22435,-1.1937 0.76129,-1.34719 0.40567,-0.11593 0.71801,0.14606 2.42632,2.03563 l 1.96072,2.16874 0.0476,-10.64177 c 0.0332,-7.43474 0.10914,-10.72627 0.25187,-10.92216 0.25375,-0.34828 1.11164,-0.36628 1.40727,-0.0295 0.16629,0.18941 0.22023,3.25765 0.22023,12.52726 0,10.88168 -0.0328,12.31375 -0.28839,12.60491 -0.60218,0.68592 -1.01176,0.3845 -3.87296,-2.85015 z m 27.00209,2.67264 c -0.25939,-0.45092 -0.26901,-0.99961 -0.0883,-5.04088 0.48919,-10.94006 1.68792,-17.30804 3.74672,-19.90376 1.81356,-2.28652 3.93449,-1.96556 6.62134,1.002 l 1.33022,1.46919 1.29373,-1.47362 c 2.18096,-2.48422 4.09262,-3.10334 5.82235,-1.88566 2.37311,1.6706 3.89882,8.13343 4.49071,19.02244 0.28413,5.22721 0.25622,6.55527 -0.14643,6.97033 -0.18458,0.19028 -0.50902,0.34596 -0.72097,0.34596 -0.79918,0 -0.90707,-0.41479 -1.04351,-4.01159 -0.43113,-11.36642 -1.86162,-19.05208 -3.79443,-20.38654 -0.44854,-0.30969 -0.53569,-0.3016 -1.30216,0.12104 -0.83949,0.4629 -2.95413,2.50512 -3.25333,3.14192 -0.12579,0.26772 0.0782,0.75667 0.84158,2.017 1.33312,2.20101 2.70028,5.40205 3.29963,7.72567 0.68181,2.64332 0.72851,6.17702 0.10251,7.7568 -0.52467,1.32409 -1.49436,2.42196 -2.69436,3.05052 -0.78297,0.41014 -1.21377,0.48008 -2.9363,0.47672 -1.70689,-0.004 -2.16044,-0.0776 -2.93629,-0.48104 -1.24545,-0.64757 -1.9825,-1.51364 -2.58713,-3.03998 -0.44193,-1.11565 -0.50768,-1.54176 -0.50438,-3.26873 0.007,-3.68097 1.1847,-7.58976 3.47842,-11.54513 0.74608,-1.28657 1.35652,-2.40154 1.35652,-2.47771 0,-0.33688 -2.73662,-3.05199 -3.43505,-3.40806 -0.72625,-0.37025 -0.80217,-0.37315 -1.23891,-0.0472 -1.98162,1.47896 -3.3838,8.74109 -3.75379,19.44152 -0.13384,3.87111 -0.19011,4.41153 -0.48488,4.65704 -0.51789,0.43135 -1.13989,0.33434 -1.46351,-0.22825 z m 12.94172,-2.02107 c 1.03471,-0.25277 1.87589,-0.94842 2.34567,-1.93986 0.48902,-1.03204 0.39444,-3.96806 -0.20045,-6.22291 -0.65202,-2.47135 -1.21363,-3.85345 -2.42851,-5.9764 l -1.03506,-1.80871 -0.33877,0.5102 c -2.86334,4.31219 -4.42523,10.60678 -3.33101,13.42436 0.71496,1.84106 2.59197,2.59865 4.98813,2.01332 z m 28.13705,2.13782 c -1.83602,-0.72261 -2.84705,-1.82644 -3.75995,-4.10504 -0.60544,-1.51115 -0.59411,-4.88762 0.0223,-6.66971 0.69775,-2.01702 2.29346,-3.46857 3.81306,-3.46857 0.45512,0 0.97061,0.6299 0.97061,1.18602 0,0.50481 -0.54412,1.11338 -0.99547,1.11338 -0.54492,0 -1.33883,0.7916 -1.73106,1.72602 -1.04349,2.48595 -0.44025,6.0828 1.25839,7.50326 0.25234,0.21102 0.9354,0.49173 1.51792,0.62382 0.92232,0.20913 1.15427,0.19129 1.79576,-0.13821 2.03621,-1.04587 3.26979,-4.17907 3.57876,-9.08981 0.0961,-1.52815 0.0558,-2.29618 -0.17476,-3.32099 -0.73572,-3.27111 -2.63636,-5.84592 -5.48738,-7.43379 -2.12344,-1.18264 -3.91906,-1.70583 -6.92968,-2.01909 -2.64235,-0.27494 -4.43322,-0.072 -5.66102,0.64147 -0.83922,0.48766 -0.99433,0.71082 -1.2771,1.83736 -0.24625,0.98108 -0.79443,1.31655 -1.47418,0.90217 -0.80874,-0.493 -0.6402,-2.24305 0.34714,-3.60454 1.22314,-1.68665 3.55934,-2.39373 7.22204,-2.18583 7.1857,0.40785 12.0351,3.29373 14.36336,8.54761 1.12009,2.52758 1.3803,4.78181 0.98399,8.52448 -0.38315,3.61832 -1.29385,6.10582 -2.90773,7.94218 -1.60195,1.82278 -3.38963,2.30858 -5.47506,1.48781 z m 11.44334,0.007 c -0.69972,-0.88069 0.0363,-8.39191 1.33867,-13.66169 1.51719,-6.13894 3.92415,-10.33116 6.89035,-12.00099 2.36755,-1.3328 5.13556,-1.19361 7.28787,0.36648 1.09451,0.79334 2.80869,2.89316 3.60126,4.41144 2.07151,3.96824 3.56509,10.33341 4.08127,17.39307 0.18454,2.52388 0.17453,2.89561 -0.0904,3.3561 -0.32765,0.56959 -0.94718,0.67585 -1.45832,0.25011 -0.26039,-0.21688 -0.35367,-0.78508 -0.49098,-2.99096 -0.3944,-6.33588 -1.77044,-12.55298 -3.62777,-16.39074 -0.88963,-1.83819 -2.56917,-3.80897 -3.76324,-4.41577 -1.39684,-0.70983 -3.1955,-0.67318 -4.5706,0.0932 -1.35193,0.75341 -2.95463,2.73127 -3.94244,4.86526 -1.77531,3.83531 -3.09254,10.02962 -3.46296,16.28483 -0.13216,2.23163 -0.35958,2.82199 -1.08711,2.82199 -0.22105,0 -0.53859,-0.17203 -0.70563,-0.38227 z m 10.84503,0.15648 c -0.29557,-0.19609 -0.32115,-0.76124 -0.32115,-7.09354 0,-6.58857 0.0151,-6.88965 0.35498,-7.09685 0.52924,-0.32263 1.01937,-0.26285 1.36,0.16588 0.26909,0.33869 0.30372,1.13342 0.30372,6.97033 0,6.11692 -0.024,6.61279 -0.3356,6.934 -0.37879,0.39045 -0.88696,0.4353 -1.36195,0.12018 z m 22.45578,-0.10466 c -2.44959,-0.75037 -4.51538,-2.69719 -5.58097,-5.25955 -0.53979,-1.298 -0.58753,-1.58348 -0.58753,-3.51398 0,-2.00699 0.0309,-2.17238 0.68867,-3.68838 1.5669,-3.61123 4.6761,-5.59405 8.37372,-5.34011 2.81934,0.19362 5.14675,1.64928 6.59979,4.12777 1.05107,1.79286 1.37435,3.16793 1.27898,5.44011 -0.064,1.52429 -0.1733,2.04772 -0.66555,3.18665 -0.70728,1.63648 -2.41488,3.54854 -3.89441,4.36073 -1.8695,1.02626 -4.24663,1.28904 -6.2127,0.68676 z m 4.75086,-2.50562 c 2.43679,-1.08269 4.03313,-3.56296 4.03639,-6.27139 0.006,-4.95735 -5.05657,-8.22991 -9.34233,-6.03914 -1.29185,0.66035 -2.60268,2.12661 -3.16927,3.54502 -0.55537,1.39033 -0.56487,3.55902 -0.0216,4.93795 0.74456,1.88994 2.41709,3.49531 4.26295,4.0918 1.06835,0.34522 3.15533,0.21498 4.23389,-0.26424 z m -63.19373,-1.30891 c -0.37907,-0.47711 -0.38379,-0.85774 -0.018,-1.45254 0.27659,-0.4498 0.38724,-0.46459 3.47644,-0.46459 3.0892,0 3.19986,0.0147 3.47646,0.46459 0.37608,0.61159 0.36086,1.0654 -0.0499,1.48886 -0.28461,0.29339 -0.81015,0.34595 -3.45841,0.34595 -2.79226,0 -3.15495,-0.0405 -3.42653,-0.38227 z m -0.018,-6.14437 c -0.3761,-0.61161 -0.36088,-1.06541 0.0499,-1.48888 0.28461,-0.29337 0.81014,-0.34595 3.4584,-0.34595 2.79226,0 3.15497,0.0405 3.42653,0.38228 0.37908,0.47712 0.38381,0.85773 0.0181,1.45255 -0.27659,0.44979 -0.38724,0.46458 -3.47644,0.46458 -3.08922,0 -3.19987,-0.0148 -3.47646,-0.46458 z m 51.40326,-9.95145 c -0.39846,-0.50151 -0.38549,-1.14094 0.0319,-1.57118 0.30269,-0.31202 1.21929,-0.34595 9.34634,-0.34595 9.79874,0 9.58751,-0.0253 9.58751,1.1497 0,1.17531 0.21422,1.1497 -9.61939,1.1497 -8.52728,0 -9.05993,-0.0218 -9.34635,-0.38227 z m 3.32077,-4.02423 c -0.40301,-0.26738 -0.42242,-1.30131 -0.0328,-1.74514 0.24993,-0.28469 1.05742,-0.32849 6.05612,-0.32849 5.52303,0 5.7833,0.0177 6.13477,0.41807 0.44171,0.50314 0.45892,0.80274 0.0813,1.41675 -0.28515,0.4637 -0.29665,0.46457 -6.10199,0.45822 -3.60802,-0.004 -5.93826,-0.0872 -6.13748,-0.21941 z M 311.4655,362.0887 c -0.92489,-1.13673 -0.26242,-3.00051 1.06651,-3.00051 1.0109,0 1.76994,1.09648 1.52586,2.20419 -0.29702,1.34797 -1.77431,1.80177 -2.59237,0.79632 z m 82.75074,0.30862 c -0.39633,-0.21859 -0.8009,-0.99261 -0.8009,-1.53233 0,-1.51356 1.73069,-2.3329 2.66937,-1.26371 1.28616,1.465 -0.21335,3.70891 -1.86847,2.79604 z m 26.24316,0 c -0.39633,-0.21859 -0.80088,-0.99261 -0.80088,-1.53233 0,-1.51356 1.73068,-2.3329 2.66935,-1.26371 1.28617,1.465 -0.21333,3.70891 -1.86847,2.79604 z m 23.54009,-0.18876 c -0.39014,-0.34954 -0.48354,-0.6091 -0.48354,-1.34357 0,-0.73445 0.0934,-0.99401 0.48354,-1.34356 0.26594,-0.23828 0.70901,-0.43324 0.9846,-0.43324 0.27558,0 0.71865,0.19496 0.98461,0.43324 0.39012,0.34955 0.48354,0.60911 0.48354,1.34356 0,0.73447 -0.0935,0.99403 -0.48354,1.34357 -0.26596,0.23829 -0.70903,0.43325 -0.98461,0.43325 -0.27559,0 -0.71866,-0.19496 -0.9846,-0.43325 z"
       id="path9913" /></g></svg>
