<?xml version="1.0" encoding="UTF-8" standalone="no"?>
<!-- Created with Inkscape (http://www.inkscape.org/) -->

<svg
   width="191.01855"
   height="96.654457"
   id="svg3792"
   version="1.1"
   inkscape:version="1.2.2 (732a01da63, 2022-12-09)"
   sodipodi:docname="lipujelopka.svg"
   xml:space="preserve"
   xmlns:inkscape="http://www.inkscape.org/namespaces/inkscape"
   xmlns:sodipodi="http://sodipodi.sourceforge.net/DTD/sodipodi-0.dtd"
   xmlns="http://www.w3.org/2000/svg"
   xmlns:svg="http://www.w3.org/2000/svg"
   xmlns:rdf="http://www.w3.org/1999/02/22-rdf-syntax-ns#"
   xmlns:cc="http://creativecommons.org/ns#"
   xmlns:dc="http://purl.org/dc/elements/1.1/"><title
     id="title4376">Lettre</title><defs
     id="defs3794"><inkscape:path-effect
       effect="spiro"
       id="path-effect28317"
       is_visible="true"
       lpeversion="1" /><inkscape:path-effect
       effect="simplify"
       id="path-effect28315"
       is_visible="true"
       lpeversion="1"
       steps="1"
       threshold="0.0142857"
       smooth_angles="360"
       helper_size="0"
       simplify_individual_paths="false"
       simplify_just_coalesce="false" /><inkscape:path-effect
       effect="spiro"
       id="path-effect28311"
       is_visible="true"
       lpeversion="1" /><inkscape:path-effect
       effect="simplify"
       id="path-effect28309"
       is_visible="true"
       lpeversion="1"
       steps="1"
       threshold="0.0142857"
       smooth_angles="360"
       helper_size="0"
       simplify_individual_paths="false"
       simplify_just_coalesce="false" /><inkscape:path-effect
       effect="spiro"
       id="path-effect28305"
       is_visible="true"
       lpeversion="1" /><inkscape:path-effect
       effect="simplify"
       id="path-effect28303"
       is_visible="true"
       lpeversion="1"
       steps="1"
       threshold="0.0142857"
       smooth_angles="360"
       helper_size="0"
       simplify_individual_paths="false"
       simplify_just_coalesce="false" /><inkscape:path-effect
       effect="spiro"
       id="path-effect28299"
       is_visible="true"
       lpeversion="1" /><inkscape:path-effect
       effect="simplify"
       id="path-effect28297"
       is_visible="true"
       lpeversion="1"
       steps="1"
       threshold="0.0142857"
       smooth_angles="360"
       helper_size="0"
       simplify_individual_paths="false"
       simplify_just_coalesce="false" /><inkscape:path-effect
       effect="spiro"
       id="path-effect28015"
       is_visible="true"
       lpeversion="1" /><inkscape:path-effect
       effect="simplify"
       id="path-effect28013"
       is_visible="true"
       lpeversion="1"
       steps="1"
       threshold="0.0142857"
       smooth_angles="360"
       helper_size="0"
       simplify_individual_paths="false"
       simplify_just_coalesce="false" /><inkscape:path-effect
       effect="spiro"
       id="path-effect28009"
       is_visible="true"
       lpeversion="1" /><inkscape:path-effect
       effect="simplify"
       id="path-effect28007"
       is_visible="true"
       lpeversion="1"
       steps="1"
       threshold="0.0142857"
       smooth_angles="360"
       helper_size="0"
       simplify_individual_paths="false"
       simplify_just_coalesce="false" /><inkscape:path-effect
       effect="spiro"
       id="path-effect27960"
       is_visible="true"
       lpeversion="1" /><inkscape:path-effect
       effect="simplify"
       id="path-effect27958"
       is_visible="true"
       lpeversion="1"
       steps="1"
       threshold="0.0142857"
       smooth_angles="360"
       helper_size="0"
       simplify_individual_paths="false"
       simplify_just_coalesce="false" /><inkscape:path-effect
       effect="spiro"
       id="path-effect27954"
       is_visible="true"
       lpeversion="1" /><inkscape:path-effect
       effect="simplify"
       id="path-effect27952"
       is_visible="true"
       lpeversion="1"
       steps="1"
       threshold="0.0142857"
       smooth_angles="360"
       helper_size="0"
       simplify_individual_paths="false"
       simplify_just_coalesce="false" /><inkscape:path-effect
       effect="spiro"
       id="path-effect27948"
       is_visible="true"
       lpeversion="1" /><inkscape:path-effect
       effect="simplify"
       id="path-effect27946"
       is_visible="true"
       lpeversion="1"
       steps="1"
       threshold="0.0142857"
       smooth_angles="360"
       helper_size="0"
       simplify_individual_paths="false"
       simplify_just_coalesce="false" /><inkscape:path-effect
       effect="spiro"
       id="path-effect27942"
       is_visible="true"
       lpeversion="1" /><inkscape:path-effect
       effect="simplify"
       id="path-effect27940"
       is_visible="true"
       lpeversion="1"
       steps="1"
       threshold="0.0142857"
       smooth_angles="360"
       helper_size="0"
       simplify_individual_paths="false"
       simplify_just_coalesce="false" /><inkscape:path-effect
       effect="spiro"
       id="path-effect27936"
       is_visible="true"
       lpeversion="1" /><inkscape:path-effect
       effect="simplify"
       id="path-effect27934"
       is_visible="true"
       lpeversion="1"
       steps="1"
       threshold="0.0142857"
       smooth_angles="360"
       helper_size="0"
       simplify_individual_paths="false"
       simplify_just_coalesce="false" /><inkscape:path-effect
       effect="spiro"
       id="path-effect27930"
       is_visible="true"
       lpeversion="1" /><inkscape:path-effect
       effect="simplify"
       id="path-effect27928"
       is_visible="true"
       lpeversion="1"
       steps="1"
       threshold="0.0142857"
       smooth_angles="360"
       helper_size="0"
       simplify_individual_paths="false"
       simplify_just_coalesce="false" /><inkscape:path-effect
       effect="spiro"
       id="path-effect27924"
       is_visible="true"
       lpeversion="1" /><inkscape:path-effect
       effect="simplify"
       id="path-effect27922"
       is_visible="true"
       lpeversion="1"
       steps="1"
       threshold="0.0142857"
       smooth_angles="360"
       helper_size="0"
       simplify_individual_paths="false"
       simplify_just_coalesce="false" /><inkscape:path-effect
       effect="spiro"
       id="path-effect27918"
       is_visible="true"
       lpeversion="1" /><inkscape:path-effect
       effect="simplify"
       id="path-effect27916"
       is_visible="true"
       lpeversion="1"
       steps="1"
       threshold="0.0142857"
       smooth_angles="360"
       helper_size="0"
       simplify_individual_paths="false"
       simplify_just_coalesce="false" /><inkscape:path-effect
       effect="spiro"
       id="path-effect27900"
       is_visible="true"
       lpeversion="1" /><inkscape:path-effect
       effect="simplify"
       id="path-effect27898"
       is_visible="true"
       lpeversion="1"
       steps="1"
       threshold="0.0142857"
       smooth_angles="360"
       helper_size="0"
       simplify_individual_paths="false"
       simplify_just_coalesce="false" /><inkscape:path-effect
       effect="spiro"
       id="path-effect27894"
       is_visible="true"
       lpeversion="1" /><inkscape:path-effect
       effect="simplify"
       id="path-effect27892"
       is_visible="true"
       lpeversion="1"
       steps="1"
       threshold="0.0142857"
       smooth_angles="360"
       helper_size="0"
       simplify_individual_paths="false"
       simplify_just_coalesce="false" /><inkscape:path-effect
       effect="spiro"
       id="path-effect27162"
       is_visible="true"
       lpeversion="1" /><inkscape:path-effect
       effect="simplify"
       id="path-effect27160"
       is_visible="true"
       lpeversion="1"
       steps="1"
       threshold="0.0142857"
       smooth_angles="360"
       helper_size="0"
       simplify_individual_paths="false"
       simplify_just_coalesce="false" /><inkscape:path-effect
       effect="spiro"
       id="path-effect22539"
       is_visible="true"
       lpeversion="1" /><inkscape:path-effect
       effect="simplify"
       id="path-effect22537"
       is_visible="true"
       lpeversion="1"
       steps="1"
       threshold="0.0142857"
       smooth_angles="360"
       helper_size="0"
       simplify_individual_paths="false"
       simplify_just_coalesce="false" /><inkscape:path-effect
       effect="spiro"
       id="path-effect22533"
       is_visible="true"
       lpeversion="1" /><inkscape:path-effect
       effect="simplify"
       id="path-effect22531"
       is_visible="true"
       lpeversion="1"
       steps="1"
       threshold="0.0142857"
       smooth_angles="360"
       helper_size="0"
       simplify_individual_paths="false"
       simplify_just_coalesce="false" /><inkscape:path-effect
       effect="spiro"
       id="path-effect21801"
       is_visible="true"
       lpeversion="1" /><inkscape:path-effect
       effect="simplify"
       id="path-effect21799"
       is_visible="true"
       lpeversion="1"
       steps="1"
       threshold="0.0142857"
       smooth_angles="360"
       helper_size="0"
       simplify_individual_paths="false"
       simplify_just_coalesce="false" /><inkscape:path-effect
       effect="spiro"
       id="path-effect21063"
       is_visible="true"
       lpeversion="1" /><inkscape:path-effect
       effect="simplify"
       id="path-effect21061"
       is_visible="true"
       lpeversion="1"
       steps="1"
       threshold="0.0142857"
       smooth_angles="360"
       helper_size="0"
       simplify_individual_paths="false"
       simplify_just_coalesce="false" /><inkscape:path-effect
       effect="spiro"
       id="path-effect20331"
       is_visible="true"
       lpeversion="1" /><inkscape:path-effect
       effect="simplify"
       id="path-effect20329"
       is_visible="true"
       lpeversion="1"
       steps="1"
       threshold="0.0142857"
       smooth_angles="360"
       helper_size="0"
       simplify_individual_paths="false"
       simplify_just_coalesce="false" /><inkscape:path-effect
       effect="spiro"
       id="path-effect19599"
       is_visible="true"
       lpeversion="1" /><inkscape:path-effect
       effect="simplify"
       id="path-effect19597"
       is_visible="true"
       lpeversion="1"
       steps="1"
       threshold="0.0142857"
       smooth_angles="360"
       helper_size="0"
       simplify_individual_paths="false"
       simplify_just_coalesce="false" /><inkscape:path-effect
       effect="spiro"
       id="path-effect19593"
       is_visible="true"
       lpeversion="1" /><inkscape:path-effect
       effect="simplify"
       id="path-effect19591"
       is_visible="true"
       lpeversion="1"
       steps="1"
       threshold="0.0142857"
       smooth_angles="360"
       helper_size="0"
       simplify_individual_paths="false"
       simplify_just_coalesce="false" /><inkscape:path-effect
       effect="spiro"
       id="path-effect19587"
       is_visible="true"
       lpeversion="1" /><inkscape:path-effect
       effect="simplify"
       id="path-effect19585"
       is_visible="true"
       lpeversion="1"
       steps="1"
       threshold="0.0142857"
       smooth_angles="360"
       helper_size="0"
       simplify_individual_paths="false"
       simplify_just_coalesce="false" /><inkscape:path-effect
       effect="spiro"
       id="path-effect19581"
       is_visible="true"
       lpeversion="1" /><inkscape:path-effect
       effect="simplify"
       id="path-effect19579"
       is_visible="true"
       lpeversion="1"
       steps="1"
       threshold="0.0142857"
       smooth_angles="360"
       helper_size="0"
       simplify_individual_paths="false"
       simplify_just_coalesce="false" /><inkscape:path-effect
       effect="spiro"
       id="path-effect18123"
       is_visible="true"
       lpeversion="1" /><inkscape:path-effect
       effect="simplify"
       id="path-effect18121"
       is_visible="true"
       lpeversion="1"
       steps="1"
       threshold="0.0142857"
       smooth_angles="360"
       helper_size="0"
       simplify_individual_paths="false"
       simplify_just_coalesce="false" /><inkscape:path-effect
       effect="spiro"
       id="path-effect18117"
       is_visible="true"
       lpeversion="1" /><inkscape:path-effect
       effect="simplify"
       id="path-effect18115"
       is_visible="true"
       lpeversion="1"
       steps="1"
       threshold="0.0142857"
       smooth_angles="360"
       helper_size="0"
       simplify_individual_paths="false"
       simplify_just_coalesce="false" /><inkscape:path-effect
       effect="spiro"
       id="path-effect18111"
       is_visible="true"
       lpeversion="1" /><inkscape:path-effect
       effect="simplify"
       id="path-effect18109"
       is_visible="true"
       lpeversion="1"
       steps="1"
       threshold="0.0142857"
       smooth_angles="360"
       helper_size="0"
       simplify_individual_paths="false"
       simplify_just_coalesce="false" /><inkscape:path-effect
       effect="spiro"
       id="path-effect17379"
       is_visible="true"
       lpeversion="1" /><inkscape:path-effect
       effect="simplify"
       id="path-effect17377"
       is_visible="true"
       lpeversion="1"
       steps="1"
       threshold="0.0142857"
       smooth_angles="360"
       helper_size="0"
       simplify_individual_paths="false"
       simplify_just_coalesce="false" /><inkscape:path-effect
       effect="spiro"
       id="path-effect17361"
       is_visible="true"
       lpeversion="1" /><inkscape:path-effect
       effect="simplify"
       id="path-effect17359"
       is_visible="true"
       lpeversion="1"
       steps="1"
       threshold="0.0142857"
       smooth_angles="360"
       helper_size="0"
       simplify_individual_paths="false"
       simplify_just_coalesce="false" /><inkscape:path-effect
       effect="spiro"
       id="path-effect17349"
       is_visible="true"
       lpeversion="1" /><inkscape:path-effect
       effect="simplify"
       id="path-effect17347"
       is_visible="true"
       lpeversion="1"
       steps="1"
       threshold="0.0142857"
       smooth_angles="360"
       helper_size="0"
       simplify_individual_paths="false"
       simplify_just_coalesce="false" /><inkscape:path-effect
       effect="spiro"
       id="path-effect15102"
       is_visible="true"
       lpeversion="1" /><inkscape:path-effect
       effect="simplify"
       id="path-effect15100"
       is_visible="true"
       lpeversion="1"
       steps="1"
       threshold="0.0142857"
       smooth_angles="360"
       helper_size="0"
       simplify_individual_paths="false"
       simplify_just_coalesce="false" /><inkscape:path-effect
       effect="spiro"
       id="path-effect15096"
       is_visible="true"
       lpeversion="1" /><inkscape:path-effect
       effect="simplify"
       id="path-effect15094"
       is_visible="true"
       lpeversion="1"
       steps="1"
       threshold="0.0142857"
       smooth_angles="360"
       helper_size="0"
       simplify_individual_paths="false"
       simplify_just_coalesce="false" /><inkscape:path-effect
       effect="spiro"
       id="path-effect15090"
       is_visible="true"
       lpeversion="1" /><inkscape:path-effect
       effect="simplify"
       id="path-effect15088"
       is_visible="true"
       lpeversion="1"
       steps="1"
       threshold="0.0142857"
       smooth_angles="360"
       helper_size="0"
       simplify_individual_paths="false"
       simplify_just_coalesce="false" /><inkscape:path-effect
       effect="spiro"
       id="path-effect15084"
       is_visible="true"
       lpeversion="1" /><inkscape:path-effect
       effect="simplify"
       id="path-effect15082"
       is_visible="true"
       lpeversion="1"
       steps="1"
       threshold="0.0142857"
       smooth_angles="360"
       helper_size="0"
       simplify_individual_paths="false"
       simplify_just_coalesce="false" /><inkscape:path-effect
       effect="spiro"
       id="path-effect15078"
       is_visible="true"
       lpeversion="1" /><inkscape:path-effect
       effect="simplify"
       id="path-effect15076"
       is_visible="true"
       lpeversion="1"
       steps="1"
       threshold="0.0142857"
       smooth_angles="360"
       helper_size="0"
       simplify_individual_paths="false"
       simplify_just_coalesce="false" /><inkscape:path-effect
       effect="simplify"
       id="path-effect15056"
       is_visible="true"
       lpeversion="1"
       steps="1"
       threshold="0.00243902"
       smooth_angles="360"
       helper_size="0"
       simplify_individual_paths="false"
       simplify_just_coalesce="false" /><inkscape:path-effect
       effect="simplify"
       id="path-effect10006"
       is_visible="true"
       lpeversion="1"
       steps="1"
       threshold="0.00243902"
       smooth_angles="360"
       helper_size="0"
       simplify_individual_paths="false"
       simplify_just_coalesce="false" /><inkscape:path-effect
       effect="spiro"
       id="path-effect9899"
       is_visible="true"
       lpeversion="1" /><inkscape:path-effect
       effect="simplify"
       id="path-effect9897"
       is_visible="true"
       lpeversion="1"
       steps="1"
       threshold="0.00108696"
       smooth_angles="360"
       helper_size="0"
       simplify_individual_paths="false"
       simplify_just_coalesce="false" /><filter
       id="filter7649"
       style="color-interpolation-filters:sRGB"
       height="1.026269"
       width="1.0220918"
       y="-0.013134523"
       x="-0.011045884"><feGaussianBlur
         id="feGaussianBlur7651"
         stdDeviation="15.120052" /></filter><inkscape:path-effect
       effect="simplify"
       id="path-effect10006-8"
       is_visible="true"
       lpeversion="1"
       steps="1"
       threshold="0.00243902"
       smooth_angles="360"
       helper_size="0"
       simplify_individual_paths="false"
       simplify_just_coalesce="false" /><inkscape:path-effect
       effect="simplify"
       id="path-effect10006-0"
       is_visible="true"
       lpeversion="1"
       steps="1"
       threshold="0.00243902"
       smooth_angles="360"
       helper_size="0"
       simplify_individual_paths="false"
       simplify_just_coalesce="false" /><inkscape:path-effect
       effect="simplify"
       id="path-effect10006-81"
       is_visible="true"
       lpeversion="1"
       steps="1"
       threshold="0.00243902"
       smooth_angles="360"
       helper_size="0"
       simplify_individual_paths="false"
       simplify_just_coalesce="false" /><inkscape:path-effect
       effect="simplify"
       id="path-effect10006-9"
       is_visible="true"
       lpeversion="1"
       steps="1"
       threshold="0.00243902"
       smooth_angles="360"
       helper_size="0"
       simplify_individual_paths="false"
       simplify_just_coalesce="false" /><inkscape:path-effect
       effect="simplify"
       id="path-effect10006-82"
       is_visible="true"
       lpeversion="1"
       steps="1"
       threshold="0.00243902"
       smooth_angles="360"
       helper_size="0"
       simplify_individual_paths="false"
       simplify_just_coalesce="false" /><inkscape:path-effect
       effect="simplify"
       id="path-effect10006-1"
       is_visible="true"
       lpeversion="1"
       steps="1"
       threshold="0.00243902"
       smooth_angles="360"
       helper_size="0"
       simplify_individual_paths="false"
       simplify_just_coalesce="false" /><inkscape:path-effect
       effect="simplify"
       id="path-effect10006-3"
       is_visible="true"
       lpeversion="1"
       steps="1"
       threshold="0.00243902"
       smooth_angles="360"
       helper_size="0"
       simplify_individual_paths="false"
       simplify_just_coalesce="false" /><inkscape:path-effect
       effect="simplify"
       id="path-effect10006-36"
       is_visible="true"
       lpeversion="1"
       steps="1"
       threshold="0.00243902"
       smooth_angles="360"
       helper_size="0"
       simplify_individual_paths="false"
       simplify_just_coalesce="false" /><inkscape:path-effect
       effect="simplify"
       id="path-effect10006-31"
       is_visible="true"
       lpeversion="1"
       steps="1"
       threshold="0.00243902"
       smooth_angles="360"
       helper_size="0"
       simplify_individual_paths="false"
       simplify_just_coalesce="false" /><inkscape:path-effect
       effect="simplify"
       id="path-effect22531-5"
       is_visible="true"
       lpeversion="1"
       steps="1"
       threshold="0.0142857"
       smooth_angles="360"
       helper_size="0"
       simplify_individual_paths="false"
       simplify_just_coalesce="false" /><inkscape:path-effect
       effect="spiro"
       id="path-effect22533-5"
       is_visible="true"
       lpeversion="1" /><inkscape:path-effect
       effect="simplify"
       id="path-effect22537-3"
       is_visible="true"
       lpeversion="1"
       steps="1"
       threshold="0.0142857"
       smooth_angles="360"
       helper_size="0"
       simplify_individual_paths="false"
       simplify_just_coalesce="false" /><inkscape:path-effect
       effect="spiro"
       id="path-effect22539-4"
       is_visible="true"
       lpeversion="1" /><inkscape:path-effect
       effect="simplify"
       id="path-effect27958-0"
       is_visible="true"
       lpeversion="1"
       steps="1"
       threshold="0.0142857"
       smooth_angles="360"
       helper_size="0"
       simplify_individual_paths="false"
       simplify_just_coalesce="false" /><inkscape:path-effect
       effect="spiro"
       id="path-effect27960-9"
       is_visible="true"
       lpeversion="1" /><inkscape:path-effect
       effect="simplify"
       id="path-effect27952-6"
       is_visible="true"
       lpeversion="1"
       steps="1"
       threshold="0.0142857"
       smooth_angles="360"
       helper_size="0"
       simplify_individual_paths="false"
       simplify_just_coalesce="false" /><inkscape:path-effect
       effect="spiro"
       id="path-effect27954-1"
       is_visible="true"
       lpeversion="1" /></defs><sodipodi:namedview
     id="base"
     pagecolor="#ffffff"
     bordercolor="#666666"
     borderopacity="1.0"
     inkscape:pageopacity="0.0"
     inkscape:pageshadow="2"
     inkscape:zoom="2.8284271"
     inkscape:cx="113.13709"
     inkscape:cy="0"
     inkscape:document-units="px"
     inkscape:current-layer="layer1"
     showgrid="false"
     inkscape:window-width="1366"
     inkscape:window-height="745"
     inkscape:window-x="-8"
     inkscape:window-y="-8"
     inkscape:window-maximized="1"
     fit-margin-top="0"
     fit-margin-left="0"
     fit-margin-right="0"
     fit-margin-bottom="0"
     inkscape:showpageshadow="false"
     inkscape:pagecheckerboard="0"
     inkscape:deskcolor="#d1d1d1" /><metadata
     id="metadata3797"><rdf:RDF><cc:Work
         rdf:about=""><dc:format>image/svg+xml</dc:format><dc:type
           rdf:resource="http://purl.org/dc/dcmitype/StillImage" /><cc:license
           rdf:resource="http://creativecommons.org/licenses/publicdomain/" /><dc:title>Lettre</dc:title><dc:date>2011-01-11</dc:date><dc:creator><cc:Agent><dc:title>lmproulx</dc:title></cc:Agent></dc:creator></cc:Work><cc:License
         rdf:about="http://creativecommons.org/licenses/publicdomain/"><cc:permits
           rdf:resource="http://creativecommons.org/ns#Reproduction" /><cc:permits
           rdf:resource="http://creativecommons.org/ns#Distribution" /><cc:permits
           rdf:resource="http://creativecommons.org/ns#DerivativeWorks" /></cc:License></rdf:RDF></metadata><g
     inkscape:label="Calque 1"
     inkscape:groupmode="layer"
     id="layer1"
     transform="translate(-283.91317,-310.61523)"><path
       style="display:inline;fill:#ffffff;fill-opacity:1;stroke:#000000;stroke-width:2.02116;stroke-linecap:round;stroke-linejoin:round;stroke-miterlimit:4;stroke-dasharray:none;stroke-dashoffset:3.003;stroke-opacity:1"
       d="m 284.92375,311.62581 2.96855,94.6333 184.04982,-0.87623 1.97903,-93.75707 z"
       id="path3800"
       inkscape:connector-curvature="0"
       sodipodi:nodetypes="ccccc" /><path
       id="path7647"
       d="m 174,36.288 -33.106,0.26367 -33.106,0.26172 -0.625,7.5 c -2.7451,32.939 -31.559,62.331 -66.195,67.525 l -4.6797,0.70312 v 47.271 47.27 l 5.3047,0.66406 c 87.639,10.95 86.353,135.92 -1.5547,151.01 l -3.75,0.64453 v 40.26 40.26 l 7.25,1.2246 c 45.236,-7.192 64.357,48.584 64.264,74.426 h -0.014 l -0.625,7.5 c -2.7451,32.939 -31.559,62.331 -66.195,67.525 l -4.6797,0.70312 v 47.271 47.27 l 5.3047,0.66406 c 87.639,10.95 86.353,135.92 -1.5547,151.01 l -3.75,0.64453 v 40.26 40.26 l 7.25,1.2246 c 82.909,14.002 84.897,130.78999 2.543,149.35999 l -9.793,2.2071 v 36.299 36.299 h 2.3399 c 9.6788,0 29.834,8.5935 40.642,17.328 50.564,40.863 29.681,120.38 -35.023,133.36 l -7.959,1.5957 v 36.162 36.164 l 7.25,1.2246 c 83.777,14.148 84.48,133.05 0.8848,149.82 l -8.1348,1.6309 v 36.154 36.154 l 7.125,1.2226 c 84.85,14.55 84.231,135.48 -0.7695,150.28 l -6.3555,1.1074 v 36.396 36.396 h 2.3106 c 14.445,0 39.573,13.657 51.363,27.916 37.423,45.258 11.533,112.93 -47.107,123.15 l -6.5664,1.1445 v 40.172 40.172 l 8.75,1.791 c 64.937,13.295 84.777,94.403 32.811,134.14 -10.728,8.2025 -30.73,16.522 -39.721,16.522 -1.7487,0 -1.8399,1.6026 -1.8399,32.275 v 32.275 l 8.3516,1.7187 c 73.667,15.164 86.001,111.24 18.393,143.27 -6.8649,3.2523 -20.917,7.4629 -24.904,7.4629 -1.7563,0 -1.8399,1.8372 -1.8399,40.387 v 40.387 l 4.6797,0.7032 c 87.501,13.122 87.501,137.93 0,151.05 l -4.6797,0.7031 v 32.137 32.135 l 10.25,0.1777 c 41.71,0.7219 77.649,34.737 77.734,73.572 l 0.016,6.75 h 33.031 c 25.576,0 33.108,-0.2821 33.373,-1.25 0.1881,-0.6875 0.8826,-4.175 1.543,-7.75 14.816,-80.196 140.34,-79.772 155.91,0.5274 l 1.6426,8.4667 h 37.205 37.203 l 0.6446,-3.75 c 9.1378,-53.208 65.77,-81.661 114.95,-57.75 23.808,11.576 36.816,29.364 42.963,58.75 l 0.5742,2.75 h 32.936 32.936 l 0.5957,-3.75 c 13.59,-85.611 141.56,-87.912 157.7,-2.8359 l 1.2481,6.5859 h 37.17 37.17 l 1.1485,-6.6015 c 14.518,-83.37 147.04,-82.65 156.65,0.8515 l 0.6621,5.75 h 41.768 41.77 l 1.1719,-6.75 c 14.481,-83.357 144.77,-82.633 156.79,0.8711 l 0.7735,5.3789 37.514,0.2618 37.512,0.2617 1.0761,-6.8281 c 8.3364,-52.942 76.344,-80.993 122.17,-50.393 19.714,13.163 35.197,37.11 35.197,54.438 v 2.7812 l 41.693,-0.2597 41.695,-0.2618 1.3672,-7.5 c 9.4559,-51.829 73.815,-78.703 120.53,-50.328 19.182,11.652 36.719,38.186 36.719,55.559 v 2.7695 h 37.455 37.455 l 0.6152,-3.75 c 14.565,-88.653 141.13,-87.852 157.99,1 l 0.5215,2.75 h 41.438 41.433 l 0.617,-3.75 c 14.652,-89.183 140.61,-87.988 158.08,1.5 l 0.437,2.25 h 41.463 41.463 l 0.519,-2.75 c 7.753,-40.865 38.755,-67.25 79.018,-67.25 40.3,0 71.257,26.347 79.016,67.25 l 0.521,2.75 h 41.463 41.463 l 0.519,-2.75 c 16.866,-88.901 143.42,-89.702 157.99,-1 l 0.615,3.75 h 37.205 37.205 l 1.643,-8.4667 c 15.548,-80.17 141.31,-80.595 155.92,-0.5274 0.652,3.575 1.342,7.0625 1.53,7.75 0.265,0.9678 7.788,1.25 33.328,1.25 h 32.984 l 0.617,-3.75 c 14.221,-86.557 140.47,-88.16 157.48,-2 l 1.137,5.75 h 36.785 36.785 l 0.683,-8.25 c 3.006,-36.224 27.719,-62.938 65.854,-71.191 l 2.75,-0.5957 v -32.463 -32.461 l -2.75,-0.5957 c -40.097,-8.6786 -65.588,-38 -65.588,-75.443 0,-37.472 25.461,-66.756 65.588,-75.441 l 2.75,-0.5957 v -40.512 c 0,-31.573 -0.276,-40.583 -1.25,-40.832 -0.688,-0.1758 -4.4,-1.0713 -8.25,-1.9882 -77.675,-18.498 -77.295,-130.95 0.5,-147.62 3.025,-0.6483 6.287,-1.3962 7.25,-1.6602 2.265,-0.6214 2.756,-65.15 0.5,-65.727 -0.688,-0.1758 -4.4,-1.0713 -8.25,-1.9882 -81.91,-19.507 -76.863,-130.98 6.75,-149.07 l 2.75,-0.5957 v -40.512 c 0,-31.547 -0.277,-40.595 -1.25,-40.881 -0.688,-0.202 -4.4,-1.082 -8.25,-1.957 -72.239,-16.419 -79.512,-116.12 -10.5,-143.92 5.883,-2.3703 8.377,-3.1091 17.25,-5.1075 l 2.75,-0.6191 v -36.512 c 0,-28.347 -0.28,-36.596 -1.25,-36.881 -0.688,-0.202 -4.4,-1.0941 -8.25,-1.9824 -79.578,-18.36 -76.705,-132.17 3.75,-148.56 l 5.75,-1.1719 v -36.461 c 0,-28.306 -0.28,-36.543 -1.25,-36.828 -0.688,-0.202 -4.374,-1.0912 -8.193,-1.9765 -78.1,-18.104 -76.567,-134.98 1.943,-148.1 8.343,-1.3938 7.556,2.7516 7.262,-38.213 l -0.262,-36.578 -7.693,-1.8165 c -80.998,-19.11 -79.135,-132.04 2.455,-148.85 l 5.761,-1.1875 -0.261,-36.576 -0.262,-36.574 -7.693,-1.8165 c -81.007,-19.112 -79.153,-132.03999 2.443,-148.83999 l 5.75,-1.1836 v -40.701 -40.701 l -6.504,-1.2344 c -81.999,-15.555 -81.409,-132.26 0.754,-149.18 l 5.75,-1.1836 -0.01,-47.18 -0.01,-47.18 -8.736,-0.2168 h -0.01 c -26.403,-3.845 -58.203,-40.859 -59.181,-71.309 0.481,-32.768 21.342,-70.28 62.197,-78.693 l 5.75,-1.1836 v -40.701 -40.701 l -6.504,-1.2344 c -81.999,-15.555 -81.409,-132.26 0.754,-149.18 l 5.75,-1.1836 -0.01,-47.18 -0.01,-47.18 -8.736,-0.2168 h -0.01 c -39.588,-0.9945 -76.234,-35.338 -76.234,-71.443 v -4.8398 h -41.5 -41.5 v 3.543 c 0,92.315 -150.89,95.886 -158.68,3.7559 l -0.615,-7.2988 h -32.674 -32.674 l -1.175,8.832 c -11.773,88.423 -143.65,89.722 -158,1.5566 l -1.689,-10.385 h -36.75 -36.75 v 3.543 c 0,92.358 -150.89,95.929 -158.68,3.7559 l -0.615,-7.2988 h -41.353 -41.354 v 3.543 c 0,32.139 -28.277,63.994 -63.5,71.533 -45.882,9.8209 -95.5,-27.203 -95.5,-71.26 v -3.8164 h -41.363 -41.362 l -0.683,6.75 c -9.235,91.163 -150.57,91.653 -158.27,0.54883 l -0.615,-7.2988 h -41.207 -41.207 l -0.625,7.3848 c -7.6273,90.231 -150.71,90.223 -158.34,-0.01 l -0.6231,-7.375 h -36.728 -36.728 l -0.625,3.125 c -0.3437,1.7188 -0.625,4.3355 -0.625,5.8164 0,15.126 -14.074,39.423 -29.463,50.863 -49.549,36.836 -120.77,8.7422 -128.69,-50.766 l -1.2051,-9.0391 h -40.703 -40.703 l -0.6015,2.25 c -0.3317,1.2375 -0.6097,3.7958 -0.6172,5.6856 -0.064,16.181 -13.528,39.8 -29.508,51.768 -50.063,37.492 -122.91,7.6125 -129.09,-52.953 l -0.6894,-6.75 h -36.682 -36.682 l -1.1758,8.8301 c -11.916,89.495 -150.57,88.547 -157.85,-1.0801 l -0.6289,-7.75 h -41.213 -41.215 l -0.6484,6.3301 c -9.4334,92.073 -158.63,90.764 -158.63,-1.3945 v -4.9394 h -37.5 -37.5 v 5.3398 c 0,91.384 -150.07,92.718 -158.65,1.4102 l -0.6348,-6.75 h -32.711 -32.709 l -0.6172,7.25 c -7.7664,91.281 -158.68,88.716 -158.68,-2.6973 v -4.5527 h -32.791 -32.789 l -1.6328,10.299 c -14.023,88.403 -151.44,86.17 -157.54,-2.5606 z"
       filter="url(#filter7649)"
       transform="matrix(0,0.00912311,-0.01074416,0,463.76545,317.08463)" /><path
       id="path4687"
       d="m 463.30807,318.61846 -0.003,-0.30204 -0.003,-0.30202 -0.0806,-0.006 c -0.35391,-0.0251 -0.6697,-0.28791 -0.72551,-0.6039 l -0.008,-0.0427 h -0.50788 -0.50787 l -0.008,0.0485 c -0.11765,0.79954 -1.46035,0.78781 -1.62247,-0.0141 l -0.008,-0.0343 h -0.43256 -0.43255 l -0.0133,0.0661 c 0.0773,0.4127 -0.52199,0.58714 -0.79965,0.58629 v -1.3e-4 l -0.0806,-0.006 c -0.35389,-0.0251 -0.66969,-0.28792 -0.72549,-0.6039 l -0.008,-0.0427 h -0.50788 -0.50789 l -0.008,0.0484 c -0.11764,0.79955 -1.46034,0.78781 -1.62247,-0.0141 l -0.008,-0.0343 h -0.43255 -0.43257 l -0.0132,0.0661 c -0.15044,0.75638 -1.40523,0.77452 -1.60475,0.0232 l -0.0238,-0.0893 h -0.39001 -0.39 v 0.0213 c 0,0.0883 -0.0923,0.27218 -0.18617,0.37079 -0.43905,0.46129 -1.29339,0.27077 -1.43284,-0.31952 l -0.0171,-0.0726 h -0.38854 -0.38854 l -0.0132,0.0662 c -0.152,0.76431 -1.4295,0.77072 -1.60969,0.008 l -0.0175,-0.0742 H 446.95844 446.57 l -0.0132,0.065 c -0.15632,0.77409 -1.45562,0.76845 -1.61463,-0.007 l -0.0119,-0.058 h -0.39104 -0.39104 v 0.0211 c 0,0.13179 -0.14674,0.36103 -0.29994,0.4686 -0.48626,0.34141 -1.21335,0.10522 -1.32315,-0.42977 l -0.0123,-0.0599 h -0.43161 -0.43161 l -0.0193,0.0798 c -0.14283,0.59242 -1.01428,0.77343 -1.44121,0.29934 -0.0881,-0.0979 -0.17752,-0.28035 -0.17752,-0.36238 0,-0.0159 -0.0172,-0.0168 -0.34677,-0.0168 h -0.34677 l -0.0185,0.0762 c -0.16291,0.67208 -1.19518,0.7846 -1.53932,0.16781 -0.0349,-0.0627 -0.0802,-0.19083 -0.0802,-0.22721 0,-0.016 -0.0197,-0.0169 -0.43392,-0.0169 h -0.43393 l -0.008,0.0427 c -0.14099,0.79828 -1.48196,0.79828 -1.62292,0 l -0.008,-0.0427 h -0.34528 -0.34527 l -0.002,0.0935 c -0.008,0.38053 -0.37322,0.70841 -0.79047,0.70918 l -0.0725,1.3e-4 v 0.30135 c 0,0.23333 0.004,0.30205 0.0134,0.30446 0.008,0.002 0.0448,0.008 0.0833,0.0141 0.86165,0.13517 0.85709,1.28034 -0.006,1.42239 l -0.091,0.015 v 0.33942 0.33941 l 0.0403,0.006 c 0.57168,0.0834 0.87738,0.60002 0.62048,1.0487 -0.12437,0.21721 -0.31549,0.33588 -0.63122,0.39196 l -0.0295,0.005 v 0.30048 0.30048 l 0.0403,0.005 c 0.91982,0.12399 0.94454,1.29147 0.0305,1.43872 l -0.0707,0.0114 v 0.3391 0.33911 l 0.0709,0.0104 c 0.89574,0.13245 0.88801,1.34146 -0.009,1.42914 l -0.0617,0.006 v 0.38106 0.38106 l 0.0725,0.0107 c 0.8956,0.1321 0.88782,1.32074 -0.009,1.4304 l -0.0578,0.007 -0.003,0.34224 -0.003,0.34224 0.0734,0.01 c 0.56881,0.076 0.8702,0.6965 0.54143,1.11458 -0.14142,0.17985 -0.39872,0.3211 -0.5849,0.3211 h -0.0299 l 0.003,0.38038 0.003,0.38037 0.0806,0.0125 c 0.55686,0.0863 0.8456,0.67341 0.54074,1.0996 -0.1252,0.175 -0.41027,0.33499 -0.59694,0.33499 h -0.0298 v 0.34171 0.3417 l 0.0403,0.005 c 0.9525,0.13287 0.94388,1.28754 -0.0107,1.44135 l -0.0295,0.004 v 0.37805 0.37799 l 0.0403,0.005 c 0.9582,0.13367 0.94536,1.28281 -0.0161,1.44218 l -0.0242,0.003 v 0.37826 0.37827 l 0.0295,0.004 c 0.43907,0.0707 0.72255,0.35356 0.72255,0.72088 0,0.36767 -0.28307,0.65009 -0.72255,0.72087 l -0.0295,0.004 v 0.37827 0.37827 l 0.0295,0.004 c 0.95518,0.15387 0.96379,1.30843 0.0107,1.44135 l -0.0403,0.005 v 0.33942 0.33943 l 0.091,0.015 c 0.86136,0.14185 0.86592,1.28919 0.006,1.42248 -0.0383,0.006 -0.0758,0.0122 -0.0832,0.014 -0.0103,0.003 -0.0134,0.0711 -0.0134,0.30406 v 0.30091 l 0.0403,0.005 c 0.92998,0.12974 0.9472,1.28153 0.0215,1.43671 l -0.0617,0.0104 v 0.3356 0.33559 l 0.0886,0.006 c 0.3892,0.0274 0.67622,0.25287 0.7649,0.60079 l 0.007,0.0251 h 0.34859 0.34876 l 0.007,-0.0251 c 0.0933,-0.36581 0.40827,-0.59836 0.81056,-0.59836 0.40261,0 0.71724,0.23228 0.81055,0.59836 l 0.007,0.0251 h 0.43527 c 0.33922,0 0.43603,-0.003 0.4387,-0.0115 0.002,-0.006 0.0115,-0.0402 0.0214,-0.0753 0.19874,-0.70863 1.40694,-0.70516 1.58605,0.004 0.008,0.0276 0.015,0.0574 0.0178,0.0662 0.008,0.0207 0.69999,0.0252 0.70619,0.004 0.002,-0.006 0.0115,-0.0402 0.0214,-0.0753 0.20959,-0.74727 1.40727,-0.70122 1.60163,0.0616 l 0.007,0.0251 h 0.43526 c 0.33895,0 0.43616,-0.003 0.43924,-0.0115 0.002,-0.006 0.0115,-0.0402 0.0209,-0.0753 0.17641,-0.65904 1.24762,-0.72539 1.54631,-0.0958 0.0255,0.0537 0.0334,0.0764 0.0549,0.15738 l 0.007,0.0251 h 0.39229 c 0.30456,0 0.39319,-0.003 0.39626,-0.0115 0.002,-0.006 0.0117,-0.0402 0.0213,-0.0753 0.19726,-0.726 1.42007,-0.69979 1.59616,0.0342 l 0.0126,0.0524 h 0.39175 c 0.30412,0 0.39262,-0.003 0.39568,-0.0115 0.002,-0.006 0.0117,-0.0399 0.0212,-0.0748 0.19451,-0.71251 1.45024,-0.69853 1.59121,0.0177 0.015,0.0761 -0.0295,0.0689 0.41056,0.0662 l 0.393,-0.003 0.0195,-0.0702 c 0.20532,-0.73895 1.41866,-0.72195 1.59927,0.0224 l 0.0128,0.0525 0.39298,-0.003 0.39296,-0.003 0.0195,-0.0702 c 0.20535,-0.73903 1.41867,-0.72211 1.59917,0.0223 l 0.0127,0.0524 h 0.4373 0.43729 l 0.0132,-0.0593 c 0.16712,-0.74808 1.42102,-0.7427 1.60282,0.007 l 0.0127,0.0524 0.50691,-10e-5 0.50691,-9e-5 0.002,-0.0797 v -1e-4 c 0.0413,-0.24087 0.439,-0.53099 0.76616,-0.5399 0.35206,0.004 0.7551,0.1947 0.84549,0.56743 l 0.0128,0.0524 h 0.43729 0.43731 l 0.0132,-0.0593 c 0.16711,-0.74808 1.42102,-0.74269 1.60281,0.007 l 0.0127,0.0524 0.50691,-1e-4 0.50692,-9e-5 0.002,-0.0797 v -10e-5 c 0.0107,-0.36117 0.37968,-0.69549 0.7676,-0.69549 h 0.052 v -0.37861 -0.37861 h -0.0381 c -0.99184,0 -1.03021,-1.37658 -0.0403,-1.44765 l 0.0784,-0.005 v -0.29809 -0.29809 l -0.0949,-0.0108 c -0.95002,-0.1074 -0.96399,-1.31053 -0.0168,-1.44144 l 0.11158,-0.0154 v -0.33527 -0.33528 h -0.0382 c -0.99231,0 -1.03067,-1.37659 -0.0403,-1.44765 l 0.0785,-0.005 v -0.37727 -0.37727 h -0.0382 c -0.3453,0 -0.68756,-0.25799 -0.76857,-0.57933 -0.10551,-0.41858 0.29228,-0.87126 0.76564,-0.87126 h 0.041 v -0.37735 -0.37735 l -0.0725,-0.006 c -0.97947,-0.0843 -0.98473,-1.37367 -0.007,-1.44392 l 0.0785,-0.005 v -0.37594 -0.37593 l -0.0793,-0.006 c -0.96945,-0.0695 -0.96937,-1.37493 1.1e-4,-1.44455 l 0.0793,-0.006 v -0.33507 -0.33508 l -0.0336,-0.006 c -0.0185,-0.003 -0.0466,-0.006 -0.0625,-0.006 -0.16251,0 -0.42356,-0.12838 -0.54648,-0.26879 -0.39578,-0.45204 -0.0939,-1.1018 0.54544,-1.17405 l 0.0971,-0.011 v -0.37133 -0.37133 l -0.0241,-0.005 c -0.0133,-0.003 -0.0408,-0.005 -0.0612,-0.005 -0.17385,-4.5e-4 -0.42761,-0.12342 -0.55621,-0.26921 -0.40281,-0.45672 -0.0817,-1.12131 0.56894,-1.17769 l 0.0725,-0.006 v -0.33466 -0.33465 l -0.0949,-0.0108 c -0.96155,-0.10871 -0.95137,-1.37367 0.0116,-1.44007 l 0.0833,-0.006 v -0.37599 -0.37601 l -0.068,-0.006 c -0.98925,-0.0861 -0.97518,-1.4472 0.015,-1.4472 h 0.0531 v -0.34212 -0.34211 h -0.0574 c -0.98184,0 -0.99618,-1.36911 -0.0152,-1.44738 l 0.0725,-0.006 v -0.29842 -0.2984 l -0.0779,-0.005 c -0.98073,-0.0708 -0.95318,-1.44766 0.029,-1.44766 h 0.0489 v -0.29915 -0.29914 l -0.11065,-0.0149 c -0.94982,-0.12794 -0.92583,-1.38161 0.0274,-1.43726 z"
       fill="#f2f2f2"
       style="stroke-width:0.00990043" /><path
       style="display:inline;fill:#ffffff;fill-opacity:1;stroke:#000000;stroke-width:1.01058;stroke-linecap:round;stroke-linejoin:round;stroke-miterlimit:4;stroke-dasharray:none;stroke-dashoffset:3.003;stroke-opacity:1"
       d="m 435.92,320.11685 0.85682,24.79233 h 23.99081 v -25.4873 z"
       id="path3802"
       inkscape:connector-curvature="0"
       sodipodi:nodetypes="ccccc" /><g
       aria-label="jelo"
       transform="scale(0.98520987,1.0150122)"
       id="text6530"
       style="font-size:24.3379px;font-family:Nishiki-teki-lili;-inkscape-font-specification:Nishiki-teki-lili;stroke:#000000;stroke-width:0.43359;stroke-linecap:round;stroke-linejoin:round;stop-color:#000000"><path
         d="m 455.29314,325.30868 q 0.87617,-0.0487 1.38726,-0.26771 0.5111,-0.21904 0.73014,-0.55977 0.21904,-0.34073 0.21904,-0.75448 0,-0.9005 -0.92484,-2.04438 -0.9005,-1.16822 -1.87402,-1.16822 -0.97351,0 -1.65497,0.85182 -0.65713,0.85183 -0.65713,1.89836 0,0.82749 0.55977,1.43594 0.58411,0.60844 1.87402,0.60844 z m 3.40731,10.87905 -3.77238,-5.25699 -3.65068,5.18397 z m 1.87402,1.84968 -11.07375,-0.0974 q -0.82749,0 -0.92484,-0.9005 0,-0.29205 0.17037,-0.53543 l 5.30566,-7.54475 v -1.87402 q -0.87616,-0.12169 -1.48461,-0.51109 -1.55763,-0.90051 -1.84968,-2.67717 l -1.67932,-0.073 q -0.75447,0 -0.9005,-0.94918 0.1947,-0.9005 0.94918,-0.9005 l 1.72799,0.073 q 0.26772,-1.09521 1.07087,-2.02005 0.87616,-0.99785 2.06872,-1.26557 0,-0.55977 0.0243,-0.55977 l 0.0243,-0.87617 q 0,-0.77881 0.90051,-0.9005 0.3894,0 0.65712,0.26772 0.29205,0.24338 0.29205,0.68146 l -0.0243,1.46027 q 1.28991,0.36507 2.28776,1.50895 0.77881,0.92484 1.0952,1.9227 h 1.94704 q 0.3894,0 0.65712,0.26771 0.26772,0.26772 0.26772,0.65713 -0.0974,0.85182 -0.92484,0.92484 h -1.72799 q -0.12169,1.07087 -0.97352,1.94703 -0.85183,0.85183 -2.55548,1.04653 v 1.99571 l 5.37868,7.47173 q 0.17036,0.26772 0.17036,0.55977 0,0.36507 -0.26772,0.63279 -0.24337,0.26772 -0.60844,0.26772 z"
         style="font-family:'linja lipamanka';-inkscape-font-specification:'linja lipamanka'"
         id="path5067" /></g><path
       style="fill:none;fill-opacity:1;stroke:#000000;stroke-width:3;stroke-linecap:round;stroke-linejoin:round;stroke-dasharray:none;stroke-opacity:1;stop-color:#000000"
       d="m 315.35902,328.77128 c 0,4.20221 0,8.40441 0,12.60662"
       id="path15054" /><path
       style="fill:none;fill-opacity:1;stroke:#000000;stroke-width:3;stroke-linecap:round;stroke-linejoin:round;stroke-dasharray:none;stroke-opacity:1;stop-color:#000000"
       d="m 315.37387,341.3779 c 1.44733,-0.69949 3.08004,-1.01083 4.68322,-0.89306 1.60318,0.11777 3.17286,0.66438 4.50244,1.56786 1.32957,0.90348 2.41575,2.16162 3.11556,3.60879 0.69982,1.44717 1.01153,3.07982 0.89412,4.68302 -0.21678,2.96002 -1.96236,5.76667 -4.52148,7.26989 -2.55911,1.50322 -5.86054,1.66117 -8.55147,0.40913"
       id="path15074" /><path
       style="fill:none;fill-opacity:1;stroke:#000000;stroke-width:3;stroke-linecap:round;stroke-linejoin:round;stroke-dasharray:none;stroke-opacity:1;stop-color:#000000"
       d="m 315.25148,358.14592 v 16.64563"
       id="path15080" /><path
       style="fill:none;fill-opacity:1;stroke:#000000;stroke-width:3;stroke-linecap:round;stroke-linejoin:round;stroke-dasharray:none;stroke-opacity:1;stop-color:#000000"
       d="m 320.94281,328.3123 v 5.69134"
       id="path15086" /><path
       style="fill:none;fill-opacity:1;stroke:#000000;stroke-width:3;stroke-linecap:round;stroke-linejoin:round;stroke-dasharray:none;stroke-opacity:1;stop-color:#000000"
       d="m 325.04302,327.97572 7.42016,7.42016"
       id="path15092" /><path
       style="fill:none;fill-opacity:1;stroke:#000000;stroke-width:3;stroke-linecap:round;stroke-linejoin:round;stroke-dasharray:none;stroke-opacity:1;stop-color:#000000"
       d="m 333.51883,327.79213 -8.15452,8.15452"
       id="path15098" /><path
       style="fill:none;fill-opacity:1;stroke:#000000;stroke-width:3;stroke-linecap:round;stroke-linejoin:round;stroke-dasharray:none;stroke-opacity:1;stop-color:#000000"
       d="m 299.94319,375.58973 30.84126,0.36196"
       id="path19577" /><path
       style="fill:none;stroke:#000000;stroke-width:3;stroke-linecap:round;stroke-linejoin:round;stroke-dasharray:none;stroke-opacity:1;stop-color:#000000"
       d="m 352.60321,319.59136 52.62735,0.0462"
       id="path27890" /><path
       style="fill:none;stroke:#000000;stroke-width:3;stroke-linecap:round;stroke-linejoin:round;stroke-dasharray:none;stroke-opacity:1;stop-color:#000000"
       d="m 378.73155,319.86606 -0.0484,23.37629"
       id="path27896" /><path
       style="fill:none;stroke:#000000;stroke-width:3;stroke-linecap:round;stroke-linejoin:round;stroke-dasharray:none;stroke-opacity:1;stop-color:#000000"
       d="m 378.71326,332.24168 c -2.1929,0.0147 -4.37823,0.65243 -6.23478,1.81957 -1.85656,1.16714 -3.37858,2.86003 -4.34235,4.82984 -0.96377,1.96981 -1.36631,4.21043 -1.14844,6.39253 0.21787,2.1821 1.05547,4.2989 2.38968,6.03927 1.33497,1.74137 3.16299,3.10045 5.21508,3.87727 2.05209,0.77682 4.32186,0.96897 6.47533,0.54816 2.15347,-0.42081 4.18394,-1.45326 5.79264,-2.94544 1.60871,-1.49217 2.79063,-3.43943 3.37188,-5.55524 0.96667,-3.51883 0.19291,-7.47187 -2.02913,-10.36654 -2.22204,-2.89468 -5.8408,-4.66381 -9.48991,-4.63942 z"
       id="path27914" /><path
       style="fill:none;stroke:#000000;stroke-width:3;stroke-linecap:round;stroke-linejoin:round;stroke-dasharray:none;stroke-opacity:1;stop-color:#000000"
       d="m 379.04629,356.36471 -0.30492,8.12793"
       id="path27920" /><path
       style="fill:none;stroke:#000000;stroke-width:3;stroke-linecap:round;stroke-linejoin:round;stroke-dasharray:none;stroke-opacity:1;stop-color:#000000"
       d="m 378.61637,364.49371 c -1.30722,-0.46051 -2.73393,-0.57705 -4.09855,-0.33477 -1.36463,0.24227 -2.66403,0.8428 -3.73283,1.72515 -1.06881,0.88236 -1.90456,2.04451 -2.4009,3.33855 -0.49634,1.29404 -0.65212,2.717 -0.44751,4.08778 0.36696,2.4585 1.93756,4.7082 4.11897,5.89996 2.18142,1.19176 4.92307,1.29794 7.19013,0.27847"
       id="path27926" /><path
       style="fill:none;stroke:#000000;stroke-width:3;stroke-linecap:round;stroke-linejoin:round;stroke-dasharray:none;stroke-opacity:1;stop-color:#000000"
       d="m 379.2457,379.48885 -0.0926,18.25147"
       id="path27932" /><path
       style="fill:none;stroke:#000000;stroke-width:3;stroke-linecap:round;stroke-linejoin:round;stroke-dasharray:none;stroke-opacity:1;stop-color:#000000"
       d="m 351.78556,398.72635 54.25338,0.15718"
       id="path27938" /><path
       style="fill:none;stroke:#000000;stroke-width:3;stroke-linecap:round;stroke-linejoin:round;stroke-dasharray:none;stroke-opacity:1;stop-color:#000000"
       d="m 360.58586,390.02514 36.87686,0.057"
       id="path27944" /><path
       style="fill:none;stroke:#000000;stroke-width:3;stroke-linecap:round;stroke-linejoin:round;stroke-dasharray:none;stroke-opacity:1;stop-color:#000000"
       d="m 382.94027,383.45464 -0.0655,2.65232"
       id="path27950" /><path
       style="fill:none;stroke:#000000;stroke-width:3;stroke-linecap:round;stroke-linejoin:round;stroke-dasharray:none;stroke-opacity:1;stop-color:#000000"
       d="m 386.85437,386.33782 -3.80094,-0.0114"
       id="path27956" /><path
       style="fill:none;stroke:#000000;stroke-width:3;stroke-linecap:round;stroke-linejoin:round;stroke-dasharray:none;stroke-opacity:1;stop-color:#000000"
       d="m 383.79893,360.02346 -0.0655,2.65231"
       id="path27950-6" /><path
       style="fill:none;stroke:#000000;stroke-width:3;stroke-linecap:round;stroke-linejoin:round;stroke-dasharray:none;stroke-opacity:1;stop-color:#000000"
       d="m 387.71302,362.90664 -3.80094,-0.0114"
       id="path27956-6" /><path
       style="fill:none;stroke:#000000;stroke-width:3;stroke-linecap:round;stroke-linejoin:round;stroke-dasharray:none;stroke-opacity:1;stop-color:#000000"
       d="m 382.96183,324.45305 0.0351,4.0657"
       id="path28005" /><path
       style="fill:none;stroke:#000000;stroke-width:3;stroke-linecap:round;stroke-linejoin:round;stroke-dasharray:none;stroke-opacity:1;stop-color:#000000"
       d="m 383.08947,329.00411 7.17137,-3.77429"
       id="path28011" /><path
       style="fill:none;stroke:#000000;stroke-width:3;stroke-linecap:round;stroke-linejoin:round;stroke-dasharray:none;stroke-opacity:1;stop-color:#000000"
       d="m 405.4461,320.05641 -0.0625,6.9375"
       id="path28295" /><path
       style="fill:none;stroke:#000000;stroke-width:3;stroke-linecap:round;stroke-linejoin:round;stroke-dasharray:none;stroke-opacity:1;stop-color:#000000"
       d="m 352.1961,319.86891 -0.25,6.875"
       id="path28301" /><path
       style="fill:none;stroke:#000000;stroke-width:3;stroke-linecap:round;stroke-linejoin:round;stroke-dasharray:none;stroke-opacity:1;stop-color:#000000"
       d="m 351.1336,398.36891 -0.0625,-4.625"
       id="path28307" /><path
       style="fill:none;stroke:#000000;stroke-width:3;stroke-linecap:round;stroke-linejoin:round;stroke-dasharray:none;stroke-opacity:1;stop-color:#000000"
       d="m 406.3836,398.86891 -0.0625,-5.125"
       id="path28313" /></g></svg>
